<?xml version="1.0" standalone="no"?>
<!DOCTYPE svg PUBLIC "-//W3C//DTD SVG 20010904//EN"
 "http://www.w3.org/TR/2001/REC-SVG-20010904/DTD/svg10.dtd">
<svg version="1.0" xmlns="http://www.w3.org/2000/svg"
 width="739.000000pt" height="1600.000000pt" viewBox="0 0 739.000000 1600.000000"
 preserveAspectRatio="xMidYMid meet">

<g transform="translate(0.000000,1600.000000) scale(0.100000,-0.100000)"
fill="#000000" stroke="none">
<path d="M0 8000 l0 -8000 3695 0 3695 0 0 8000 0 8000 -3695 0 -3695 0 0
-8000z m1529 7615 c16 -8 31 -21 35 -30 8 -23 -21 -31 -43 -11 -10 9 -25 16
-34 16 -22 0 -47 -28 -47 -53 0 -16 3 -18 12 -9 19 19 76 14 98 -8 46 -46 9
-130 -56 -130 -46 0 -63 9 -79 41 -18 34 -19 115 -2 149 12 24 50 50 75 50 7
0 26 -7 41 -15z m4649 -14 c50 -25 59 -39 40 -58 -13 -13 -19 -12 -49 6 -58
35 -111 37 -174 6 -54 -26 -75 -26 -75 -1 0 19 31 44 76 61 50 19 129 13 182
-14z m640 9 c19 -18 22 -31 22 -100 0 -124 4 -122 -236 -118 -233 4 -224 -2
-224 124 0 116 -4 114 230 114 174 0 188 -1 208 -20z m-5868 -105 c0 -108 -1
-115 -20 -115 -19 0 -20 7 -20 90 0 95 -6 106 -42 73 -17 -15 -18 -15 -18 5 0
26 45 62 76 62 24 0 24 -1 24 -115z m140 0 c0 -108 -1 -115 -20 -115 -19 0
-20 7 -20 96 l0 95 -30 -21 c-27 -20 -30 -20 -30 -4 0 24 49 63 78 64 22 0 22
-2 22 -115z m258 3 c-3 -105 -4 -113 -23 -113 -18 0 -20 8 -25 94 -4 82 -7 92
-19 78 -17 -21 -40 -22 -37 -3 3 23 49 55 79 56 l28 0 -3 -112z m-150 59 c4
-20 -25 -34 -40 -19 -15 15 -1 44 19 40 10 -2 19 -11 21 -21z m4947 -41 c27
-18 29 -24 16 -45 -8 -12 -14 -12 -44 2 -43 21 -50 21 -89 1 -27 -14 -32 -14
-45 -1 -49 48 96 86 162 43z m736 -33 c-9 -15 -10 -12 -10 17 0 29 1 32 10 18
7 -12 7 -24 0 -35z m-1316 -33 c0 -63 -1 -65 -25 -65 -23 0 -25 4 -28 54 -4
68 2 83 30 79 21 -3 23 -8 23 -68z m-97 -22 c-3 -38 -6 -43 -28 -43 -22 0 -25
5 -28 43 -3 41 -2 42 28 42 30 0 31 -1 28 -42z m-4268 13 c0 -27 -19 -36 -37
-18 -18 18 -9 37 18 37 12 0 19 -7 19 -19z m4906 5 c19 -15 18 -15 -7 -41
l-25 -26 -25 27 c-23 25 -24 26 -5 40 25 18 37 18 62 0z m-4413 -442 c65 -22
149 -101 184 -172 24 -49 28 -69 28 -142 0 -71 -4 -94 -26 -140 -35 -73 -109
-145 -179 -172 -83 -32 -187 -30 -265 6 -119 54 -198 175 -198 302 1 240 226
397 456 318z m4883 -122 c17 -12 64 -85 64 -101 0 -8 -8 -23 -17 -33 -16 -18
-15 -21 30 -65 44 -45 47 -46 65 -30 25 23 38 22 89 -10 59 -38 66 -68 24
-105 -61 -54 -152 -28 -254 73 -96 96 -122 187 -71 248 25 30 48 38 70 23z
m-6196 -39 c0 -10 -33 -50 -72 -91 l-73 -73 73 -65 c67 -61 86 -94 62 -109
-11 -7 -183 150 -188 172 -5 20 156 183 180 183 10 0 18 -7 18 -17z m5468 8
c7 -4 19 -25 26 -45 l13 -37 31 26 c19 16 41 25 54 23 22 -3 23 -6 23 -118 l0
-115 -25 -3 c-17 -2 -34 6 -50 23 -28 30 -40 32 -40 6 0 -10 -9 -30 -21 -45
-20 -26 -22 -26 -155 -26 -130 0 -136 1 -159 25 -24 23 -25 31 -25 133 0 95 3
113 21 136 20 26 21 26 157 26 75 0 143 -4 150 -9z m-3150 -58 c5 -17 -26 -29
-40 -15 -6 6 -7 15 -3 22 9 14 37 9 43 -7z m542 -98 c0 -108 -1 -115 -20 -115
-19 0 -20 7 -20 115 0 108 1 115 20 115 19 0 20 -7 20 -115z m80 94 c0 -14 -5
-19 -17 -17 -26 5 -29 38 -4 38 15 0 21 -6 21 -21z m980 -19 c0 -39 1 -39 25
-28 18 8 32 8 49 0 26 -12 34 -38 32 -109 -1 -37 -5 -49 -18 -51 -15 -3 -18 4
-18 40 0 66 -9 88 -35 88 -28 0 -35 -17 -35 -81 0 -42 -3 -49 -20 -49 -19 0
-20 7 -20 115 0 108 1 115 20 115 17 0 20 -7 20 -40z m-3619 -2 c2 -18 3 -70
1 -115 -3 -62 -7 -83 -17 -83 -11 0 -14 20 -14 88 1 48 0 91 0 95 -1 5 -11 1
-23 -7 -26 -18 -38 -20 -38 -6 0 9 68 60 81 60 4 0 8 -15 10 -32z m178 15 c43
-35 47 -144 9 -196 -21 -28 -72 -33 -96 -9 -67 67 -37 222 43 222 13 0 33 -8
44 -17z m1316 -26 c0 -20 3 -39 7 -42 3 -3 23 14 43 39 21 26 46 46 56 46 26
0 24 -6 -16 -53 -19 -22 -35 -43 -35 -47 0 -4 18 -31 40 -60 22 -29 40 -55 40
-57 0 -2 -10 -3 -23 -3 -17 0 -34 14 -57 46 -30 42 -35 45 -46 30 -6 -10 -10
-31 -7 -47 4 -27 2 -30 -19 -27 -22 3 -23 7 -26 102 -2 73 1 102 10 108 22 14
33 3 33 -35z m948 32 c21 -9 47 -46 47 -64 0 -15 -41 -2 -50 15 -15 28 -64 27
-84 -2 -34 -48 -9 -128 40 -128 13 0 32 9 41 20 18 20 53 28 53 11 0 -6 -10
-22 -23 -37 -19 -21 -32 -27 -67 -27 -36 0 -48 6 -72 32 -32 36 -38 93 -13
141 25 48 75 63 128 39z m1107 -9 c0 -16 -7 -20 -30 -20 l-30 0 0 -90 c0 -83
-1 -90 -20 -90 -19 0 -20 7 -20 90 l0 90 -35 0 c-23 0 -35 5 -35 13 0 24 12
27 92 27 71 0 78 -2 78 -20z m602 -72 l3 -93 48 -3 c33 -2 47 -7 47 -18 0 -11
-16 -14 -70 -14 l-70 0 0 103 c0 105 3 117 26 117 10 0 14 -25 16 -92z m-1072
52 c0 -13 7 -20 20 -20 11 0 20 -5 20 -11 0 -6 -9 -13 -20 -16 -16 -4 -20 -14
-20 -50 0 -36 4 -46 20 -50 31 -8 25 -33 -8 -33 -40 0 -52 17 -52 77 0 29 -4
53 -10 53 -5 0 -10 7 -10 15 0 8 5 15 10 15 6 0 10 9 10 20 0 13 7 20 20 20
13 0 20 -7 20 -20z m-1326 -31 c17 -14 26 -30 26 -50 0 -29 -1 -29 -55 -29
-53 0 -55 -1 -45 -20 12 -23 41 -26 70 -8 27 17 37 2 15 -22 -24 -26 -85 -27
-109 -1 -9 10 -19 35 -23 54 -5 31 -1 40 25 67 36 35 59 38 96 9z m417 2 c20
-16 24 -29 26 -85 2 -59 0 -66 -18 -66 -16 0 -19 7 -19 49 0 64 -7 81 -35 81
-28 0 -35 -17 -35 -81 0 -42 -3 -49 -20 -49 -18 0 -20 7 -20 81 0 81 0 81 24
77 14 -3 31 -1 38 3 20 13 34 11 59 -10z m624 -6 c14 -13 25 -36 25 -50 0 -24
-3 -25 -56 -25 -56 0 -67 -11 -32 -34 12 -7 24 -6 43 4 36 19 56 -1 24 -24
-76 -53 -163 32 -118 115 22 42 80 49 114 14z m173 9 c19 -13 22 -24 22 -85 0
-62 -2 -69 -20 -69 -16 0 -19 8 -22 63 -3 59 -4 62 -28 62 -24 0 -25 -3 -28
-62 -3 -55 -6 -63 -22 -63 -18 0 -20 7 -20 81 0 81 0 81 24 77 14 -3 31 -1 38
3 19 12 31 11 56 -7z m281 1 c26 -13 40 -39 41 -72 0 -9 -18 -13 -56 -13 -47
0 -55 -3 -52 -17 4 -21 45 -30 61 -14 16 16 37 14 37 -4 0 -36 -87 -48 -120
-15 -26 26 -28 100 -2 122 16 15 38 26 55 27 4 1 21 -6 36 -14z m614 4 c25
-11 47 -47 47 -74 0 -11 -14 -15 -56 -15 -47 0 -55 -3 -52 -17 4 -21 45 -30
61 -14 16 16 37 14 37 -4 0 -37 -95 -48 -125 -15 -21 23 -24 92 -4 116 12 15
43 32 61 33 4 1 18 -4 31 -10z m199 -16 c12 -11 18 -30 18 -60 0 -54 -26 -83
-75 -83 -50 0 -75 29 -75 84 0 37 5 48 27 66 31 24 74 22 105 -7z m332 6 c21
-17 26 -29 26 -65 0 -55 -25 -84 -75 -84 -49 0 -75 29 -75 83 0 29 6 49 18 59
37 33 70 35 106 7z m149 7 c15 -8 27 -11 27 -5 0 5 9 9 20 9 18 0 20 -7 20
-84 0 -97 -14 -123 -70 -132 -27 -4 -42 -1 -60 14 -32 26 -19 40 22 24 38 -14
68 -1 68 30 0 17 -3 19 -12 10 -7 -7 -25 -12 -40 -12 -65 0 -92 87 -43 135 28
29 31 30 68 11z m-2688 -51 c9 -30 18 -55 20 -55 3 0 12 25 20 55 13 42 21 55
36 55 24 0 24 3 -7 -86 -22 -61 -30 -74 -48 -74 -18 0 -26 12 -46 68 -13 37
-25 73 -28 80 -2 7 4 12 17 12 16 0 24 -11 36 -55z m160 -25 c0 -74 -2 -81
-19 -78 -18 3 -19 11 -18 78 1 41 1 76 2 78 0 1 8 2 18 2 15 0 17 -10 17 -80z
m625 0 c0 -73 -2 -80 -20 -80 -18 0 -20 7 -20 80 0 73 2 80 20 80 18 0 20 -7
20 -80z m-2368 -3560 c58 -59 72 -93 43 -104 -25 -9 -58 9 -108 62 -56 61 -64
102 -20 102 20 0 42 -16 85 -60z m5931 -1561 c54 -15 111 -69 126 -121 16 -53
17 -599 1 -737 -27 -236 -71 -338 -172 -398 -44 -26 -71 -32 -170 -37 -43 -3
-86 -10 -98 -16 -11 -6 -20 -8 -20 -5 0 3 -24 -4 -52 -16 -50 -19 -85 -20
-698 -30 -700 -11 -3935 -6 -4012 6 l-47 7 -13 56 c-10 43 -13 191 -13 607 0
550 0 550 22 592 25 47 62 77 113 91 50 15 4982 16 5033 1z m-5628 -591 c29
-13 55 -55 55 -88 0 -80 -118 -123 -197 -74 -50 31 -13 128 62 160 38 17 48
17 80 2z m3940 -1298 c224 -37 384 -258 345 -479 -48 -278 -342 -433 -592
-313 -35 17 -76 41 -93 55 -26 22 -30 31 -30 79 0 45 -3 54 -22 63 -18 8 -23
18 -23 47 0 36 -17 88 -29 88 -3 0 -16 8 -29 18 -22 17 -23 21 -12 85 6 37 23
93 37 125 53 111 183 212 300 232 68 11 81 11 148 0z m-4262 -337 c64 -37 117
-72 117 -78 0 -13 -232 -147 -258 -149 -15 -1 -17 13 -20 139 -1 76 0 145 3
153 7 18 16 14 158 -65z m592 7 c63 -39 57 -149 -11 -182 -43 -22 -66 -22
-104 -3 -40 21 -60 53 -60 98 0 31 7 46 34 73 41 41 90 45 141 14z m3207 -157
c15 -13 18 -31 18 -98 0 -70 -3 -85 -21 -101 -19 -17 -23 -17 -47 -3 -25 14
-27 19 -30 98 -2 67 0 87 14 102 21 23 42 24 66 2z m-112 -169 c0 -35 42 -74
80 -74 41 0 80 39 80 80 0 16 5 30 11 30 17 0 3 -68 -18 -92 -10 -11 -28 -24
-40 -29 -17 -6 -23 -17 -23 -39 0 -16 -4 -30 -10 -30 -5 0 -10 13 -10 29 0 20
-6 32 -18 35 -32 10 -62 51 -69 91 -4 28 -3 36 5 31 7 -4 12 -18 12 -32z
m-593 -281 c-8 -10 -17 -31 -20 -48 l-4 -30 -2 32 c0 17 6 39 15 47 21 22 31
20 11 -1z m161 -3 c-7 -10 -14 -17 -17 -15 -4 4 18 35 25 35 2 0 -1 -9 -8 -20z
m-2599 -4 c18 -21 10 -87 -12 -100 -28 -17 -60 27 -51 68 10 45 40 60 63 32z
m110 0 c14 -17 4 -43 -25 -67 -11 -9 -9 -2 6 19 19 25 21 35 12 44 -10 10 -17
10 -35 -1 -20 -13 -21 -13 -8 2 17 21 35 22 50 3z m2539 -41 c-4 -52 -32 -69
-59 -36 -10 13 -19 31 -19 40 1 9 7 1 15 -17 10 -23 20 -32 32 -30 14 3 18 13
18 50 0 26 4 43 8 39 5 -5 7 -25 5 -46z m101 -2 c-1 -62 -6 -56 -11 15 -2 23
0 42 4 42 5 0 7 -26 7 -57z m-2965 22 c-9 -35 3 -73 24 -79 13 -4 13 -4 -3 -3
-24 3 -40 44 -31 81 3 14 9 26 11 26 3 0 3 -11 -1 -25z m66 -25 c0 -14 -4 -30
-8 -37 -4 -6 -7 11 -7 37 0 26 3 43 7 37 4 -7 8 -23 8 -37z m2630 -29 c-6 -12
-18 -21 -28 -20 -14 0 -14 2 -2 6 20 8 29 23 31 53 2 23 2 23 6 3 2 -12 -1
-31 -7 -42z m223 29 c-3 -11 -9 -20 -15 -20 -5 0 -4 9 2 20 6 11 12 20 14 20
2 0 2 -9 -1 -20z m-343 -30 c0 -5 -5 -10 -11 -10 -5 0 -7 5 -4 10 3 6 8 10 11
10 2 0 4 -4 4 -10z m-2241 -26 c2 -2 -12 -4 -32 -4 -20 0 -37 4 -37 10 0 8 58
3 69 -6z m501 -522 c0 -5 -9 -17 -20 -27 -20 -18 -25 -11 -14 19 6 17 34 23
34 8z m-235 -12 c33 -13 59 -71 50 -116 -11 -62 -83 -93 -132 -59 -51 36 -46
145 7 172 30 15 41 16 75 3z m103 -87 c-4 -126 -23 -122 -24 5 -1 72 2 92 13
92 11 0 13 -19 11 -97z m810 86 c-2 -6 -8 -10 -13 -10 -5 0 -11 4 -13 10 -2 6
4 11 13 11 9 0 15 -5 13 -11z m678 -85 c2 -95 -1 -111 -20 -95 -7 6 -17 6 -26
1 -38 -24 -80 11 -80 67 0 59 53 96 88 61 9 -9 12 -4 12 26 0 25 4 36 12 34 9
-3 13 -33 14 -94z m285 74 c1 -13 1 -29 0 -36 -2 -11 2 -11 19 -2 30 16 64 5
78 -25 18 -38 15 -61 -11 -91 -22 -25 -27 -26 -55 -16 -21 7 -32 7 -32 1 0 -6
-4 -7 -10 -4 -6 3 -10 48 -10 101 0 56 4 94 10 94 6 0 11 -10 11 -22z m610
-10 c13 -24 3 -55 -22 -68 -10 -6 -19 -17 -19 -25 0 -17 -16 -20 -24 -6 -4 5
6 23 20 40 14 17 23 38 20 46 -7 21 -43 19 -55 -2 -11 -21 -26 -11 -17 12 13
36 78 38 97 3z m232 4 c41 -36 4 -102 -58 -102 -33 0 -35 -2 -35 -35 0 -19 -4
-35 -10 -35 -10 0 -15 182 -4 192 10 11 89 -4 107 -20z m317 -66 c0 -52 -4
-97 -9 -100 -5 -4 -11 -1 -13 5 -3 9 -10 8 -25 -1 -49 -31 -103 53 -68 106 21
32 40 39 71 26 23 -11 24 -10 24 23 0 19 5 35 10 35 6 0 10 -38 10 -94z m310
78 c0 -17 -22 -14 -28 4 -2 7 3 12 12 12 9 0 16 -7 16 -16z m870 0 c0 -9 -5
-14 -12 -12 -18 6 -21 28 -4 28 9 0 16 -7 16 -16z m310 -86 c0 -73 -3 -99 -11
-91 -8 8 -19 8 -40 0 -25 -10 -32 -8 -51 11 -14 14 -22 34 -22 57 0 23 8 43
22 57 19 20 26 21 52 11 30 -11 30 -11 30 23 0 19 5 34 10 34 6 0 10 -41 10
-102z m-4060 50 l0 -42 43 42 c54 53 85 56 34 4 l-38 -39 41 -51 c27 -33 37
-53 29 -58 -7 -4 -22 7 -38 27 -14 18 -32 40 -38 48 -11 14 -14 14 -23 1 -5
-8 -10 -30 -10 -47 0 -18 -4 -33 -10 -33 -6 0 -10 38 -10 95 0 57 4 95 10 95
6 0 10 -19 10 -42z m840 32 c0 -5 -13 -10 -30 -10 l-30 0 0 -86 c0 -54 -4 -83
-10 -79 -5 3 -10 42 -10 86 l0 79 -30 0 c-16 0 -30 5 -30 10 0 6 30 10 70 10
40 0 70 -4 70 -10z m-1069 -40 c15 -9 19 -22 19 -70 0 -32 -4 -62 -10 -65 -5
-3 -10 -2 -10 4 0 7 -8 7 -24 0 -32 -15 -66 4 -66 36 0 27 25 45 64 45 29 0
33 11 12 29 -11 9 -20 9 -35 2 -33 -18 -46 -13 -26 9 20 22 46 25 76 10z m459
-10 c11 -11 20 -29 20 -40 0 -17 -7 -20 -50 -20 -27 0 -50 -4 -50 -9 0 -19 33
-42 49 -35 9 3 25 8 36 11 18 4 18 3 -4 -16 -47 -42 -106 -11 -104 55 2 64 61
96 103 54z m80 -40 c17 -55 17 -55 28 -27 7 15 15 39 18 53 6 25 21 40 30 31
10 -9 -43 -142 -56 -142 -12 0 -58 104 -59 133 -2 32 23 1 39 -48z m138 -21
c-2 -36 -7 -63 -13 -62 -11 3 -19 107 -10 131 12 33 26 -7 23 -69z m62 69 c0
-9 3 -9 12 0 17 17 44 15 62 -4 18 -18 23 -119 6 -129 -6 -4 -10 14 -10 48 0
63 -16 85 -49 68 -15 -9 -21 -23 -23 -64 -2 -28 -7 -51 -13 -49 -9 2 -15 117
-7 135 5 12 22 8 22 -5z m366 -6 c1 -7 2 -33 3 -58 1 -43 2 -45 29 -42 25 3
27 7 32 58 6 71 24 67 28 -6 4 -70 -3 -91 -22 -75 -10 8 -16 9 -21 1 -9 -15
-41 -12 -59 6 -20 20 -23 138 -3 132 6 -3 13 -10 13 -16z m394 -2 c37 -37 22
-112 -25 -124 -51 -13 -91 32 -81 89 10 51 70 71 106 35z m380 0 c11 -11 20
-29 20 -40 0 -17 -7 -20 -50 -20 -54 0 -62 -10 -28 -34 15 -11 26 -12 39 -6
32 18 45 10 20 -11 -18 -14 -32 -18 -50 -14 -40 10 -51 24 -51 66 0 44 27 79
60 79 11 0 29 -9 40 -20z m70 10 c0 -6 8 -5 20 2 16 10 24 10 39 1 14 -9 26
-9 49 -1 46 18 62 -1 62 -73 0 -32 -4 -61 -10 -64 -6 -4 -10 14 -10 48 0 58
-15 82 -43 71 -11 -4 -17 -22 -19 -60 -2 -30 -7 -54 -13 -54 -5 0 -11 24 -13
54 -2 36 -8 56 -17 60 -26 9 -45 -23 -45 -75 0 -27 -4 -49 -10 -49 -6 0 -10
32 -10 75 0 43 4 75 10 75 6 0 10 -5 10 -10z m671 -9 c47 -38 18 -131 -41
-131 -35 0 -62 33 -62 75 0 65 55 95 103 56z m318 -7 c34 -43 28 -54 -30 -54
-43 0 -50 -3 -47 -17 3 -14 13 -18 46 -16 23 1 42 -3 42 -8 0 -9 -41 -29 -61
-29 -19 0 -59 49 -59 73 0 34 37 77 65 77 14 0 32 -11 44 -26z m121 10 c0 -8
-8 -14 -19 -14 -21 0 -31 -26 -31 -83 0 -23 -4 -36 -10 -32 -5 3 -10 37 -10
74 l0 67 35 1 c24 1 35 -3 35 -13z m48 -56 c-4 -86 -22 -94 -26 -12 -3 62 1
84 18 84 7 0 10 -26 8 -72z m123 62 c16 -9 19 -22 19 -77 0 -50 -3 -64 -11
-56 -8 8 -18 8 -34 1 -34 -15 -67 6 -63 40 3 23 10 28 46 36 42 10 55 29 26
40 -8 3 -25 1 -36 -5 -27 -14 -38 -1 -14 17 23 17 40 18 67 4z m176 2 c10 8
20 8 39 0 19 -9 29 -9 44 1 37 22 55 -1 58 -77 2 -41 -1 -66 -8 -66 -6 0 -10
23 -10 54 0 60 -16 84 -43 63 -10 -7 -17 -30 -19 -62 -2 -27 -7 -49 -13 -47
-5 1 -8 21 -6 45 1 25 -4 50 -12 62 -23 31 -45 4 -49 -58 -4 -69 -22 -62 -26
9 -4 67 3 93 20 76 9 -9 15 -9 25 0z m275 -5 c9 -7 20 -25 23 -40 7 -27 7 -27
-44 -27 -39 0 -51 -4 -51 -15 0 -21 40 -35 63 -23 26 14 36 -1 13 -18 -64 -46
-136 45 -86 109 23 29 55 34 82 14z m220 -4 c13 -12 18 -30 18 -69 0 -51 -12
-76 -25 -54 -4 7 -13 7 -26 -1 -23 -12 -69 11 -69 36 0 19 39 45 67 45 26 0
31 25 7 34 -8 3 -25 1 -36 -5 -27 -14 -38 -1 -14 17 26 19 55 18 78 -3z m78
-62 c0 -92 -5 -111 -31 -111 -23 0 -25 15 -4 24 12 4 15 24 15 86 0 47 4 80
10 80 6 0 10 -33 10 -79z m60 24 c0 -59 18 -82 52 -64 14 8 18 22 18 64 0 30
5 55 10 55 6 0 10 -32 10 -77 0 -58 -3 -74 -12 -65 -8 8 -17 8 -31 1 -14 -8
-27 -8 -43 0 -22 10 -24 17 -24 76 0 37 4 65 10 65 6 0 10 -25 10 -55z m384
33 c9 -13 16 -43 16 -70 0 -45 -12 -69 -25 -48 -4 6 -12 7 -24 1 -24 -13 -59
-3 -66 19 -10 31 6 50 46 56 40 7 52 27 23 38 -8 3 -25 1 -36 -5 -27 -14 -38
-1 -14 17 29 21 63 17 80 -8z m126 13 c0 -4 -11 -13 -24 -19 -21 -9 -25 -19
-28 -64 -2 -29 -7 -52 -13 -51 -10 3 -20 106 -12 127 5 12 77 19 77 7z m-2334
-112 c10 -17 -13 -36 -27 -22 -12 12 -4 33 11 33 5 0 12 -5 16 -11z m-2136
-11 c0 -25 -12 -58 -21 -58 -10 0 -12 31 -3 54 7 19 24 21 24 4z m795 -275 c0
-68 -4 -98 -12 -100 -7 -3 -13 0 -13 6 0 7 -8 7 -25 -1 -19 -9 -29 -8 -50 6
-21 14 -25 24 -25 61 0 37 4 47 25 61 21 14 31 15 50 6 24 -11 25 -10 25 23 0
22 5 35 13 35 10 0 13 -24 12 -97z m1299 -3 c1 -67 -3 -95 -11 -97 -10 -4 -13
20 -13 97 0 70 3 101 11 98 7 -2 12 -39 13 -98z m64 89 c-2 -6 -8 -10 -13 -10
-5 0 -11 4 -13 10 -2 6 4 11 13 11 9 0 15 -5 13 -11z m390 -1 c9 -9 12 -9 12
0 0 7 7 12 15 12 9 0 12 -6 8 -16 -4 -11 -14 -14 -34 -10 -16 3 -31 1 -34 -4
-9 -15 -25 -2 -18 15 6 18 34 20 51 3z m622 -25 c0 -29 3 -34 12 -25 18 18 45
15 68 -8 51 -51 -2 -157 -60 -120 -9 6 -17 5 -21 -2 -18 -28 -29 9 -29 98 0
77 3 94 15 94 11 0 15 -11 15 -37z m-3501 -39 c34 -43 28 -54 -29 -54 -37 0
-50 -4 -50 -15 0 -22 30 -34 58 -24 14 5 28 7 31 3 9 -8 -29 -34 -51 -34 -27
0 -68 45 -68 75 0 31 41 75 69 75 11 0 29 -12 40 -26z m132 6 c18 -14 20 -19
9 -20 -9 0 -21 5 -27 11 -13 13 -43 5 -43 -11 0 -5 16 -16 35 -24 46 -20 55
-44 26 -68 -28 -22 -50 -23 -77 -4 -26 19 -10 33 20 17 13 -8 29 -10 35 -7 20
13 11 34 -16 41 -53 13 -67 40 -37 69 21 21 47 20 75 -4z m150 1 c30 -24 19
-38 -14 -17 -42 28 -77 -4 -63 -59 8 -31 34 -39 63 -19 33 21 44 7 14 -17 -49
-40 -101 -8 -101 60 0 64 54 91 101 52z m69 7 c0 -9 3 -9 12 0 17 17 38 15 38
-3 0 -8 -9 -15 -19 -15 -23 0 -31 -19 -31 -76 0 -24 -4 -44 -10 -44 -6 0 -10
32 -10 75 0 43 4 75 10 75 6 0 10 -5 10 -12z m170 -8 c11 -11 20 -29 20 -40 0
-17 -7 -20 -50 -20 -27 0 -50 -4 -50 -9 0 -19 33 -42 49 -35 9 3 25 8 36 11
18 4 18 3 -4 -16 -47 -42 -103 -12 -103 54 0 65 60 97 102 55z m76 -35 c10
-30 20 -52 23 -49 3 3 13 26 22 52 14 41 39 69 39 44 0 -25 -49 -137 -60 -137
-12 0 -58 104 -59 133 -2 32 20 6 35 -43z m190 47 c13 -8 34 -46 34 -61 0 -6
-21 -11 -50 -11 -37 0 -50 -4 -50 -15 0 -23 36 -38 61 -25 28 15 39 2 15 -16
-29 -21 -54 -17 -83 12 -20 20 -24 31 -19 57 9 50 59 81 92 59z m109 -2 c10
16 40 12 59 -9 13 -14 16 -33 14 -72 -4 -69 -22 -66 -26 5 -2 38 -8 56 -19 60
-26 10 -42 -13 -45 -67 -4 -69 -22 -62 -26 9 -4 70 3 91 22 75 10 -8 16 -9 21
-1z m365 -8 c31 -25 32 -88 1 -113 -48 -39 -105 -8 -105 56 0 63 57 95 104 57z
m150 -35 c0 -48 12 -77 31 -77 22 0 39 35 39 81 0 27 5 49 10 49 6 0 10 -32
10 -75 0 -43 -4 -75 -10 -75 -5 0 -10 4 -10 9 0 5 -13 4 -29 -2 -46 -17 -61 2
-61 79 0 36 4 64 10 64 6 0 10 -24 10 -53z m216 41 c6 -4 25 -2 42 4 47 18 62
0 62 -78 0 -36 -4 -64 -10 -64 -5 0 -10 24 -10 54 0 99 -56 101 -62 3 -4 -69
-22 -62 -28 10 -3 31 -9 58 -15 60 -24 7 -37 -17 -39 -67 -1 -33 -6 -55 -14
-58 -9 -3 -12 16 -12 70 l0 74 38 0 c20 -1 42 -4 48 -8z m233 -2 c14 -17 21
-125 8 -133 -5 -3 -13 0 -17 7 -5 9 -9 9 -14 1 -10 -15 -38 -14 -61 2 -13 10
-16 21 -11 40 5 22 14 28 46 33 40 7 53 27 24 38 -8 3 -25 1 -36 -5 -27 -14
-38 -1 -14 17 25 18 60 18 75 0z m215 -2 c18 -18 23 -134 6 -134 -5 0 -10 5
-10 10 0 7 -7 7 -20 0 -23 -12 -52 -6 -70 15 -18 22 5 53 45 61 19 3 35 12 35
20 0 20 -16 25 -44 13 -32 -15 -46 -4 -20 16 25 19 59 19 78 -1z m80 -44 l20
-53 15 46 c20 58 47 88 38 42 -8 -42 -45 -125 -55 -125 -6 0 -21 32 -36 71
-30 80 -30 82 -14 77 6 -2 20 -28 32 -58z m187 50 c16 -9 19 -22 19 -75 0 -37
-4 -65 -10 -65 -5 0 -10 4 -10 10 0 6 -9 5 -24 -1 -35 -16 -68 4 -64 39 3 23
10 28 46 36 45 11 50 17 28 35 -11 9 -20 9 -35 2 -33 -18 -46 -13 -26 9 20 22
46 25 76 10z m147 -71 c-2 -36 -7 -63 -13 -62 -11 3 -19 107 -10 131 12 33 26
-7 23 -69z m123 71 c16 -9 19 -22 19 -75 0 -37 -4 -65 -10 -65 -5 0 -10 4 -10
10 0 6 -9 5 -24 -1 -35 -16 -68 4 -64 39 3 23 10 28 46 36 45 11 50 17 28 35
-11 9 -20 9 -35 2 -33 -18 -48 -12 -22 9 26 22 44 25 72 10z m157 -6 c23 -16
29 -34 11 -34 -6 0 -17 7 -25 15 -9 8 -19 15 -24 15 -17 0 -40 -32 -40 -55 0
-23 23 -55 40 -55 5 0 16 7 24 16 9 8 22 14 28 12 8 -3 3 -14 -14 -30 -20 -18
-24 -28 -16 -36 6 -6 8 -18 5 -26 -7 -18 -42 -22 -52 -6 -3 6 4 10 17 10 22 1
22 1 4 15 -11 8 -16 15 -10 15 5 0 -4 11 -20 24 -74 58 -4 174 72 120z m133 6
c16 -9 19 -22 19 -75 0 -37 -4 -65 -10 -65 -5 0 -10 4 -10 10 0 6 -9 5 -24 -1
-35 -16 -68 4 -64 39 2 22 10 29 43 36 50 12 50 12 36 30 -10 11 -19 13 -38 5
-33 -12 -44 -2 -19 17 23 17 40 18 67 4z m159 -8 c46 -37 18 -132 -40 -132
-35 0 -64 35 -63 76 2 64 57 94 103 56z m216 4 c25 -19 12 -31 -16 -16 -24 13
-54 6 -48 -12 2 -6 20 -17 39 -23 28 -10 34 -17 34 -41 0 -40 -42 -55 -82 -29
-17 11 -23 20 -15 23 7 2 19 -1 27 -8 15 -13 55 -5 55 11 0 6 -18 18 -40 26
-31 12 -40 21 -40 39 0 39 49 56 86 30z m144 -4 c46 -37 18 -132 -40 -132 -34
0 -64 35 -64 75 0 63 57 95 104 57z m240 6 c0 -9 3 -9 12 0 17 17 38 15 38 -3
0 -8 -9 -15 -19 -15 -23 0 -31 -19 -31 -76 0 -24 -4 -44 -10 -44 -6 0 -10 32
-10 75 0 43 4 75 10 75 6 0 10 -5 10 -12z m170 -8 c11 -11 20 -29 20 -40 0
-17 -7 -20 -50 -20 -27 0 -50 -4 -50 -9 0 -19 33 -42 49 -35 9 3 25 8 36 11
18 4 18 3 -4 -16 -47 -42 -103 -12 -103 54 0 65 60 97 102 55z m221 1 c48 -38
18 -131 -42 -131 -55 0 -83 102 -37 134 29 21 51 20 79 -3z m166 11 c10 8 20
8 40 -1 18 -8 29 -9 37 -1 36 36 79 -14 74 -87 -4 -65 -22 -61 -26 7 -3 58
-15 74 -44 59 -14 -8 -18 -22 -18 -64 0 -30 -4 -55 -10 -55 -5 0 -10 24 -10
54 0 99 -56 101 -62 3 -4 -69 -22 -62 -26 9 -4 67 3 93 20 76 9 -9 15 -9 25 0z
m283 -12 c11 -11 20 -29 20 -40 0 -17 -7 -20 -50 -20 -50 0 -57 -4 -41 -28 9
-15 34 -17 71 -7 l25 7 -24 -21 c-29 -26 -52 -27 -82 -2 -48 38 -18 131 42
131 10 0 28 -9 39 -20z m80 -44 c0 -45 3 -55 20 -59 27 -7 38 11 42 68 4 73
23 56 23 -21 l0 -66 -40 -4 c-56 -5 -75 16 -75 81 0 28 3 55 6 58 15 15 24 -7
24 -57z m-1330 -243 c-1 -14 -30 -47 -36 -41 -10 11 7 48 22 48 8 0 14 -3 14
-7z m-2990 -40 c0 -29 3 -34 12 -25 33 33 88 -7 88 -63 0 -22 -8 -43 -20 -55
-22 -22 -55 -26 -65 -10 -5 8 -11 8 -19 1 -21 -18 -26 -1 -26 96 0 76 3 93 15
93 11 0 15 -11 15 -37z m300 -63 c0 -60 -4 -100 -10 -100 -6 0 -10 40 -10 100
0 60 4 100 10 100 6 0 10 -40 10 -100z m61 88 c1 -7 1 -23 1 -34 -1 -20 2 -21
29 -10 28 10 33 8 50 -13 15 -19 19 -37 17 -75 -4 -66 -22 -66 -26 1 -4 61
-24 86 -50 60 -9 -10 -17 -35 -18 -59 -3 -82 -19 -48 -22 47 -2 61 1 95 8 95
5 0 11 -6 11 -12z m633 -17 c10 -11 15 -24 11 -31 -5 -8 -13 -5 -26 9 -24 25
-71 27 -90 5 -23 -28 -17 -93 10 -115 30 -24 46 -24 71 1 28 28 25 40 -10 40
-16 0 -30 5 -30 10 0 6 18 10 40 10 38 0 40 -2 40 -29 0 -63 -89 -93 -135 -46
-42 41 -30 139 19 164 28 14 76 5 100 -18z m704 18 c-2 -6 -8 -10 -13 -10 -5
0 -11 4 -13 10 -2 6 4 11 13 11 9 0 15 -5 13 -11z m372 -89 c0 -89 -9 -124
-23 -87 -4 10 -7 10 -18 0 -19 -19 -37 -16 -64 12 -32 31 -32 66 -1 102 22 26
27 27 55 16 31 -11 31 -11 31 23 0 19 5 34 10 34 6 0 10 -40 10 -100z m530 84
c0 -17 -22 -14 -28 4 -2 7 3 12 12 12 9 0 16 -7 16 -16z m60 -84 c0 -60 -4
-100 -10 -100 -6 0 -10 40 -10 100 0 60 4 100 10 100 6 0 10 -40 10 -100z m68
88 c-6 -18 -28 -21 -28 -4 0 9 7 16 16 16 9 0 14 -5 12 -12z m462 -89 c0 -64
-4 -98 -10 -94 -6 3 -10 48 -10 101 0 56 4 94 10 94 6 0 10 -40 10 -101z
m-2462 79 c18 -18 14 -53 -8 -73 -11 -10 -20 -24 -20 -32 0 -7 -7 -13 -15 -13
-23 0 -18 21 11 51 29 30 27 59 -4 59 -11 0 -25 -7 -32 -15 -17 -20 -32 -8
-20 16 12 22 68 27 88 7z m-1058 -13 c0 -8 7 -15 15 -15 8 0 15 -4 15 -9 0 -5
-7 -11 -15 -15 -10 -4 -15 -20 -15 -51 0 -33 4 -45 15 -45 8 0 15 -7 15 -15 0
-16 -9 -19 -34 -9 -12 5 -16 20 -16 60 0 40 -4 55 -17 63 -17 9 -17 10 0 16 9
4 17 13 17 21 0 8 5 14 10 14 6 0 10 -7 10 -15z m1690 1 c0 -7 10 -17 23 -20
l22 -7 -21 -9 c-18 -7 -21 -15 -17 -51 2 -24 12 -48 20 -54 22 -17 -1 -29 -27
-15 -16 8 -20 21 -20 58 0 27 -6 54 -12 61 -10 11 -10 14 0 18 6 3 12 11 12
19 0 8 5 14 10 14 6 0 10 -6 10 -14z m1150 0 c0 -7 10 -17 23 -20 l22 -7 -22
-9 c-31 -13 -32 -71 -2 -99 24 -22 10 -37 -21 -21 -16 8 -20 21 -20 58 0 27
-6 54 -12 61 -10 11 -10 14 0 18 6 3 12 11 12 19 0 8 5 14 10 14 6 0 10 -6 10
-14z m-2760 -28 c0 -9 3 -9 12 0 16 16 38 15 38 -2 0 -8 -10 -16 -22 -18 -20
-3 -23 -10 -26 -60 -4 -85 -22 -71 -22 17 0 43 4 75 10 75 6 0 10 -5 10 -12z
m170 -3 c16 -20 18 -127 2 -133 -6 -2 -12 1 -12 7 0 7 -7 7 -24 0 -27 -13 -66
2 -66 26 0 31 14 45 51 51 40 7 52 27 23 38 -8 3 -25 1 -36 -5 -27 -14 -38 -1
-14 17 25 18 60 18 76 -1z m302 -2 c13 -12 18 -30 18 -69 0 -50 -12 -76 -25
-54 -4 6 -12 6 -24 -2 -15 -9 -24 -8 -45 5 -14 10 -26 24 -26 32 0 19 39 45
67 45 13 0 23 6 23 14 0 20 -20 25 -48 13 -29 -13 -42 1 -18 19 26 19 55 18
78 -3z m366 1 c17 -12 22 -25 22 -59 0 -67 -52 -96 -101 -56 -47 37 -18 131
40 131 9 0 27 -7 39 -16z m562 -4 c20 -20 27 -74 12 -96 -10 -15 -47 -34 -66
-34 -28 0 -56 38 -56 75 0 42 29 75 65 75 14 0 34 -9 45 -20z m136 6 c24 -18
10 -34 -16 -18 -21 13 -53 6 -47 -11 2 -6 19 -16 38 -22 28 -10 34 -17 34 -41
0 -40 -42 -55 -82 -29 -30 20 -17 33 16 16 22 -12 54 -4 48 12 -2 6 -19 16
-38 22 -40 14 -52 51 -23 72 23 17 45 16 70 -1z m225 4 c16 -9 19 -22 19 -75
0 -37 -4 -65 -10 -65 -5 0 -10 4 -10 10 0 6 -9 5 -24 -1 -35 -16 -68 4 -64 39
3 23 10 28 46 36 45 11 50 17 28 35 -11 9 -20 9 -35 2 -33 -18 -48 -12 -22 9
26 22 44 25 72 10z m135 -2 c4 -4 -5 -12 -19 -17 -23 -9 -26 -17 -29 -63 -2
-29 -7 -52 -13 -51 -10 3 -20 106 -12 127 5 12 61 15 73 4z m52 -69 c-2 -36
-7 -63 -13 -62 -11 3 -19 107 -10 131 12 33 26 -7 23 -69z m126 59 c9 -13 16
-43 16 -70 0 -45 -12 -69 -25 -48 -4 7 -13 7 -26 -1 -48 -25 -91 29 -49 63 12
10 33 18 46 18 14 0 24 6 24 14 0 20 -28 28 -52 15 -27 -14 -38 -1 -14 17 29
21 63 17 80 -8z m385 -4 c34 -43 28 -54 -30 -54 -43 0 -50 -3 -47 -17 3 -14
13 -18 46 -16 23 1 42 -2 42 -7 0 -12 -34 -30 -55 -30 -24 0 -65 46 -65 73 0
34 37 77 65 77 14 0 32 -11 44 -26z m141 -29 c0 -59 18 -82 52 -64 14 8 18 22
18 64 0 30 5 55 10 55 6 0 10 -32 10 -75 0 -43 -4 -75 -10 -75 -5 0 -10 5 -10
10 0 7 -7 7 -21 -1 -16 -8 -28 -8 -45 0 -22 10 -24 17 -24 76 0 37 4 65 10 65
6 0 10 -25 10 -55z m250 -21 c0 -56 -3 -75 -12 -71 -9 2 -12 25 -11 73 1 38 2
70 3 72 0 1 5 2 10 2 6 0 10 -32 10 -76z m128 -5 c-2 -36 -7 -63 -13 -62 -11
3 -19 107 -10 131 12 33 26 -7 23 -69z m142 70 c0 -5 -16 -31 -35 -56 -38 -49
-38 -54 -3 -58 36 -4 38 -4 38 -15 0 -13 -97 -13 -105 1 -4 6 12 33 35 60 34
40 38 49 23 51 -10 1 -25 2 -33 4 -8 1 -19 2 -23 3 -5 1 -5 6 -2 11 8 13 105
13 105 -1z m124 -5 c18 -18 23 -134 6 -134 -5 0 -10 4 -10 10 0 6 -9 5 -24 -1
-35 -16 -68 4 -64 39 3 23 10 28 46 36 45 11 50 17 28 35 -11 9 -20 9 -35 2
-33 -18 -48 -12 -22 9 28 24 54 25 75 4z m330 0 c11 -10 16 -34 16 -68 0 -57
-6 -71 -26 -55 -8 7 -14 7 -19 -1 -10 -17 -41 -12 -61 11 -24 27 -9 51 39 63
38 10 49 29 22 40 -9 3 -24 0 -35 -6 -26 -16 -38 -2 -14 17 25 19 59 19 78 -1z
m146 7 c0 -5 14 -4 30 2 26 10 33 9 49 -8 34 -35 31 -98 -4 -121 -21 -14 -31
-15 -50 -6 -24 11 -25 10 -25 -18 0 -17 -4 -30 -10 -30 -6 0 -10 38 -10 95 0
57 4 95 10 95 6 0 10 -4 10 -9z m221 -1 c16 -9 19 -22 19 -75 0 -37 -4 -65
-10 -65 -5 0 -10 4 -10 10 0 6 -9 5 -24 -1 -35 -16 -68 4 -64 39 3 23 10 28
46 36 45 11 50 17 28 35 -11 9 -20 9 -35 2 -33 -18 -48 -12 -22 9 26 22 44 25
72 10z m135 -3 c4 -3 -5 -11 -19 -16 -29 -11 -40 -37 -35 -83 2 -19 -2 -33 -9
-35 -10 -4 -13 15 -13 70 l0 74 34 -1 c19 -1 38 -5 42 -9z m116 -4 c13 -12 18
-30 18 -68 0 -57 -7 -70 -26 -54 -8 7 -14 7 -19 -1 -10 -17 -41 -12 -61 11
-24 27 -9 51 40 63 25 7 36 15 33 25 -3 16 -15 17 -54 5 -15 -4 -23 -2 -23 5
0 12 34 29 59 30 8 1 23 -6 33 -16z m-802 -53 c0 -5 -20 -10 -45 -10 -25 0
-45 5 -45 10 0 6 20 10 45 10 25 0 45 -4 45 -10z m-2442 -57 c-4 -22 -22 -20
-26 1 -2 10 3 16 13 16 10 0 15 -7 13 -17z m2592 -181 c0 -5 -9 -17 -20 -27
-20 -18 -25 -11 -14 19 6 17 34 23 34 8z m-3350 -18 c0 -9 -5 -14 -12 -12 -18
6 -21 28 -4 28 9 0 16 -7 16 -16z m62 -6 c0 -13 1 -29 1 -35 -1 -16 2 -16 26
-1 29 18 67 -3 76 -42 14 -65 -40 -123 -82 -89 -13 11 -17 11 -20 1 -3 -6 -9
-10 -14 -6 -13 7 -12 194 1 194 6 0 11 -10 12 -22z m163 13 c7 -12 -12 -24
-25 -16 -11 7 -4 25 10 25 5 0 11 -4 15 -9z m243 -3 c9 -9 12 -9 12 0 0 7 5
12 10 12 14 0 12 -27 -2 -33 -7 -2 -22 0 -33 6 -13 7 -20 6 -23 -2 -2 -6 -8
-9 -12 -6 -14 9 0 35 19 35 9 0 22 -5 29 -12z m1450 0 c-6 -18 -28 -21 -28 -4
0 9 7 16 16 16 9 0 14 -5 12 -12z m1012 -88 c0 -60 -4 -100 -10 -100 -5 0 -10
4 -10 10 0 6 -10 5 -25 -2 -67 -30 -112 87 -49 129 20 13 30 14 49 5 24 -11
25 -10 25 23 0 19 5 35 10 35 6 0 10 -40 10 -100z m292 85 c0 -5 -5 -11 -11
-13 -6 -2 -11 4 -11 13 0 9 5 15 11 13 6 -2 11 -8 11 -13z m998 -79 c0 -91
-11 -126 -30 -96 -5 9 -9 9 -14 1 -11 -17 -44 -13 -66 9 -12 12 -20 33 -20 55
0 22 8 43 20 55 23 23 33 24 61 10 17 -10 19 -7 19 25 0 24 4 35 15 35 12 0
15 -17 15 -94z m-1753 62 c27 -30 33 -61 21 -104 -11 -41 -58 -67 -112 -62
l-31 3 -3 93 -3 92 54 0 c43 0 58 -4 74 -22z m-477 -2 c0 -8 7 -17 16 -20 8
-3 12 -10 9 -16 -4 -6 -11 -8 -16 -5 -5 4 -9 -15 -9 -43 0 -37 4 -51 17 -56
11 -5 13 -10 6 -17 -8 -8 -17 -8 -32 0 -17 9 -21 21 -21 59 0 27 -6 54 -12 61
-10 11 -10 14 0 18 6 3 12 11 12 19 0 8 7 14 15 14 8 0 15 -6 15 -14z m-2202
-33 c11 -10 23 -28 27 -40 6 -22 3 -23 -44 -23 -38 0 -51 -4 -51 -15 0 -23 36
-38 61 -25 11 7 24 9 27 5 10 -9 -28 -35 -50 -35 -27 0 -68 45 -68 75 0 28 40
75 63 75 8 0 24 -8 35 -17z m79 -9 l17 -26 23 28 c29 37 41 24 15 -18 l-21
-32 21 -34 c25 -41 14 -57 -14 -19 l-21 29 -23 -29 c-29 -36 -43 -23 -15 15
26 37 26 40 1 72 -22 28 -25 40 -10 40 5 0 17 -12 27 -26z m133 -49 c0 -43 -4
-75 -10 -75 -6 0 -10 32 -10 75 0 43 4 75 10 75 6 0 10 -32 10 -75z m220 0 c0
-43 -4 -75 -10 -75 -6 0 -10 32 -10 75 0 43 4 75 10 75 6 0 10 -32 10 -75z
m142 53 c14 -14 17 -23 10 -26 -7 -2 -19 4 -28 12 -19 20 -29 20 -48 0 -23
-22 -20 -71 3 -84 21 -10 51 -4 51 11 0 5 5 9 10 9 18 0 10 -29 -11 -40 -16
-9 -18 -14 -9 -26 7 -7 10 -21 6 -29 -6 -17 -56 -21 -56 -5 0 6 7 10 15 10 8
0 15 5 15 10 0 6 -4 10 -10 10 -5 0 -10 5 -10 11 0 6 -10 19 -22 29 -31 25
-30 86 1 111 31 25 56 24 83 -3z m129 12 c16 -9 19 -22 19 -75 0 -37 -4 -65
-10 -65 -5 0 -10 4 -10 10 0 6 -9 5 -24 -1 -35 -16 -68 4 -64 39 3 23 10 28
46 36 45 11 50 17 28 35 -11 9 -20 9 -35 2 -33 -18 -48 -12 -22 9 26 22 44 25
72 10z m159 -8 c46 -37 18 -132 -40 -132 -34 0 -64 35 -64 75 0 63 57 95 104
57z m165 8 c11 18 44 11 60 -14 18 -27 17 -121 0 -121 -5 0 -11 25 -13 55 -3
58 -15 74 -43 59 -13 -6 -19 -24 -21 -62 -4 -69 -22 -63 -26 9 -4 70 3 91 22
75 10 -8 16 -9 21 -1z m215 -10 c41 -41 14 -130 -39 -130 -29 0 -60 31 -67 67
-5 26 -1 37 19 57 31 31 60 33 87 6z m140 10 c0 -6 9 -5 24 1 16 8 30 8 41 1
12 -6 27 -6 46 1 44 17 59 -3 59 -79 0 -36 -4 -64 -10 -64 -5 0 -10 24 -10 53
0 60 -13 81 -42 66 -14 -8 -18 -21 -18 -65 0 -76 -24 -69 -28 8 -5 92 -48 86
-54 -6 -2 -28 -8 -51 -15 -54 -10 -3 -13 16 -13 72 0 44 4 76 10 76 6 0 10 -4
10 -10z m309 -16 c34 -43 28 -54 -29 -54 -37 0 -50 -4 -50 -15 0 -22 30 -34
58 -24 14 5 28 7 31 3 9 -8 -29 -34 -51 -34 -27 0 -68 45 -68 73 0 34 37 77
65 77 14 0 32 -11 44 -26z m71 -22 c0 -62 18 -89 48 -73 19 10 22 20 22 67 0
38 4 54 12 52 7 -3 11 -28 10 -72 -1 -65 -10 -95 -19 -69 -3 9 -9 10 -23 1
-14 -9 -25 -9 -44 0 -24 11 -26 16 -26 77 0 37 4 65 10 65 6 0 10 -22 10 -48z
m286 34 c24 -18 12 -31 -15 -16 -24 12 -41 6 -41 -15 0 -7 14 -16 30 -20 17
-4 35 -16 41 -28 10 -17 8 -24 -11 -39 -27 -22 -50 -23 -76 -4 -24 18 -13 31
14 17 24 -13 52 -5 52 14 0 7 -12 16 -27 20 -36 9 -53 23 -53 46 0 35 52 50
86 25z m79 -62 c0 -45 -4 -69 -12 -71 -10 -4 -13 14 -13 65 0 65 5 86 19 78 3
-2 6 -35 6 -72z m225 56 c11 -11 20 -29 20 -40 0 -17 -7 -20 -50 -20 -27 0
-50 -4 -50 -9 0 -19 33 -42 49 -35 9 3 25 8 36 11 18 4 18 3 -4 -16 -29 -26
-52 -27 -82 -2 -48 38 -18 131 42 131 10 0 28 -9 39 -20z m485 -5 c40 -39 33
-55 -25 -55 -37 0 -50 -4 -50 -15 0 -22 30 -34 57 -22 30 13 44 0 19 -19 -60
-43 -126 23 -96 96 11 27 25 36 58 39 7 0 24 -10 37 -24z m141 11 c24 -18 13
-31 -14 -17 -23 12 -55 4 -49 -12 2 -6 18 -16 36 -22 46 -15 57 -39 31 -65
-11 -11 -29 -20 -39 -20 -24 0 -74 39 -50 40 8 0 20 -5 26 -11 12 -12 53 -3
53 12 0 6 -18 18 -40 26 -31 12 -40 21 -40 39 0 39 49 56 86 30z m301 -1 c11
-8 23 -26 25 -40 5 -24 3 -25 -43 -25 -36 0 -49 -4 -49 -15 0 -21 32 -35 53
-23 10 5 22 8 27 6 18 -6 -6 -28 -37 -34 -63 -12 -99 74 -53 124 24 26 47 28
77 7z m151 -77 c-3 -88 -4 -93 -25 -96 -26 -4 -31 13 -8 22 12 4 15 24 15 86
0 48 4 80 10 80 7 0 10 -33 8 -92z m134 75 c13 -12 18 -30 18 -69 0 -50 -12
-76 -25 -54 -4 6 -13 5 -25 -3 -22 -13 -46 -3 -64 27 -9 14 -6 21 13 37 13 10
34 19 47 19 14 0 24 6 24 14 0 20 -20 25 -48 13 -29 -13 -42 1 -18 19 26 19
55 18 78 -3z m290 0 c13 -12 18 -30 18 -68 0 -57 -7 -70 -26 -54 -8 7 -14 7
-19 -1 -10 -17 -41 -12 -61 11 -24 27 -9 51 39 63 37 10 49 29 24 39 -8 3 -20
1 -28 -4 -19 -12 -39 -11 -39 1 0 11 35 28 59 29 8 1 23 -6 33 -16z m129 7
c13 -7 19 -7 19 0 0 5 5 10 10 10 6 0 10 -35 10 -84 0 -93 -9 -110 -61 -108
-34 1 -62 19 -53 34 4 6 10 6 17 -1 17 -17 64 -13 71 5 11 29 6 32 -25 21 -28
-11 -33 -10 -55 16 -29 34 -30 56 -3 91 22 28 39 32 70 16z m99 -2 c0 -9 3 -9
12 0 17 17 38 15 38 -3 0 -8 -9 -15 -19 -15 -23 0 -31 -19 -31 -76 0 -24 -4
-44 -10 -44 -6 0 -10 32 -10 75 0 43 4 75 10 75 6 0 10 -5 10 -12z m170 -8
c15 -15 20 -33 20 -69 0 -48 -12 -72 -25 -51 -5 8 -11 7 -21 -1 -19 -16 -61
-3 -69 22 -9 27 10 47 51 55 19 3 34 12 34 19 0 18 -20 24 -49 13 -31 -11 -41
0 -17 18 27 19 52 18 76 -6z m310 0 c11 -11 20 -29 20 -40 0 -17 -7 -20 -50
-20 -27 0 -50 -4 -50 -9 0 -19 33 -42 49 -35 9 3 25 8 36 11 18 4 18 3 -4 -16
-47 -42 -103 -12 -103 54 0 65 60 97 102 55z m151 1 c30 -24 19 -38 -14 -17
-30 20 -53 12 -61 -20 -13 -49 26 -84 63 -57 35 24 39 4 6 -23 -16 -13 -24
-24 -17 -24 24 0 9 -45 -15 -48 -13 -2 -23 1 -23 7 0 6 8 11 18 11 15 1 15 2
-2 15 -11 8 -16 15 -11 15 4 0 -4 11 -19 25 -33 30 -36 85 -6 115 25 25 51 25
81 1z m149 -1 c43 -43 13 -130 -44 -130 -30 0 -66 43 -66 77 0 29 42 73 70 73
11 0 29 -9 40 -20z m-2425 -108 c0 -18 -20 -15 -23 4 -3 10 1 15 10 12 7 -3
13 -10 13 -16z m1205 -1 c0 -18 -20 -61 -28 -61 -4 0 -6 16 -4 35 3 21 10 35
18 35 8 0 14 -4 14 -9z m-3402 -278 c-4 -127 -22 -125 -26 2 -2 81 0 95 13 95
13 0 15 -14 13 -97z m882 3 c0 -87 -9 -122 -25 -97 -4 7 -14 6 -30 -1 -19 -9
-29 -7 -50 6 -32 21 -35 86 -5 116 23 23 33 24 61 10 17 -10 19 -7 19 25 0 24
4 35 15 35 12 0 15 -17 15 -94z m62 79 c0 -5 -5 -11 -11 -13 -6 -2 -11 4 -11
13 0 9 5 15 11 13 6 -2 11 -8 11 -13z m666 3 c-6 -18 -28 -21 -28 -4 0 9 7 16
16 16 9 0 14 -5 12 -12z m53 0 c1 -7 0 -23 -1 -35 -1 -20 1 -21 29 -10 27 10
33 8 56 -13 57 -54 3 -156 -64 -120 -14 7 -21 7 -21 0 0 -5 -4 -10 -10 -10 -6
0 -10 40 -10 100 0 60 4 100 10 100 6 0 10 -6 11 -12z m169 -4 c0 -17 -22 -14
-28 4 -2 7 3 12 12 12 9 0 16 -7 16 -16z m60 -84 c0 -60 -4 -100 -10 -100 -6
0 -10 40 -10 100 0 60 4 100 10 100 6 0 10 -40 10 -100z m68 88 c-6 -18 -28
-21 -28 -4 0 9 7 16 16 16 9 0 14 -5 12 -12z m152 -88 c0 -60 -4 -100 -10
-100 -5 0 -10 4 -10 10 0 6 -10 5 -25 -2 -19 -9 -29 -8 -50 6 -21 14 -25 24
-25 61 0 37 4 47 25 61 21 14 31 15 50 6 24 -11 25 -10 25 23 0 19 5 35 10 35
6 0 10 -40 10 -100z m310 7 c0 -97 -5 -114 -26 -96 -8 7 -14 7 -19 -1 -10 -16
-43 -12 -65 10 -12 12 -20 33 -20 55 0 56 55 96 88 63 9 -9 12 -4 12 25 0 26
4 37 15 37 12 0 15 -17 15 -93z m220 23 c0 -47 -3 -60 -15 -60 -12 0 -15 13
-15 60 0 47 3 60 15 60 12 0 15 -13 15 -60z m-2950 10 c0 -6 9 -5 24 1 67 31
113 -75 55 -127 -17 -15 -25 -16 -50 -7 -28 11 -29 10 -29 -18 0 -16 -4 -29
-10 -29 -6 0 -10 38 -10 95 0 57 4 95 10 95 6 0 10 -4 10 -10z m228 -6 c12 -8
22 -26 22 -40 0 -22 -4 -24 -45 -24 -48 0 -59 -16 -30 -40 13 -11 20 -11 40 0
31 17 45 5 19 -15 -46 -35 -104 -2 -104 60 0 38 28 75 58 75 10 0 28 -7 40
-16z m203 6 c16 -9 19 -22 19 -75 0 -37 -4 -65 -10 -65 -5 0 -10 4 -10 10 0 6
-9 5 -24 -1 -35 -16 -68 4 -64 39 3 23 10 28 46 36 45 11 50 17 28 35 -11 9
-20 9 -35 2 -33 -18 -48 -12 -22 9 26 22 44 25 72 10z m215 -4 c24 -18 13 -31
-14 -17 -23 12 -55 4 -49 -12 2 -6 19 -16 38 -22 28 -10 34 -17 34 -41 0 -40
-42 -55 -82 -29 -17 11 -23 20 -15 23 7 2 19 -1 27 -8 15 -13 55 -5 55 11 0 6
-18 18 -40 26 -31 12 -40 21 -40 39 0 39 49 56 86 30z m74 -39 c0 -48 12 -77
31 -77 22 0 39 35 39 81 0 27 5 49 10 49 6 0 10 -32 10 -75 0 -43 -4 -75 -10
-75 -5 0 -10 5 -10 10 0 7 -7 7 -21 -1 -16 -8 -28 -8 -45 0 -22 10 -24 17 -24
76 0 37 4 65 10 65 6 0 10 -24 10 -53z m224 31 c9 -13 16 -43 16 -70 0 -46
-12 -69 -25 -48 -5 8 -11 7 -21 -1 -19 -16 -61 -3 -69 22 -9 27 10 47 51 55
35 6 45 27 18 38 -8 3 -25 1 -36 -5 -27 -14 -38 -1 -14 17 29 21 63 17 80 -8z
m306 -53 c0 -43 -4 -75 -10 -75 -6 0 -10 32 -10 75 0 43 4 75 10 75 6 0 10
-32 10 -75z m121 55 c18 -14 20 -19 9 -20 -9 0 -21 5 -26 10 -11 11 -44 3 -44
-10 0 -5 17 -17 38 -27 42 -20 53 -50 26 -70 -23 -17 -55 -17 -80 1 -26 20
-10 32 21 16 22 -12 28 -12 42 3 14 14 14 17 2 21 -59 21 -70 28 -75 41 -8 19
23 55 46 55 10 0 28 -9 41 -20z m99 10 c39 25 80 -11 80 -70 0 -31 -5 -43 -25
-56 -21 -14 -31 -15 -50 -6 -24 11 -25 10 -25 -18 0 -20 -5 -30 -15 -30 -12 0
-15 16 -15 88 0 91 5 109 24 92 7 -5 17 -5 26 0z m211 -9 c47 -37 18 -131 -40
-131 -37 0 -61 29 -61 75 0 67 52 96 101 56z m165 -6 c17 -22 16 -120 -1 -120
-5 0 -11 23 -13 52 -3 60 -19 80 -47 59 -14 -10 -19 -27 -20 -62 0 -29 -5 -49
-12 -51 -10 -4 -13 14 -13 65 0 38 2 71 4 73 3 3 24 4 46 4 30 0 46 -6 56 -20z
m72 -56 c-2 -36 -7 -63 -13 -62 -11 3 -19 107 -10 131 12 33 26 -7 23 -69z
m222 0 c0 -52 -3 -70 -12 -67 -14 5 -24 109 -14 135 13 32 26 -3 26 -68z m120
6 c0 -43 -4 -75 -10 -75 -6 0 -10 32 -10 75 0 43 4 75 10 75 6 0 10 -32 10
-75z m292 58 c13 -12 18 -30 18 -68 0 -57 -7 -70 -26 -54 -8 7 -14 7 -19 -1
-10 -17 -41 -12 -61 11 -24 27 -9 51 39 63 36 9 49 30 25 39 -7 2 -23 -1 -36
-6 -29 -13 -42 1 -18 19 26 19 55 18 78 -3z m308 -3 c11 -11 20 -29 20 -40 0
-17 -7 -20 -50 -20 -54 0 -61 -7 -31 -34 15 -14 24 -15 40 -7 33 18 48 12 22
-9 -30 -25 -56 -25 -81 0 -41 41 -14 130 40 130 11 0 29 -9 40 -20z m2080 -57
c0 -16 -92 -123 -105 -123 -7 0 -20 11 -29 25 -18 28 -11 33 14 10 16 -14 21
-11 61 39 41 52 59 66 59 49z m60 -2 c0 -4 -14 -26 -31 -47 -17 -22 -37 -47
-44 -58 -8 -10 -20 -16 -28 -13 -10 4 2 23 42 66 59 64 61 66 61 52z m-682
-63 l-2 -63 -3 53 c-4 45 -7 53 -21 48 -13 -5 -13 -3 2 9 11 8 21 15 23 15 2
0 2 -28 1 -62z m120 50 c14 -18 17 -48 9 -80 -6 -21 -14 -28 -32 -28 -29 0
-37 11 -38 55 -1 52 35 84 61 53z m176 -20 c19 -55 -22 -109 -59 -78 -18 15
-20 63 -4 91 15 29 51 21 63 -13z m86 25 c-14 -3 -28 -10 -32 -17 -5 -7 -8 -5
-8 7 0 13 8 17 33 16 27 -2 28 -2 7 -6z m-1750 -43 c0 -11 -4 -20 -9 -20 -14
0 -23 18 -16 30 10 17 25 11 25 -10z m1775 -20 c13 -42 -38 -67 -66 -33 -13
15 -12 15 7 3 26 -16 57 -6 52 17 -3 13 -13 18 -36 17 -17 -1 -29 2 -26 7 3 5
18 9 34 9 20 0 31 -6 35 -20z m-2215 -590 c-9 -17 -30 -28 -30 -16 0 16 15 36
26 36 12 0 12 -4 4 -20z m-3773 -1 c17 -6 23 -16 23 -38 0 -16 -5 -33 -11 -37
-8 -5 -6 -10 5 -16 19 -11 21 -59 4 -76 -7 -7 -36 -12 -65 -12 l-53 0 0 94 0
94 37 0 c20 0 47 -4 60 -9z m633 -82 l0 -93 -49 -2 c-57 -2 -73 11 -73 63 0
59 55 98 90 63 9 -9 12 -4 12 25 0 20 5 37 10 37 6 0 10 -38 10 -93z m70 83
c0 -5 -7 -10 -15 -10 -8 0 -15 5 -15 10 0 6 7 10 15 10 8 0 15 -4 15 -10z
m388 -25 c31 -37 30 -98 -3 -130 -19 -20 -34 -25 -75 -25 l-50 0 0 96 0 97 53
-6 c39 -5 58 -13 75 -32z m80 24 c-2 -6 -8 -10 -13 -10 -5 0 -11 4 -13 10 -2
6 4 11 13 11 9 0 15 -5 13 -11z m942 -85 c0 -83 -2 -95 -16 -90 -8 3 -23 2
-33 -3 -25 -14 -62 8 -74 42 -19 59 37 118 85 88 16 -10 18 -8 18 24 0 19 5
35 10 35 6 0 10 -39 10 -96z m290 59 c0 -29 3 -34 12 -25 36 36 88 -2 88 -63
0 -45 -16 -67 -47 -65 -10 0 -30 1 -45 1 l-28 1 0 94 c0 56 4 94 10 94 6 0 10
-17 10 -37z m1160 0 c0 -29 3 -34 12 -25 34 34 88 -4 88 -64 0 -44 -26 -64
-83 -62 l-47 1 0 93 c0 77 3 94 15 94 11 0 15 -11 15 -37z m660 0 c0 -29 3
-34 12 -25 7 7 21 12 33 12 34 0 45 -20 45 -82 0 -72 -18 -77 -22 -7 -6 95
-68 93 -68 -2 0 -65 -20 -64 -21 1 -2 128 -1 140 11 140 6 0 10 -17 10 -37z
m300 27 c0 -5 -4 -10 -10 -10 -5 0 -10 5 -10 10 0 6 5 10 10 10 6 0 10 -4 10
-10z m-2740 -25 c0 -8 7 -15 15 -15 8 0 15 -4 15 -10 0 -5 -7 -10 -15 -10 -23
0 -21 -88 3 -106 15 -12 15 -13 -9 -14 -31 0 -39 15 -39 75 0 25 -5 46 -12 49
-10 5 -10 7 0 12 6 3 12 12 12 20 0 8 7 14 15 14 8 0 15 -7 15 -15z m-1618
-32 c53 -61 9 -148 -62 -121 -13 5 -28 15 -32 21 -14 21 -8 80 9 99 21 23 65
23 85 1z m78 7 c0 -6 8 -5 20 2 16 10 24 10 41 0 16 -10 24 -10 35 -1 20 17
61 3 68 -23 12 -46 7 -108 -9 -108 -12 0 -15 13 -15 55 0 42 -4 57 -16 62 -25
9 -44 -24 -44 -74 0 -24 -4 -43 -10 -43 -5 0 -10 25 -10 55 0 40 -4 57 -15 61
-27 11 -45 -16 -45 -67 0 -38 -4 -49 -16 -49 -13 0 -15 11 -13 63 1 34 4 65 6
70 6 11 23 9 23 -3z m460 -60 c0 -40 -4 -70 -10 -70 -6 0 -10 30 -10 70 0 40
4 70 10 70 6 0 10 -30 10 -70z m134 48 c9 -13 16 -43 16 -69 l0 -46 -49 -1
c-54 -2 -77 14 -66 48 4 14 18 22 46 26 24 4 39 12 39 21 0 20 -30 28 -52 14
-25 -15 -35 -7 -18 14 19 23 66 19 84 -7z m336 -48 c0 -56 -3 -70 -15 -70 -12
0 -15 14 -15 70 0 56 3 70 15 70 12 0 15 -14 15 -70z m140 50 c42 -42 12 -122
-45 -122 -57 0 -87 80 -45 122 11 11 31 20 45 20 14 0 34 -9 45 -20z m131 10
c13 -7 19 -7 19 0 0 5 5 10 10 10 6 0 10 -32 10 -77 0 -57 -4 -81 -17 -95 -20
-22 -76 -24 -93 -3 -16 19 -5 34 12 17 19 -19 56 -14 68 9 15 26 7 34 -19 19
-25 -13 -55 0 -71 30 -33 61 21 121 81 90z m179 -10 c62 -62 -26 -163 -90
-105 -43 39 -12 125 45 125 14 0 34 -9 45 -20z m242 -37 c3 -52 5 -58 27 -61
31 -5 41 12 41 71 0 26 5 47 10 47 6 0 10 -30 10 -71 0 -52 -3 -70 -12 -66 -7
2 -22 1 -33 -3 -11 -4 -30 -4 -42 1 -21 7 -23 15 -23 74 0 80 18 87 22 8z
m388 37 c26 -26 26 -81 0 -105 -27 -24 -70 -22 -92 5 -38 47 -9 120 47 120 14
0 34 -9 45 -20z m380 0 c11 -11 20 -29 20 -40 0 -17 -7 -20 -50 -20 -51 0 -60
-6 -38 -28 15 -15 50 -16 65 -1 7 7 13 7 17 1 9 -15 -19 -33 -55 -34 -39 -1
-59 22 -59 71 0 64 58 93 100 51z m80 10 c0 -6 8 -5 20 2 16 10 24 10 41 0 16
-10 24 -10 35 -1 20 17 61 3 68 -23 12 -46 7 -108 -9 -108 -12 0 -15 13 -15
55 0 40 -4 57 -15 61 -27 11 -45 -16 -45 -67 0 -27 -4 -49 -10 -49 -5 0 -10
22 -10 49 0 31 -5 53 -15 61 -26 21 -45 -5 -45 -61 0 -37 -4 -49 -15 -49 -12
0 -15 14 -15 63 0 35 3 67 7 70 10 10 23 8 23 -3z m386 -15 c19 -25 18 -65 -2
-94 -14 -19 -23 -22 -53 -18 -36 4 -37 4 -33 -24 3 -22 0 -29 -12 -29 -14 0
-16 14 -16 93 l0 94 51 -1 c38 -1 54 -6 65 -21z m142 13 c7 -7 12 -37 12 -68
l0 -57 -37 -1 c-55 -2 -73 6 -73 33 0 27 26 45 64 45 17 0 26 6 26 15 0 22
-29 30 -52 16 -25 -15 -35 -7 -18 14 15 18 61 20 78 3z m122 3 c0 -3 -10 -11
-22 -16 -19 -8 -24 -19 -26 -62 -2 -39 -7 -53 -18 -53 -12 0 -15 12 -13 63 1
34 3 64 5 67 4 8 74 9 74 1z m118 -3 c7 -7 12 -37 12 -68 l0 -57 -37 -1 c-55
-2 -73 6 -73 33 0 27 26 45 64 45 17 0 26 6 26 15 0 22 -29 30 -52 16 -25 -15
-35 -7 -18 14 15 18 61 20 78 3z m298 4 c13 -8 34 -46 34 -61 0 -6 -21 -11
-50 -11 -38 0 -50 -4 -50 -15 0 -22 28 -30 61 -18 31 12 38 3 15 -16 -8 -7
-30 -11 -48 -9 -55 5 -75 79 -32 122 16 17 51 21 70 8z m84 -4 c0 -9 3 -9 12
0 18 18 56 14 68 -7 13 -25 13 -121 0 -121 -5 0 -10 19 -10 43 0 97 -62 104
-68 8 -2 -36 -7 -51 -18 -51 -11 0 -14 15 -14 63 0 35 3 67 7 70 10 11 23 8
23 -5z m216 -2 c25 -19 12 -31 -16 -16 -24 13 -54 6 -48 -12 2 -6 20 -17 39
-23 36 -13 48 -37 29 -60 -16 -20 -74 -19 -90 0 -12 14 -8 15 27 9 56 -9 66
12 16 32 -54 23 -64 41 -37 68 19 20 54 20 80 2z m374 -6 c11 -11 20 -29 20
-40 0 -17 -7 -20 -50 -20 -51 0 -61 -8 -35 -30 10 -8 28 -10 52 -5 33 6 35 5
24 -9 -8 -10 -29 -16 -52 -16 -44 0 -59 18 -59 71 0 62 58 91 100 49z m70 -50
c0 -40 -4 -70 -10 -70 -6 0 -10 30 -10 70 0 40 4 70 10 70 6 0 10 -30 10 -70z
m147 40 c18 -36 17 -110 -2 -110 -10 0 -15 15 -17 57 -2 42 -7 59 -18 60 -28
5 -43 -15 -48 -66 -7 -74 -22 -62 -22 17 l0 69 47 -1 c40 -1 49 -5 60 -26z
m-3462 -300 c-5 -8 -11 -8 -17 -2 -6 6 -7 16 -3 22 5 8 11 8 17 2 6 -6 7 -16
3 -22z m510 0 c-5 -8 -11 -8 -17 -2 -6 6 -7 16 -3 22 5 8 11 8 17 2 6 -6 7
-16 3 -22z m1435 21 c0 -11 -29 -35 -35 -29 -10 9 7 38 21 38 8 0 14 -4 14 -9z
m-960 -97 c0 -83 -2 -95 -16 -90 -8 3 -23 2 -32 -3 -56 -29 -101 70 -55 122
19 20 54 22 71 5 9 -9 12 -4 12 25 0 20 5 37 10 37 6 0 10 -39 10 -96z m430
86 c0 -5 -7 -10 -16 -10 -8 0 -12 5 -9 10 3 6 10 10 16 10 5 0 9 -4 9 -10z
m1220 -85 c0 -57 -4 -95 -10 -95 -6 0 -10 38 -10 95 0 57 4 95 10 95 6 0 10
-38 10 -95z m596 -3 l2 -91 -32 0 c-17 -1 -40 -1 -51 -2 -27 0 -45 28 -45 70
0 57 54 93 88 59 9 -9 12 -4 12 26 0 26 4 36 13 33 8 -2 12 -32 13 -95z
m-3462 64 c-3 -8 4 -16 18 -20 17 -6 19 -9 8 -13 -8 -3 -18 -10 -21 -15 -11
-17 2 -81 19 -95 15 -12 14 -13 -13 -11 -29 3 -30 5 -33 58 -2 30 -9 58 -15
63 -9 7 -9 10 1 14 6 2 12 11 12 19 0 8 7 14 15 14 8 0 12 -6 9 -14z m816 -1
c0 -8 7 -15 15 -15 8 0 15 -4 15 -10 0 -5 -7 -10 -15 -10 -11 0 -15 -12 -15
-50 0 -38 4 -50 15 -50 8 0 15 -4 15 -10 0 -12 -37 -13 -44 -1 -3 5 -7 30 -8
56 -1 28 -7 49 -15 52 -18 7 -17 23 2 23 8 0 14 3 14 8 -3 14 1 22 11 22 6 0
10 -7 10 -15z m900 0 c0 -8 7 -15 15 -15 8 0 15 -4 15 -10 0 -5 -7 -10 -15
-10 -11 0 -15 -12 -15 -45 0 -31 5 -47 15 -51 23 -9 18 -26 -7 -22 -20 3 -23
10 -26 58 -2 30 -9 58 -15 63 -9 7 -9 10 1 14 6 2 12 11 12 19 0 8 5 14 10 14
6 0 10 -7 10 -15z m310 0 c0 -8 7 -15 15 -15 8 0 15 -4 15 -10 0 -5 -7 -10
-15 -10 -11 0 -15 -12 -15 -45 0 -31 5 -47 15 -51 23 -9 18 -26 -7 -22 -20 3
-23 10 -26 58 -2 30 -9 58 -15 63 -9 7 -9 10 1 14 6 2 12 11 12 19 0 8 5 14
10 14 6 0 10 -7 10 -15z m-3005 -35 c23 -26 11 -39 -14 -16 -11 10 -28 16 -38
14 -23 -4 -41 -53 -27 -76 12 -19 64 -29 64 -13 0 6 7 11 15 11 21 0 8 -26
-21 -39 -19 -8 -31 -8 -47 0 -30 16 -37 28 -37 71 0 61 66 91 105 48z m135 5
c7 -8 13 -39 14 -69 l2 -53 -47 -2 c-52 -1 -75 16 -64 49 4 14 18 22 46 26 24
4 39 12 39 21 0 20 -30 28 -52 14 -27 -16 -38 -3 -14 15 26 18 60 18 76 -1z
m70 3 c0 -9 3 -9 12 0 14 14 38 16 38 4 0 -5 -11 -14 -25 -20 -22 -10 -25 -18
-25 -62 0 -27 -4 -50 -10 -50 -6 0 -10 30 -10 70 0 40 4 70 10 70 6 0 10 -5
10 -12z m169 -2 c6 -7 12 -38 14 -68 l3 -55 -47 -2 c-52 -1 -75 16 -64 49 4
14 18 22 46 26 24 4 39 12 39 21 0 20 -30 28 -52 14 -27 -16 -38 -3 -14 15 25
18 60 18 75 0z m209 2 c9 -9 12 -9 12 0 0 7 5 12 10 12 15 0 13 -163 -2 -178
-23 -23 -98 -12 -98 14 0 17 12 18 27 3 18 -18 58 -7 61 19 3 20 1 21 -21 13
-40 -15 -71 7 -75 53 -5 60 49 101 86 64z m174 -5 c18 -17 25 -77 10 -100 -12
-19 -55 -31 -80 -22 -12 5 -27 20 -32 35 -27 70 49 135 102 87z m138 2 c16
-19 5 -34 -12 -17 -17 17 -48 15 -48 -2 0 -8 17 -23 38 -33 43 -21 49 -51 13
-69 -17 -9 -32 -9 -52 -2 -43 15 -35 29 11 22 31 -5 40 -3 40 8 0 8 -18 22
-40 31 -28 11 -40 21 -40 36 0 37 65 56 90 26z m233 3 c9 -7 19 -25 23 -40 6
-28 6 -28 -45 -28 -39 0 -51 -4 -51 -15 0 -22 28 -30 62 -17 25 9 29 8 26 -5
-4 -21 -46 -33 -76 -22 -26 10 -45 53 -36 83 15 51 61 71 97 44z m85 -61 c2
-55 0 -67 -13 -67 -12 0 -15 14 -15 71 0 52 3 70 13 67 7 -3 13 -29 15 -71z
m132 63 c0 -6 8 -5 20 2 16 10 24 10 41 0 15 -10 24 -11 32 -3 18 18 45 13 61
-11 21 -30 22 -118 1 -118 -12 0 -15 13 -15 55 0 40 -4 57 -15 61 -27 11 -45
-16 -45 -67 0 -27 -4 -49 -10 -49 -5 0 -10 22 -10 49 0 31 -5 53 -15 61 -26
21 -45 -5 -45 -61 0 -37 -4 -49 -15 -49 -12 0 -15 14 -15 63 0 35 3 67 7 70
10 10 23 8 23 -3z m220 -37 c0 -59 10 -76 41 -71 22 3 24 8 27 61 4 82 26 71
30 -15 l3 -65 -47 -1 c-26 -1 -54 4 -61 10 -15 12 -18 128 -3 128 6 0 10 -21
10 -47z m160 -29 c0 -50 -3 -64 -15 -64 -12 0 -15 14 -15 63 0 35 3 67 6 70
16 15 24 -9 24 -69z m232 59 c21 -19 24 -80 5 -107 -16 -22 -73 -24 -95 -3
-22 22 -21 81 3 107 22 24 62 26 87 3z m388 -3 c43 -43 14 -120 -45 -120 -24
0 -39 7 -49 22 -34 49 -5 118 49 118 14 0 34 -9 45 -20z m206 6 c24 -18 13
-31 -14 -15 -22 14 -56 5 -50 -13 2 -6 20 -17 39 -23 43 -15 51 -47 16 -70
-18 -12 -31 -13 -50 -6 -43 17 -43 32 1 25 56 -9 65 12 13 33 -47 18 -58 39
-35 64 20 23 53 24 80 5z m74 -56 c0 -40 -4 -70 -10 -70 -6 0 -10 30 -10 70 0
40 4 70 10 70 6 0 10 -30 10 -70z m224 54 c9 -8 16 -19 16 -24 0 -5 3 -15 6
-24 5 -13 -2 -16 -45 -16 -39 0 -51 -4 -51 -15 0 -22 28 -30 61 -18 31 12 38
3 14 -17 -46 -38 -111 7 -101 70 9 55 64 80 100 44z m307 6 c16 -9 19 -22 19
-71 0 -52 -2 -60 -16 -55 -8 3 -23 2 -32 -3 -10 -5 -27 -5 -40 0 -18 7 -23 15
-20 36 3 27 8 30 77 50 12 3 12 7 -2 20 -14 15 -20 15 -42 3 -30 -16 -42 -8
-20 14 19 18 48 21 76 6z m199 1 c0 -4 -11 -13 -25 -19 -22 -10 -25 -18 -25
-62 0 -27 -4 -50 -10 -50 -6 0 -10 29 -10 68 l0 68 35 1 c19 1 35 -2 35 -6z
m124 -13 c30 -43 21 -58 -34 -58 -51 0 -61 -8 -35 -30 10 -8 28 -10 52 -5 33
6 35 5 24 -9 -20 -24 -88 -21 -101 3 -15 30 -12 82 7 103 23 25 68 23 87 -4z
m141 6 c22 -22 10 -30 -20 -14 -18 10 -28 11 -36 3 -16 -16 -4 -30 31 -38 29
-6 47 -35 35 -56 -12 -18 -49 -27 -77 -17 -41 15 -34 29 11 22 54 -9 63 12 14
32 -54 23 -64 41 -37 68 20 21 58 20 79 0z m145 -4 c26 -26 26 -81 0 -105 -27
-24 -70 -22 -92 5 -38 47 -9 120 47 120 14 0 34 -9 45 -20z m150 -38 c8 -29
17 -52 20 -52 4 0 12 22 19 50 12 48 26 68 38 57 10 -10 -43 -132 -58 -135
-10 -2 -21 15 -34 55 -28 83 -28 86 -13 81 7 -3 20 -28 28 -56z m193 46 c9 -7
19 -25 23 -40 6 -28 6 -28 -45 -28 -28 0 -51 -2 -51 -4 0 -33 34 -45 71 -26
15 9 19 7 19 -5 0 -40 -86 -36 -108 6 -33 63 37 138 91 97z m87 0 c0 -9 3 -9
12 0 17 17 44 15 62 -4 21 -20 23 -124 3 -124 -10 0 -14 16 -16 52 -2 60 -10
73 -40 63 -18 -5 -21 -14 -21 -61 0 -41 -4 -54 -15 -54 -12 0 -15 14 -15 70 0
56 3 70 15 70 8 0 15 -5 15 -12z m384 -7 c34 -38 18 -116 -24 -121 -57 -8 -84
16 -82 73 2 60 69 89 106 48z m-4276 -302 c-2 -6 -8 -10 -13 -10 -5 0 -11 4
-13 10 -2 6 4 11 13 11 9 0 15 -5 13 -11z m830 0 c-2 -6 -8 -10 -13 -10 -5 0
-11 4 -13 10 -2 6 4 11 13 11 9 0 15 -5 13 -11z m730 0 c-2 -6 -8 -10 -13 -10
-5 0 -11 4 -13 10 -2 6 4 11 13 11 9 0 15 -5 13 -11z m212 -26 c0 -29 3 -34
12 -25 7 7 21 12 33 12 12 0 26 -5 33 -12 14 -14 16 -128 2 -128 -5 0 -10 20
-10 44 0 57 -8 76 -31 76 -24 0 -39 -30 -39 -79 0 -23 -4 -41 -10 -41 -6 0
-10 38 -10 95 0 57 4 95 10 95 6 0 10 -17 10 -37z m2028 26 c-2 -6 -8 -10 -13
-10 -5 0 -11 4 -13 10 -2 6 4 11 13 11 9 0 15 -5 13 -11z m-3728 -24 c0 -8 7
-15 15 -15 8 0 15 -4 15 -10 0 -5 -7 -10 -15 -10 -11 0 -15 -12 -15 -50 0 -38
4 -50 15 -50 8 0 15 -4 15 -10 0 -16 -47 -11 -54 6 -3 9 -6 35 -6 59 0 25 -5
46 -12 49 -10 5 -10 7 0 12 6 3 12 12 12 20 0 8 7 14 15 14 8 0 15 -7 15 -15z
m-449 -27 c0 -10 2 -10 6 0 5 14 49 16 57 3 4 -5 18 -5 35 2 45 17 61 -3 61
-74 0 -33 -4 -59 -10 -59 -5 0 -10 25 -10 55 0 40 -4 57 -15 61 -27 11 -45
-16 -45 -67 0 -27 -4 -49 -10 -49 -5 0 -10 22 -10 49 0 31 -5 53 -15 61 -26
21 -45 -5 -45 -61 0 -37 -4 -49 -15 -49 -12 0 -15 14 -15 70 0 56 3 70 15 70
8 0 15 -6 16 -12z m219 -35 c0 -59 10 -76 41 -71 22 3 24 9 27 61 4 81 22 71
22 -12 0 -59 -3 -70 -17 -71 -57 -3 -77 -1 -84 12 -12 18 -11 128 1 128 6 0
10 -21 10 -47z m158 -26 c2 -55 0 -67 -13 -67 -12 0 -15 14 -15 71 0 52 3 70
13 67 7 -3 13 -29 15 -71z m232 46 c39 -50 9 -116 -51 -116 -39 0 -59 24 -59
72 0 69 68 97 110 44z m214 11 c11 -10 16 -34 16 -70 0 -49 -2 -54 -22 -54
-13 0 -33 -1 -46 -1 -27 0 -52 17 -52 37 0 18 40 44 67 44 14 0 23 6 23 15 0
22 -24 29 -50 15 -28 -15 -41 -3 -16 16 26 18 61 18 80 -2z m132 5 c4 -8 9 -8
17 0 23 23 27 9 27 -84 0 -78 -3 -95 -15 -95 -10 0 -15 10 -15 30 0 28 -2 30
-20 20 -21 -11 -57 1 -72 24 -13 19 -9 71 8 94 16 23 58 30 70 11z m102 -53
c3 -56 4 -57 30 -54 25 3 27 7 32 57 8 85 30 79 30 -8 0 -67 -1 -71 -22 -70
-13 1 -31 -2 -40 -5 -31 -14 -58 27 -58 90 0 77 24 69 28 -10z m152 -6 c0 -40
-4 -70 -10 -70 -6 0 -10 30 -10 70 0 40 4 70 10 70 6 0 10 -30 10 -70z m130
58 c0 -9 3 -9 12 0 7 7 21 12 33 12 34 0 45 -20 45 -82 0 -72 -18 -77 -22 -7
-6 96 -68 89 -68 -8 0 -24 -4 -43 -10 -43 -6 0 -10 30 -10 70 0 40 4 70 10 70
6 0 10 -5 10 -12z m224 -10 c9 -13 16 -43 16 -70 0 -43 -2 -48 -22 -48 -13 0
-33 -1 -46 -1 -27 0 -52 17 -52 37 0 18 40 44 67 44 14 0 23 6 23 15 0 22 -29
30 -52 16 -27 -16 -38 -3 -14 15 29 21 63 17 80 -8z m146 12 c0 -6 8 -5 20 2
15 9 25 10 37 2 12 -8 25 -8 46 0 25 10 31 8 48 -13 24 -30 27 -121 4 -121
-12 0 -15 13 -15 55 0 40 -4 57 -15 61 -27 11 -45 -16 -45 -67 0 -27 -4 -49
-10 -49 -5 0 -10 22 -10 49 0 31 -5 53 -15 61 -26 21 -45 -5 -45 -61 0 -37 -4
-49 -15 -49 -12 0 -15 14 -15 63 0 35 3 67 7 70 10 10 23 8 23 -3z m228 -63
c2 -55 0 -67 -13 -67 -12 0 -15 14 -15 71 0 52 3 70 13 67 7 -3 13 -29 15 -71z
m62 61 c0 -9 3 -9 12 0 17 17 44 15 62 -4 18 -17 23 -124 6 -124 -5 0 -10 19
-10 43 0 97 -62 104 -68 8 -2 -38 -7 -51 -18 -51 -12 0 -15 12 -13 63 1 34 4
65 6 70 7 11 23 8 23 -5z m370 -3 c7 -9 15 -40 17 -70 4 -54 4 -54 -25 -53
-16 1 -34 -2 -40 -5 -5 -4 -20 1 -32 11 -34 28 -19 60 31 68 24 4 39 12 39 21
0 20 -30 28 -52 14 -27 -16 -38 -3 -14 15 26 18 60 18 76 -1z m223 3 c9 -7 19
-25 23 -40 6 -28 6 -28 -45 -28 -39 0 -51 -4 -51 -15 0 -22 28 -30 61 -18 23
9 29 8 29 -2 0 -18 -50 -34 -78 -24 -21 8 -42 44 -42 73 0 7 9 25 21 40 22 28
55 34 82 14z m77 2 c0 -6 8 -5 20 2 15 10 24 10 38 1 12 -7 24 -8 36 -1 26 14
63 2 70 -24 12 -46 7 -108 -9 -108 -12 0 -15 13 -15 55 0 40 -4 57 -15 61 -27
11 -45 -16 -45 -67 0 -27 -4 -49 -10 -49 -5 0 -10 22 -10 49 0 31 -5 53 -15
61 -26 21 -45 -5 -45 -61 0 -36 -4 -49 -14 -49 -11 0 -14 15 -15 62 0 34 2 65
5 70 7 11 24 10 24 -2z m226 -1 c4 -8 9 -8 17 0 30 30 87 -8 87 -59 0 -19 -9
-40 -24 -55 -21 -21 -29 -23 -50 -15 -24 9 -26 8 -26 -20 0 -20 -5 -30 -15
-30 -12 0 -15 17 -15 95 0 87 8 113 26 84z m204 0 c0 -5 -4 -9 -9 -9 -23 0
-41 -34 -41 -76 0 -24 -4 -44 -10 -44 -6 0 -10 29 -10 68 l0 68 35 1 c19 1 35
-3 35 -8z m122 -6 c10 -9 18 -27 18 -40 0 -21 -4 -23 -50 -23 -48 0 -50 -1
-40 -20 11 -21 54 -28 65 -10 4 6 11 8 16 4 29 -18 -42 -49 -74 -33 -30 16
-37 28 -37 67 0 59 61 93 102 55z m139 7 c23 -13 25 -30 4 -30 -8 0 -15 5 -15
11 0 6 -10 9 -22 7 -35 -5 -27 -30 12 -43 44 -15 52 -47 17 -70 -25 -16 -67
-9 -82 14 -8 14 10 14 34 1 13 -6 24 -5 37 5 18 13 16 15 -23 31 -49 19 -60
40 -37 65 19 21 46 24 75 9z m143 -12 c8 -13 15 -44 14 -70 0 -51 5 -48 -67
-49 -33 0 -55 23 -46 50 4 15 18 23 46 27 24 4 39 12 39 21 0 20 -30 28 -52
14 -25 -15 -35 -7 -18 14 19 23 67 19 84 -7z m206 7 c16 -19 5 -34 -12 -17
-17 17 -48 15 -48 -2 0 -8 17 -23 38 -33 43 -21 49 -51 13 -69 -25 -13 -81 -1
-81 17 0 11 21 11 39 0 8 -5 20 -7 28 -4 25 10 13 30 -27 46 -28 11 -40 21
-40 36 0 37 65 56 90 26z m150 -5 c11 -11 20 -29 20 -40 0 -17 -7 -20 -50 -20
-51 0 -57 -4 -41 -29 7 -10 20 -12 52 -7 42 7 43 6 27 -10 -23 -23 -77 -22
-94 1 -19 26 -17 85 3 107 21 24 58 23 83 -2z m130 11 c0 -3 -10 -11 -22 -16
-19 -8 -24 -19 -26 -62 -2 -38 -7 -53 -18 -53 -11 0 -14 15 -14 63 0 35 2 66
5 68 7 8 75 8 75 0z m49 -43 c9 -26 19 -49 22 -52 3 -3 13 19 23 49 9 30 21
55 27 55 13 0 12 -7 -13 -78 -15 -41 -28 -62 -37 -60 -13 3 -61 107 -61 131 0
25 26 -5 39 -45z m141 -18 c0 -56 -3 -70 -15 -70 -12 0 -15 14 -15 63 0 35 3
67 7 70 17 18 23 1 23 -63z m131 60 c20 -11 27 -40 9 -40 -5 0 -10 4 -10 9 0
16 -40 23 -56 10 -10 -8 -14 -25 -12 -48 2 -29 8 -37 26 -39 13 -2 30 2 38 9
8 6 18 9 22 5 4 -4 -5 -18 -20 -30 -25 -20 -26 -22 -10 -33 16 -12 16 -13 -2
-28 -22 -17 -46 -20 -46 -5 0 6 7 10 15 10 8 0 15 5 15 10 0 6 -4 10 -10 10
-5 0 -10 4 -10 10 0 5 -11 20 -25 34 -61 61 1 156 76 116z m154 -10 c24 -26
25 -85 2 -107 -22 -22 -76 -21 -93 2 -23 30 -18 91 8 109 31 22 61 20 83 -4z
m-3905 -385 c0 -57 -4 -95 -10 -95 -6 0 -10 38 -10 95 0 57 4 95 10 95 6 0 10
-38 10 -95z m616 46 c-3 -20 -5 -46 -6 -58 0 -13 -4 -23 -10 -23 -11 0 -14
113 -4 123 15 14 25 -7 20 -42z m84 -22 c0 -46 -3 -59 -15 -59 -12 0 -15 13
-15 58 0 32 3 62 6 65 15 15 24 -8 24 -64z m-325 42 c-3 -6 5 -15 17 -22 22
-12 22 -12 2 -19 -16 -6 -19 -16 -17 -50 1 -26 9 -47 20 -56 17 -13 16 -14
-12 -12 -29 3 -30 5 -33 58 -2 30 -9 58 -15 63 -9 7 -9 10 1 14 6 2 12 11 12
19 0 8 7 14 16 14 8 0 13 -4 9 -9z m-865 -41 c11 -11 20 -29 20 -40 0 -17 -7
-20 -50 -20 -51 0 -61 -8 -35 -30 10 -8 28 -10 52 -5 36 6 37 6 21 -11 -23
-23 -77 -23 -94 1 -23 30 -18 91 8 109 30 21 54 20 78 -4z m70 -5 c7 -14 16
-25 20 -25 4 0 13 11 20 25 7 14 20 25 27 25 10 0 8 -10 -9 -38 l-22 -39 23
-31 c17 -24 19 -32 8 -32 -8 0 -21 10 -30 23 l-15 22 -20 -25 c-28 -34 -39
-18 -14 18 l21 29 -25 36 c-17 26 -21 37 -11 37 7 0 20 -11 27 -25z m205 5
c23 -26 11 -39 -14 -16 -39 35 -87 -16 -61 -64 12 -22 49 -27 68 -8 6 6 15 8
19 5 4 -4 0 -14 -8 -21 -46 -44 -109 -12 -109 54 0 29 6 43 22 54 31 22 61 20
83 -4z m138 8 c9 -7 19 -25 23 -40 6 -28 6 -28 -46 -28 -44 0 -51 -3 -48 -17
3 -14 13 -18 47 -16 46 2 53 -16 10 -27 -35 -10 -68 5 -79 35 -14 37 -13 49
11 79 22 28 55 34 82 14z m215 -4 c12 -8 22 -26 22 -40 0 -22 -4 -24 -50 -24
-48 0 -50 -1 -39 -21 9 -18 17 -20 52 -15 37 6 40 5 27 -8 -15 -15 -32 -19
-62 -17 -49 3 -68 96 -26 125 12 9 29 16 38 16 9 0 26 -7 38 -16z m72 4 c0 -9
3 -9 12 0 17 17 53 15 68 -3 7 -8 14 -40 17 -70 3 -44 1 -55 -11 -55 -11 0
-16 14 -18 57 -2 44 -7 59 -19 61 -28 5 -49 -26 -49 -74 0 -24 -4 -44 -10 -44
-6 0 -10 30 -10 70 0 40 4 70 10 70 6 0 10 -5 10 -12z m322 -5 c10 -9 18 -27
18 -40 0 -21 -4 -23 -46 -23 -38 0 -45 -3 -42 -17 3 -14 13 -18 48 -16 37 2
41 0 29 -11 -44 -42 -109 -12 -109 50 0 61 60 95 102 57z m5346 -12 c152 -78
161 -292 16 -377 -90 -53 -184 -42 -261 29 -79 72 -92 178 -33 271 62 98 176
129 278 77z m-2010 -113 l-2 -63 -3 53 c-4 49 -6 53 -26 46 -22 -6 -22 -6 -2
10 32 25 35 20 33 -46z m120 50 c17 -17 15 -83 -3 -98 -21 -18 -53 -3 -60 29
-12 58 29 103 63 69z m150 -50 l-2 -63 -3 53 c-4 45 -7 53 -21 48 -13 -5 -13
-3 2 9 11 8 21 15 23 15 2 0 2 -28 1 -62z m124 -36 c-8 -25 -16 -1 -13 39 1
31 -1 39 -11 33 -8 -5 -8 -1 2 11 14 17 15 15 20 -26 3 -24 4 -50 2 -57z
m-3642 53 c0 -8 -7 -15 -15 -15 -8 0 -15 7 -15 15 0 8 7 15 15 15 8 0 15 -7
15 -15z m80 0 c0 -8 -7 -15 -15 -15 -8 0 -15 7 -15 15 0 8 7 15 15 15 8 0 15
-7 15 -15z m3519 -11 c-10 -13 -10 -17 2 -25 11 -7 11 -9 -3 -9 -21 0 -24 20
-6 38 17 17 23 15 7 -4z m-1079 -618 c0 -34 1 -35 33 -29 44 7 67 -16 67 -67
0 -52 -19 -69 -78 -68 l-48 1 2 96 c2 109 1 101 14 101 6 0 10 -15 10 -34z
m260 19 c0 -8 -7 -15 -15 -15 -16 0 -20 12 -8 23 11 12 23 8 23 -8z m460 -83
l0 -99 -52 1 c-47 1 -54 4 -66 29 -15 31 -8 79 14 98 8 7 28 9 49 6 34 -6 35
-5 35 29 0 19 5 34 10 34 6 0 10 -39 10 -98z m740 83 c0 -8 -7 -15 -15 -15
-16 0 -20 12 -8 23 11 12 23 8 23 -8z m-1542 -18 c30 -32 37 -76 19 -119 -30
-71 -130 -68 -154 5 -7 20 -10 51 -6 67 12 65 98 93 141 47z m1092 -24 l1 -48
42 48 c39 43 67 59 67 39 0 -4 -16 -23 -35 -42 l-34 -33 31 -41 c18 -23 36
-47 41 -53 7 -9 5 -13 -6 -13 -9 0 -32 21 -51 46 -32 42 -35 44 -45 25 -6 -11
-11 -31 -11 -45 0 -14 -4 -26 -10 -26 -6 0 -10 38 -10 95 0 57 4 95 10 95 6 0
10 -21 10 -47z m670 -18 c0 -36 -4 -65 -9 -65 -9 0 -20 118 -12 126 15 14 21
-4 21 -61z m-1470 6 c0 -3 -10 -11 -22 -16 -19 -8 -24 -19 -26 -62 -4 -77 -22
-65 -22 15 l0 68 35 1 c19 1 35 -2 35 -6z m50 -61 c0 -56 -3 -70 -15 -70 -12
0 -15 14 -15 70 0 56 3 70 15 70 12 0 15 -14 15 -70z m160 -4 c0 -88 -16 -116
-64 -116 -19 0 -39 7 -46 15 -17 21 -6 29 20 15 27 -14 60 -4 60 19 0 14 -6
17 -30 13 -59 -8 -91 54 -55 106 13 18 25 21 65 21 l50 -2 0 -71z m128 62 c7
-7 12 -37 12 -68 l0 -57 -32 -1 c-58 -2 -78 6 -78 31 0 30 18 47 50 47 32 0
41 7 33 26 -6 16 -49 19 -58 4 -4 -6 -11 -7 -17 -4 -16 10 21 34 52 34 14 0
31 -5 38 -12z m316 -10 c36 -51 8 -118 -49 -118 -24 0 -39 7 -49 22 -36 51 -8
118 49 118 24 0 39 -7 49 -22z m384 9 c6 -6 13 -24 17 -40 7 -27 7 -27 -45
-27 -53 0 -62 -12 -27 -34 12 -8 23 -7 38 2 25 16 37 8 19 -13 -18 -22 -66
-19 -91 6 -17 17 -20 29 -15 58 3 20 13 42 23 48 22 17 68 17 81 0z m80 -44
l19 -58 18 58 c10 31 24 57 31 57 12 0 1 -44 -31 -122 -6 -16 -35 -26 -35 -13
0 2 -11 34 -25 70 -18 50 -21 65 -10 65 7 0 22 -25 33 -57z m132 -13 c0 -56
-3 -70 -15 -70 -12 0 -15 14 -15 70 0 56 3 70 15 70 12 0 15 -14 15 -70z m60
58 c0 -9 3 -9 12 0 7 7 21 12 33 12 12 0 26 -5 33 -12 14 -14 16 -128 2 -128
-5 0 -10 20 -10 44 0 56 -8 76 -29 76 -29 0 -41 -22 -41 -72 0 -26 -4 -48 -10
-48 -6 0 -10 30 -10 70 0 40 4 70 10 70 6 0 10 -5 10 -12z m1015 -125 c-26
-32 -50 -59 -54 -61 -4 -1 -18 9 -31 23 -17 18 -19 25 -9 25 8 0 20 -5 27 -12
6 -6 13 -10 15 -7 36 50 92 109 95 101 2 -7 -18 -37 -43 -69z m59 -3 c-26 -33
-52 -59 -58 -57 -16 5 -19 27 -3 27 8 0 34 26 58 57 23 31 44 52 47 45 2 -6
-18 -39 -44 -72z m-635 -2 c-1 -72 -5 -68 -12 10 -2 28 0 52 4 52 5 0 9 -28 8
-62z m76 36 c-17 -34 -5 -79 21 -79 15 0 20 8 22 38 2 21 -2 45 -9 53 -7 8 -7
14 -1 14 25 0 31 -90 6 -111 -34 -28 -74 34 -55 84 6 15 15 27 20 27 5 0 4
-12 -4 -26z m192 -56 c-2 -18 -4 -6 -4 27 0 33 2 48 4 33 2 -15 2 -42 0 -60z
m111 75 c-15 -2 -29 -12 -31 -21 -3 -12 -5 -10 -6 6 -1 19 4 22 32 21 29 -2
29 -2 5 -6z m-655 -38 c1 -5 -6 -11 -15 -13 -11 -2 -18 3 -18 13 0 17 30 18
33 0z m677 -15 c12 -23 -2 -60 -23 -60 -16 0 -56 29 -41 30 5 0 15 -5 22 -12
10 -9 15 -9 27 3 18 18 11 46 -13 52 -15 4 -15 5 0 6 10 0 22 -8 28 -19z m371
-589 c28 -28 29 -33 29 -118 0 -51 -6 -99 -13 -113 -35 -69 -126 -57 -147 20
-13 48 -12 131 2 177 19 66 81 82 129 34z m-6509 -92 l3 -81 70 -1 c80 0 95
-4 95 -23 0 -11 -19 -14 -85 -14 l-85 0 0 -86 c0 -76 -2 -85 -17 -82 -15 3
-18 16 -21 86 l-3 82 -79 0 c-43 0 -82 5 -85 10 -10 16 39 29 104 27 l61 -2 0
76 c0 77 3 89 26 89 10 0 14 -23 16 -81z m5796 48 c16 -17 34 -23 69 -24 67
-2 73 -14 73 -148 0 -159 14 -150 -220 -150 -233 0 -220 -9 -220 148 0 133 6
147 63 147 30 0 53 8 77 25 47 34 127 35 158 2z m-931 -7 c37 -22 48 -41 58
-96 9 -60 -10 -118 -53 -160 -59 -58 -79 -67 -140 -67 -118 0 -156 49 -150
189 3 71 6 86 28 109 35 38 54 44 145 44 62 1 87 -3 112 -19z m1469 -147 c27
-82 61 -113 126 -113 48 0 97 41 107 89 3 19 12 36 19 39 20 6 14 -57 -8 -93
-19 -30 -72 -65 -99 -65 -6 0 -11 -13 -11 -30 0 -20 -5 -30 -15 -30 -10 0 -15
10 -15 28 -1 22 -9 31 -43 47 -48 23 -87 75 -87 116 0 32 17 39 26 12z m-1796
-803 c11 -11 20 -24 20 -30 0 -5 -9 -19 -20 -30 -20 -20 -33 -20 -1301 -20
-863 0 -1287 3 -1300 10 -30 17 -23 70 11 83 8 3 590 6 1293 6 1264 1 1277 1
1297 -19z"/>
<path d="M1455 15490 c-17 -18 -17 -21 -1 -45 9 -14 21 -25 27 -25 24 0 49 22
49 43 0 46 -43 62 -75 27z"/>
<path d="M6408 15606 c-15 -11 -18 -29 -18 -94 0 -114 -3 -112 226 -112 219 0
214 -2 214 112 0 110 4 108 -221 108 -137 -1 -188 -4 -201 -14z m330 -18 c7
-7 12 -40 12 -80 0 -56 -3 -69 -19 -78 -11 -5 -79 -10 -151 -10 -72 0 -140 5
-151 10 -27 15 -28 144 -1 159 25 15 295 14 310 -1z"/>
<path d="M6526 14848 c-22 -31 -20 -54 8 -113 62 -131 246 -230 286 -155 9 16
4 23 -27 44 -34 23 -39 24 -60 11 -35 -24 -51 -18 -103 35 -53 52 -59 72 -36
106 13 19 12 24 -11 57 -31 43 -37 45 -57 15z"/>
<path d="M5570 14830 c-12 -7 -15 -32 -15 -120 0 -88 3 -113 15 -120 8 -5 68
-10 132 -10 149 0 147 -2 147 130 0 132 2 130 -147 130 -64 0 -124 -5 -132
-10z"/>
<path d="M5923 14767 c-55 -42 -55 -65 0 -112 l42 -36 3 45 c2 25 2 66 0 91
l-3 44 -42 -32z"/>
<path d="M798 14779 c-21 -12 -39 -74 -32 -108 11 -52 27 -72 53 -69 21 2 29
12 39 45 24 74 -15 157 -60 132z"/>
<path d="M2365 14713 c-21 -21 -19 -23 20 -23 23 0 35 5 35 14 0 20 -38 27
-55 9z"/>
<path d="M3407 14719 c-28 -16 -20 -29 18 -29 38 0 46 13 17 29 -11 6 -24 6
-35 0z"/>
<path d="M3877 14718 c-28 -15 -19 -28 18 -28 26 0 33 4 29 14 -8 20 -27 26
-47 14z"/>
<path d="M4497 14718 c-28 -15 -19 -28 18 -28 26 0 33 4 29 14 -8 20 -27 26
-47 14z"/>
<path d="M4657 14714 c-13 -13 -7 -71 9 -85 26 -21 49 1 49 47 0 34 -3 39 -25
42 -14 2 -29 0 -33 -4z"/>
<path d="M4997 14714 c-13 -13 -7 -71 8 -84 8 -6 22 -10 32 -8 14 3 18 13 18
48 0 41 -2 45 -25 48 -14 2 -29 0 -33 -4z"/>
<path d="M5182 14708 c-7 -7 -12 -21 -12 -33 0 -46 53 -62 71 -21 21 45 -26
87 -59 54z"/>
<path d="M1539 6694 c-13 -36 3 -77 29 -72 25 5 25 91 0 96 -12 2 -22 -6 -29
-24z"/>
<path d="M1896 6038 c-36 -51 -7 -120 49 -120 33 0 54 28 55 73 0 63 -70 95
-104 47z"/>
<path d="M3481 6011 c-19 -12 -20 -79 -1 -91 15 -9 41 -2 52 14 15 22 8 65
-11 76 -23 12 -22 12 -40 1z"/>
<path d="M3870 6005 c-18 -22 -15 -66 5 -81 27 -20 55 0 55 39 0 51 -33 74
-60 42z"/>
<path d="M4600 6025 c0 -41 19 -53 56 -36 20 9 25 17 22 39 -3 23 -8 27 -40
30 -37 3 -38 3 -38 -33z"/>
<path d="M4922 6008 c-21 -21 -15 -76 10 -89 18 -10 24 -8 40 11 22 27 22 39
2 68 -17 25 -34 28 -52 10z"/>
<path d="M6418 6009 c-23 -13 -23 -62 -2 -84 20 -20 35 -15 53 17 13 23 13 29
-2 52 -19 29 -24 30 -49 15z"/>
<path d="M2153 5953 c-18 -7 -16 -30 3 -37 19 -7 57 21 48 35 -6 10 -31 11
-51 2z"/>
<path d="M2604 6003 c-17 -17 -16 -18 15 -21 40 -4 48 2 31 23 -16 19 -25 19
-46 -2z"/>
<path d="M3642 6008 c-19 -19 -15 -76 7 -87 40 -22 73 45 41 84 -15 18 -32 19
-48 3z"/>
<path d="M4024 6003 c-17 -17 -17 -18 4 -21 12 -2 32 -2 44 0 21 3 21 4 4 21
-10 9 -21 17 -26 17 -5 0 -16 -8 -26 -17z"/>
<path d="M4766 6004 c-9 -8 -16 -26 -16 -39 0 -23 23 -55 40 -55 16 0 40 31
40 51 0 28 -18 59 -35 59 -7 0 -21 -7 -29 -16z"/>
<path d="M5082 6008 c-20 -20 -14 -28 23 -28 39 0 46 14 16 30 -24 13 -24 13
-39 -2z"/>
<path d="M5381 5946 c-9 -10 -8 -16 3 -25 18 -15 56 2 56 24 0 19 -44 20 -59
1z"/>
<path d="M5838 6009 c-29 -16 -21 -29 17 -29 37 0 43 8 23 28 -14 14 -18 14
-40 1z"/>
<path d="M6043 5944 c-3 -9 0 -20 8 -24 17 -11 49 6 49 25 0 21 -49 19 -57 -1z"/>
<path d="M6571 5951 c-8 -5 -11 -16 -8 -25 8 -20 50 -7 55 18 4 18 -23 22 -47
7z"/>
<path d="M3004 5652 c-30 -21 -26 -87 7 -95 41 -11 66 54 33 87 -17 18 -24 19
-40 8z"/>
<path d="M5476 5644 c-28 -27 -19 -74 16 -87 25 -9 52 34 42 65 -12 39 -34 47
-58 22z"/>
<path d="M1892 5648 c-20 -20 -14 -28 23 -28 19 0 35 4 35 8 0 12 -22 32 -35
32 -6 0 -16 -5 -23 -12z"/>
<path d="M2428 5653 c-9 -2 -19 -11 -22 -19 -4 -11 4 -14 36 -14 40 0 41 0 23
20 -10 11 -19 19 -19 19 -1 -1 -8 -3 -18 -6z"/>
<path d="M2697 5649 c-28 -16 -20 -29 18 -29 38 0 46 13 17 29 -11 6 -24 6
-35 0z"/>
<path d="M3156 5644 c-17 -16 -21 -51 -8 -70 24 -35 72 -14 72 31 0 23 -23 55
-40 55 -5 0 -16 -7 -24 -16z"/>
<path d="M3753 5584 c-3 -8 -1 -20 5 -26 13 -13 52 7 52 27 0 20 -49 19 -57
-1z"/>
<path d="M3973 5593 c-7 -2 -13 -11 -13 -18 0 -18 21 -24 43 -13 38 19 11 48
-30 31z"/>
<path d="M4243 5593 c-18 -7 -16 -30 3 -37 21 -8 20 -8 38 10 26 26 -1 44 -41
27z"/>
<path d="M4512 5588 c-12 -12 1 -38 19 -38 11 0 39 29 39 41 0 13 -44 11 -58
-3z"/>
<path d="M4801 5586 c-9 -10 -8 -16 3 -25 18 -15 56 2 56 24 0 19 -44 20 -59
1z"/>
<path d="M4956 5644 c-9 -8 -16 -26 -16 -39 0 -23 23 -55 40 -55 17 0 40 32
40 55 0 23 -23 55 -40 55 -5 0 -16 -7 -24 -16z"/>
<path d="M5316 5644 c-32 -31 -16 -84 24 -84 28 0 40 15 40 50 0 19 -25 50
-40 50 -5 0 -16 -7 -24 -16z"/>
<path d="M5726 5644 c-22 -22 -21 -24 19 -24 37 0 49 22 19 34 -21 8 -20 8
-38 -10z"/>
<path d="M5946 5644 c-40 -39 -1 -107 47 -82 25 13 23 74 -2 88 -25 13 -27 13
-45 -6z"/>
<path d="M6396 5644 c-22 -22 -21 -24 19 -24 39 0 46 14 16 30 -15 7 -23 6
-35 -6z"/>
<path d="M2238 5289 c-22 -13 -24 -62 -2 -83 17 -18 24 -19 40 -8 22 14 26 52
10 77 -18 28 -23 29 -48 14z"/>
<path d="M4208 5289 c-27 -15 -24 -75 4 -90 18 -10 24 -8 40 11 22 27 22 39 2
68 -17 25 -22 26 -46 11z"/>
<path d="M2073 5224 c-3 -8 -1 -20 5 -26 13 -13 52 7 52 27 0 20 -49 19 -57
-1z"/>
<path d="M2373 5224 c-3 -8 -1 -20 5 -26 13 -13 52 7 52 27 0 20 -49 19 -57
-1z"/>
<path d="M2748 5289 c-32 -18 -14 -99 22 -99 17 0 40 32 40 55 0 22 -23 55
-38 55 -4 0 -15 -5 -24 -11z"/>
<path d="M3300 5285 c-32 -39 1 -106 41 -84 26 14 26 75 0 89 -25 13 -26 13
-41 -5z"/>
<path d="M3671 5231 c-12 -8 -12 -12 -2 -25 8 -9 17 -16 22 -16 11 0 39 29 39
41 0 12 -41 12 -59 0z"/>
<path d="M3973 5224 c-3 -8 -1 -20 5 -26 13 -13 52 7 52 27 0 20 -49 19 -57
-1z"/>
<path d="M4362 5288 c-20 -20 -14 -28 23 -28 39 0 46 14 16 30 -24 13 -24 13
-39 -2z"/>
<path d="M5153 5233 c-18 -7 -16 -30 3 -37 21 -8 20 -8 38 10 26 26 -1 44 -41
27z"/>
<path d="M5483 5233 c-7 -2 -13 -11 -13 -18 0 -18 21 -24 43 -13 38 19 11 48
-30 31z"/>
<path d="M5705 5283 c-33 -32 -7 -97 34 -86 39 10 40 86 1 96 -11 3 -27 -1
-35 -10z"/>
<path d="M5853 5233 c-25 -9 -7 -43 22 -43 8 0 35 32 35 41 0 9 -36 11 -57 2z"/>
<path d="M6103 5233 c-18 -7 -16 -32 2 -39 18 -7 45 12 45 32 0 14 -23 17 -47
7z"/>
<path d="M2247 4929 c-25 -15 -23 -75 4 -89 28 -16 49 4 49 46 0 38 -25 58
-53 43z"/>
<path d="M5018 4932 c-34 -7 -35 -83 -3 -96 36 -13 65 28 51 72 -8 23 -23 30
-48 24z"/>
<path d="M6284 4915 c-16 -25 -12 -63 10 -77 16 -11 23 -10 40 8 23 22 20 71
-3 84 -27 14 -28 13 -47 -15z"/>
<path d="M4530 4910 l0 -70 34 0 c25 0 39 7 50 22 36 51 5 118 -54 118 l-30 0
0 -70z"/>
<path d="M1892 4928 c-20 -20 -14 -28 23 -28 39 0 46 14 16 30 -24 13 -24 13
-39 -2z"/>
<path d="M2592 4868 c-12 -12 1 -38 19 -38 11 0 39 29 39 41 0 13 -44 11 -58
-3z"/>
<path d="M2748 4929 c-25 -14 -24 -75 1 -89 25 -13 27 -13 45 6 9 8 16 26 16
39 0 22 -23 55 -38 55 -4 0 -15 -5 -24 -11z"/>
<path d="M3128 4929 c-25 -14 -24 -75 1 -89 39 -20 70 15 55 63 -11 35 -28 43
-56 26z"/>
<path d="M3572 4928 c-20 -20 -14 -28 23 -28 39 0 46 14 16 30 -24 13 -24 13
-39 -2z"/>
<path d="M4236 4924 c-22 -22 -21 -24 19 -24 39 0 46 14 16 30 -15 7 -23 6
-35 -6z"/>
<path d="M4721 4927 c-19 -19 -12 -27 24 -27 35 0 46 12 23 27 -20 12 -35 12
-47 0z"/>
<path d="M5177 4928 c-28 -15 -19 -28 18 -28 26 0 33 4 29 14 -8 20 -27 26
-47 14z"/>
<path d="M5453 4873 c-18 -7 -16 -30 3 -37 19 -7 44 10 44 30 0 14 -23 17 -47
7z"/>
<path d="M5743 4873 c-15 -6 -17 -29 -3 -38 14 -9 50 13 50 30 0 15 -23 18
-47 8z"/>
<path d="M5881 4927 c-18 -18 -13 -65 8 -77 27 -14 28 -13 46 14 12 19 14 30
6 44 -13 24 -45 34 -60 19z"/>
<path d="M6133 4864 c-3 -8 -1 -20 5 -26 13 -13 52 7 52 27 0 20 -49 19 -57
-1z"/>
<path d="M6458 4933 c-9 -2 -19 -11 -22 -19 -4 -10 3 -14 29 -14 19 0 35 4 35
9 0 14 -24 28 -42 24z"/>
<path d="M6748 4929 c-27 -15 -24 -75 4 -90 18 -10 24 -8 40 11 22 27 22 39 2
68 -17 25 -22 26 -46 11z"/>
<path d="M2975 4556 c-30 -45 3 -99 46 -76 26 15 26 75 0 90 -27 14 -28 13
-46 -14z"/>
<path d="M3865 4556 c-12 -17 -13 -30 -6 -49 13 -33 26 -40 51 -27 27 15 28
75 1 90 -27 14 -28 13 -46 -14z"/>
<path d="M4216 4564 c-9 -8 -16 -26 -16 -39 0 -23 23 -55 40 -55 17 0 40 32
40 55 0 23 -23 55 -40 55 -5 0 -16 -7 -24 -16z"/>
<path d="M4525 4566 c-21 -15 -23 -62 -2 -83 24 -25 57 -1 57 42 0 41 -27 62
-55 41z"/>
<path d="M1894 4555 c-16 -25 -12 -63 10 -77 16 -11 23 -10 40 8 23 22 20 71
-3 84 -27 14 -28 13 -47 -15z"/>
<path d="M2057 4568 c-28 -15 -19 -28 18 -28 26 0 33 4 29 14 -8 20 -27 26
-47 14z"/>
<path d="M2253 4513 c-25 -9 -7 -43 22 -43 8 0 35 32 35 41 0 9 -36 11 -57 2z"/>
<path d="M2763 4513 c-15 -6 -17 -29 -3 -38 14 -9 50 13 50 30 0 15 -23 18
-47 8z"/>
<path d="M3346 4564 c-9 -8 -16 -26 -16 -39 0 -22 23 -55 38 -55 33 1 49 53
28 85 -19 29 -29 31 -50 9z"/>
<path d="M3496 4564 c-9 -8 -16 -26 -16 -39 0 -23 23 -55 40 -55 37 0 54 82
21 100 -25 13 -27 13 -45 -6z"/>
<path d="M4373 4513 c-15 -6 -17 -29 -3 -38 14 -9 50 13 50 30 0 15 -23 18
-47 8z"/>
<path d="M4675 4563 c-22 -21 -19 -23 25 -23 30 0 38 3 34 14 -8 21 -42 26
-59 9z"/>
<path d="M6275 4500 c-11 -17 -9 -70 3 -82 29 -29 55 26 36 76 -7 18 -30 21
-39 6z"/>
<path d="M6441 4496 c-7 -8 -11 -30 -9 -48 2 -25 8 -33 22 -33 28 0 42 28 31
61 -12 33 -28 40 -44 20z"/>
<path d="M542 3813 c3 -25 7 -28 33 -25 61 7 61 52 0 52 -34 0 -36 -2 -33 -27z"/>
<path d="M540 3730 c0 -27 3 -30 34 -30 38 0 60 19 50 44 -4 11 -18 16 -45 16
-37 0 -39 -2 -39 -30z"/>
<path d="M1159 3776 c-6 -13 -9 -36 -5 -51 5 -21 12 -26 33 -23 35 4 50 29 37
65 -13 38 -50 43 -65 9z"/>
<path d="M1600 3770 l0 -70 34 0 c45 0 66 22 66 70 0 48 -21 70 -66 70 l-34 0
0 -70z"/>
<path d="M2641 3786 c-7 -8 -11 -30 -9 -48 2 -27 8 -34 30 -36 19 -2 30 3 38
18 26 48 -26 105 -59 66z"/>
<path d="M3030 3779 c-24 -44 10 -96 48 -73 35 22 21 94 -18 94 -11 0 -24 -9
-30 -21z"/>
<path d="M4191 3786 c-7 -8 -11 -30 -9 -48 2 -26 8 -34 27 -36 31 -5 44 10 43
49 -1 45 -36 65 -61 35z"/>
<path d="M708 3775 c-17 -38 4 -77 40 -73 23 2 28 8 30 36 6 59 -47 87 -70 37z"/>
<path d="M1387 3733 c-17 -17 -6 -34 20 -31 36 4 45 38 10 38 -13 0 -27 -3
-30 -7z"/>
<path d="M1861 3786 c-7 -8 -11 -30 -9 -48 3 -29 6 -33 33 -33 27 0 30 4 33
33 3 35 -11 62 -33 62 -7 0 -18 -6 -24 -14z"/>
<path d="M2011 3786 c-7 -8 -11 -27 -9 -43 2 -22 9 -29 30 -31 38 -4 56 30 33
64 -18 27 -37 31 -54 10z"/>
<path d="M2165 3776 c-24 -35 -5 -78 33 -74 23 2 28 8 30 36 6 58 -34 82 -63
38z"/>
<path d="M2801 3786 c-7 -8 -11 -30 -9 -48 2 -28 7 -34 30 -36 22 -3 30 2 38
22 20 52 -27 101 -59 62z"/>
<path d="M3182 3788 c-21 -21 -13 -28 28 -28 38 0 40 2 30 20 -12 22 -40 26
-58 8z"/>
<path d="M3641 3786 c-7 -8 -11 -30 -9 -48 3 -29 6 -33 33 -33 27 0 30 4 33
33 3 35 -11 62 -33 62 -7 0 -18 -6 -24 -14z"/>
<path d="M3785 3730 c-9 -14 3 -30 24 -30 18 0 41 18 41 32 0 12 -58 10 -65
-2z"/>
<path d="M4025 3730 c-9 -14 3 -30 24 -30 18 0 41 18 41 32 0 12 -58 10 -65
-2z"/>
<path d="M4342 3788 c-20 -20 -14 -28 23 -28 19 0 35 4 35 8 0 12 -22 32 -35
32 -6 0 -16 -5 -23 -12z"/>
<path d="M5002 3788 c-20 -20 -14 -28 24 -28 28 0 35 3 32 18 -4 21 -39 27
-56 10z"/>
<path d="M2720 3419 c-24 -44 10 -96 48 -73 35 22 21 94 -18 94 -11 0 -24 -9
-30 -21z"/>
<path d="M4966 3424 c-19 -18 -20 -38 -6 -65 13 -23 55 -25 64 -3 23 59 -19
108 -58 68z"/>
<path d="M687 3373 c-17 -17 -6 -34 20 -31 36 4 45 38 10 38 -13 0 -27 -3 -30
-7z"/>
<path d="M927 3373 c-17 -17 -6 -34 20 -31 36 4 45 38 10 38 -13 0 -27 -3 -30
-7z"/>
<path d="M1138 3414 c-15 -33 -1 -58 35 -62 21 -3 28 2 33 21 14 57 -45 92
-68 41z"/>
<path d="M1302 3428 c-14 -14 -16 -57 -3 -76 11 -18 51 -12 65 10 25 41 -29
99 -62 66z"/>
<path d="M1682 3428 c-20 -20 -14 -28 23 -28 19 0 35 4 35 8 0 12 -22 32 -35
32 -6 0 -16 -5 -23 -12z"/>
<path d="M2502 3428 c-14 -14 -16 -57 -3 -76 11 -18 51 -12 65 10 25 41 -29
99 -62 66z"/>
<path d="M2894 3432 c-18 -12 -24 -41 -14 -68 8 -20 16 -25 38 -22 23 2 28 8
30 36 5 48 -23 75 -54 54z"/>
<path d="M3402 3428 c-20 -20 -14 -28 23 -28 19 0 35 4 35 8 0 12 -22 32 -35
32 -6 0 -16 -5 -23 -12z"/>
<path d="M3705 3370 c-9 -14 3 -30 24 -30 18 0 41 18 41 32 0 12 -58 10 -65
-2z"/>
<path d="M4022 3428 c-21 -21 -13 -28 28 -28 38 0 40 2 30 20 -12 22 -40 26
-58 8z"/>
<path d="M4311 3426 c-7 -8 -11 -30 -9 -48 2 -26 8 -34 27 -36 31 -5 44 10 43
49 -1 45 -36 65 -61 35z"/>
<path d="M4662 3428 c-20 -20 -14 -28 23 -28 37 0 49 22 19 34 -22 8 -28 8
-42 -6z"/>
<path d="M5120 3421 c-22 -43 -5 -81 37 -81 16 0 25 7 29 26 14 56 -41 101
-66 55z"/>
<path d="M1068 3055 c-16 -35 3 -75 36 -75 25 0 36 16 36 54 0 48 -53 63 -72
21z"/>
<path d="M1297 3013 c-17 -17 -6 -34 20 -31 36 4 45 38 10 38 -13 0 -27 -3
-30 -7z"/>
<path d="M1454 3072 c-18 -12 -24 -41 -14 -68 8 -20 16 -25 38 -22 23 2 28 8
30 36 5 48 -23 75 -54 54z"/>
<path d="M2037 3013 c-17 -17 -6 -34 20 -31 36 4 45 38 10 38 -13 0 -27 -3
-30 -7z"/>
<path d="M2840 3005 c-10 -12 -9 -16 3 -21 25 -9 51 0 55 19 4 22 -40 24 -58
2z"/>
<path d="M3072 3068 c-20 -20 -14 -28 23 -28 19 0 35 4 35 8 0 12 -22 32 -35
32 -6 0 -16 -5 -23 -12z"/>
<path d="M3452 3068 c-19 -19 -15 -76 6 -87 28 -15 52 5 52 42 0 33 -15 57
-35 57 -6 0 -16 -5 -23 -12z"/>
<path d="M3696 3064 c-23 -22 -21 -24 24 -24 38 0 40 2 30 20 -13 24 -33 26
-54 4z"/>
<path d="M3977 3013 c-17 -17 -6 -34 20 -31 36 4 45 38 10 38 -13 0 -27 -3
-30 -7z"/>
<path d="M4332 3068 c-21 -21 -13 -28 28 -28 38 0 40 2 30 20 -12 22 -40 26
-58 8z"/>
<path d="M4930 3061 c-22 -43 -5 -81 36 -81 23 0 34 17 34 54 0 44 -50 63 -70
27z"/>
<path d="M542 2708 c-20 -20 -14 -28 24 -28 28 0 35 3 32 18 -4 21 -39 27 -56
10z"/>
<path d="M962 2708 c-20 -20 -14 -28 23 -28 19 0 35 4 35 8 0 12 -22 32 -35
32 -6 0 -16 -5 -23 -12z"/>
<path d="M1170 2700 c-10 -18 -8 -20 30 -20 38 0 40 2 30 20 -6 11 -19 20 -30
20 -11 0 -24 -9 -30 -20z"/>
<path d="M1573 2713 c-28 -11 -13 -33 22 -33 37 0 43 8 23 28 -13 13 -24 14
-45 5z"/>
<path d="M6805 2688 c-67 -37 -106 -98 -107 -169 -1 -162 185 -245 307 -137
95 83 76 241 -35 298 -43 22 -132 27 -165 8z m115 -163 c34 33 40 36 46 21 8
-21 -60 -96 -87 -96 -16 0 -89 72 -89 88 0 24 18 19 52 -15 l38 -37 40 39z"/>
<path d="M5039 2626 c-16 -33 2 -79 29 -74 13 3 17 13 17 48 0 54 -27 69 -46
26z"/>
<path d="M4252 1928 c-7 -7 -12 -24 -12 -38 0 -51 52 -69 72 -25 22 49 -25 98
-60 63z"/>
<path d="M4872 1928 c-7 -7 -12 -24 -12 -38 0 -51 53 -70 70 -25 19 51 -24 97
-58 63z"/>
<path d="M4060 1970 c-42 -42 -15 -130 40 -130 35 0 60 32 60 77 0 37 -29 73
-60 73 -11 0 -29 -9 -40 -20z"/>
<path d="M4561 1918 c-17 -46 21 -86 54 -58 18 15 19 52 3 68 -19 19 -48 14
-57 -10z"/>
<path d="M4715 1870 c-3 -5 -3 -14 0 -20 11 -17 44 -11 55 10 10 18 8 20 -19
20 -16 0 -33 -4 -36 -10z"/>
<path d="M5027 1934 c-10 -10 -9 -66 2 -82 4 -8 19 -12 32 -10 21 3 24 8 24
48 0 41 -2 45 -25 48 -14 2 -29 0 -33 -4z"/>
<path d="M5422 1928 c-20 -20 -14 -28 23 -28 19 0 35 4 35 8 0 12 -22 32 -35
32 -6 0 -16 -5 -23 -12z"/>
<path d="M6900 1223 c-26 -10 -30 -25 -30 -118 0 -100 7 -115 52 -115 39 0 51
34 46 133 -3 64 -7 81 -23 93 -20 15 -22 15 -45 7z"/>
<path d="M6121 1159 c-13 -14 -38 -23 -73 -27 l-53 -7 -3 -108 c-3 -104 -2
-107 20 -115 28 -10 331 -8 347 2 14 9 15 212 1 221 -6 3 -28 7 -51 7 -28 0
-48 8 -66 24 -34 31 -94 33 -122 3z m126 -71 c63 -59 18 -168 -68 -168 -35 0
-78 32 -90 67 -32 98 83 171 158 101z m81 -1 c4 -22 -27 -35 -38 -16 -10 15 7
42 24 36 6 -2 12 -11 14 -20z"/>
<path d="M6135 1065 c-28 -27 -31 -45 -14 -78 16 -29 28 -37 62 -37 34 0 67
32 67 65 0 31 -41 75 -70 75 -11 0 -32 -11 -45 -25z"/>
<path d="M5109 1157 c-29 -23 -39 -55 -39 -135 0 -93 18 -126 75 -136 55 -11
75 0 75 39 0 47 42 95 83 95 51 0 61 12 54 61 -9 71 -39 89 -145 89 -53 -1
-93 -5 -103 -13z"/>
<path d="M5286 987 c-25 -8 -28 -14 -41 -79 -2 -10 1 -18 6 -18 12 0 99 84 99
96 0 12 -30 12 -64 1z"/>
</g>
</svg>
