<?xml version="1.0" standalone="no"?>
<!DOCTYPE svg PUBLIC "-//W3C//DTD SVG 20010904//EN"
 "http://www.w3.org/TR/2001/REC-SVG-20010904/DTD/svg10.dtd">
<svg version="1.0" xmlns="http://www.w3.org/2000/svg"
 width="739.000000pt" height="1600.000000pt" viewBox="0 0 739.000000 1600.000000"
 preserveAspectRatio="xMidYMid meet">

<g transform="translate(0.000000,1600.000000) scale(0.100000,-0.100000)"
fill="#000000" stroke="none">
<path d="M0 8000 l0 -8000 3695 0 3695 0 0 8000 0 8000 -3695 0 -3695 0 0
-8000z m6179 7601 c48 -25 58 -39 40 -57 -12 -12 -22 -10 -64 12 -60 30 -127
28 -176 -7 -48 -34 -83 -4 -40 35 52 47 165 55 240 17z m524 22 c-51 -2 -135
-2 -185 0 -51 1 -10 3 92 3 102 0 143 -2 93 -3z m-5753 -119 c0 -105 -2 -115
-17 -112 -15 3 -18 17 -21 91 -3 80 -11 103 -27 77 -9 -14 -35 -12 -35 2 0 19
52 57 78 58 22 0 22 -2 22 -116z m150 1 c0 -108 -1 -115 -20 -115 -19 0 -20 7
-20 90 0 50 -3 90 -8 90 -4 0 -18 -7 -30 -16 -20 -14 -22 -14 -22 5 0 24 47
60 78 61 22 0 22 -2 22 -115z m250 0 c0 -108 -1 -115 -20 -115 -19 0 -20 7
-20 96 l0 95 -30 -21 c-29 -21 -30 -21 -30 -2 0 25 46 61 78 62 22 0 22 -2 22
-115z m210 101 c0 -11 -15 -16 -52 -18 -53 -3 -53 -3 -56 -38 -3 -28 -1 -33 9
-22 20 18 67 14 89 -8 27 -27 26 -77 -2 -107 -40 -43 -138 -20 -138 32 0 21
16 19 49 -6 23 -17 32 -19 50 -10 25 14 28 53 6 71 -13 11 -23 10 -55 0 -22
-7 -42 -11 -45 -8 -3 2 -2 32 1 66 l7 62 68 0 c54 0 69 -3 69 -14z m5171 -16
c16 -9 19 -22 19 -80 0 -58 -3 -71 -19 -80 -11 -5 -79 -10 -151 -10 -72 0
-140 5 -151 10 -27 15 -28 144 -1 159 23 14 278 14 303 1z m-5523 -23 c4 -20
-25 -34 -40 -19 -15 15 -1 44 19 40 10 -2 19 -11 21 -21z m5199 -149 c20 -22
10 -24 -11 -2 -12 12 -16 34 -14 92 l2 77 3 -75 c3 -50 9 -80 20 -92z m411 -2
l-22 -21 17 21 c12 15 18 42 19 95 l2 74 3 -74 c4 -67 2 -77 -19 -95z m-694
120 c41 -17 52 -32 36 -51 -10 -13 -16 -13 -41 0 -36 19 -53 19 -91 -1 -27
-14 -32 -14 -46 0 -20 20 -3 42 42 55 45 13 63 13 100 -3z m757 -43 c-9 -15
-10 -12 -10 17 0 29 1 32 10 18 7 -12 7 -24 0 -35z m-1316 -33 c0 -63 -1 -65
-25 -65 -23 0 -25 4 -28 54 -4 68 2 83 30 79 21 -3 23 -8 23 -68z m-97 -22
c-3 -38 -6 -43 -28 -43 -22 0 -25 5 -28 43 -3 41 -2 42 28 42 30 0 31 -1 28
-42z m-4262 21 c8 -14 -21 -43 -35 -35 -19 12 -13 46 8 46 11 0 23 -5 27 -11z
m4900 -3 c19 -15 18 -15 -7 -41 l-25 -26 -25 27 c-23 25 -24 26 -5 40 25 18
37 18 62 0z m596 -63 c-51 -2 -132 -2 -180 0 -48 1 -6 3 93 3 99 0 138 -2 87
-3z m-4871 -472 c104 -117 106 -320 5 -437 -28 -32 -36 -36 -48 -26 -8 6 -18
9 -22 5 -4 -4 -16 3 -26 17 l-20 25 0 -51 c0 -54 -12 -74 -45 -73 -11 0 -14 3
-7 6 7 3 19 17 26 32 12 22 12 30 0 51 -18 33 -17 61 2 89 21 29 21 118 0 158
-20 40 -100 70 -184 70 -63 0 -77 -12 -33 -28 14 -6 20 -5 16 1 -11 18 20 21
55 7 l33 -15 -26 -26 c-14 -14 -30 -26 -35 -26 -19 0 -91 65 -91 83 -1 22 -2
22 -61 -8 l-50 -25 0 26 c0 21 -3 25 -17 19 -52 -21 -57 -20 -49 16 7 37 51
109 66 109 6 0 10 -13 10 -29 0 -28 1 -29 40 -24 29 4 40 2 40 -7 0 -7 3 -11
6 -7 4 3 18 0 33 -7 21 -12 30 -12 44 -1 15 11 15 14 2 25 -8 7 -27 10 -43 8
-26 -4 -28 -2 -26 31 1 44 33 71 84 71 50 0 90 -32 90 -72 0 -27 3 -30 23 -24
12 3 29 6 38 6 11 0 21 19 33 61 l16 60 41 -23 c23 -13 59 -43 80 -67z m1735
18 c9 -15 -11 -33 -30 -26 -9 4 -13 13 -10 22 7 17 30 20 40 4z m-786 -109 c0
-91 -3 -110 -15 -110 -12 0 -15 19 -15 110 0 91 3 110 15 110 12 0 15 -19 15
-110z m579 99 c30 -11 51 -35 51 -58 0 -19 -35 -12 -48 9 -15 24 -49 26 -74 3
-20 -18 -25 -82 -8 -114 14 -26 65 -25 87 1 22 25 43 26 43 2 0 -32 -38 -57
-87 -57 -62 0 -93 35 -93 106 0 62 13 87 53 104 39 17 37 17 76 4z m131 -99
c0 -103 -1 -110 -20 -110 -19 0 -20 7 -20 110 0 103 1 110 20 110 19 0 20 -7
20 -110z m1330 0 c0 -103 -1 -110 -20 -110 -19 0 -20 7 -20 110 0 103 1 110
20 110 19 0 20 -7 20 -110z m-2640 28 c8 -38 17 -68 20 -68 4 0 14 32 24 70
14 55 22 70 37 70 18 0 29 -25 45 -108 4 -18 10 -32 14 -32 4 0 13 30 21 68
12 56 18 68 36 70 l22 3 -28 -103 c-23 -86 -30 -103 -48 -106 -18 -3 -23 6
-39 67 -10 38 -21 68 -24 66 -4 -2 -15 -34 -25 -70 -15 -57 -20 -66 -38 -63
-18 2 -26 20 -48 106 l-28 103 22 -3 c18 -2 24 -14 37 -70z m2291 43 c23 -23
29 -38 29 -71 0 -81 -30 -109 -117 -110 l-63 0 0 105 0 105 61 0 c54 0 64 -3
90 -29z m-461 -1 c0 -11 7 -20 15 -20 8 0 15 -7 15 -15 0 -8 -7 -15 -15 -15
-11 0 -15 -12 -15 -50 0 -38 4 -50 15 -50 8 0 15 -7 15 -16 0 -11 -8 -14 -32
-12 -33 3 -33 3 -36 66 -2 46 -7 62 -17 62 -8 0 -15 7 -15 15 0 8 7 15 15 15
8 0 15 9 15 20 0 13 7 20 20 20 13 0 20 -7 20 -20z m2566 -8 c17 -12 64 -85
64 -101 0 -8 -8 -23 -17 -33 -16 -18 -15 -21 30 -65 45 -46 47 -46 66 -29 26
23 54 16 104 -24 45 -38 47 -60 5 -95 -26 -22 -39 -26 -73 -23 -62 7 -114 36
-175 98 -97 96 -124 190 -74 249 25 30 48 38 70 23z m-4046 -32 c11 -11 20
-31 20 -45 0 -24 -3 -25 -55 -25 -30 0 -55 -4 -55 -9 0 -19 33 -42 49 -35 9 3
26 9 39 11 36 8 17 -24 -23 -37 -83 -27 -139 75 -78 143 22 23 78 22 103 -3z
m164 1 c19 -21 9 -35 -14 -20 -23 14 -60 11 -60 -5 0 -8 19 -20 43 -28 37 -11
42 -17 42 -43 0 -23 -7 -33 -28 -43 -35 -17 -84 -7 -98 20 -10 19 -9 20 17 14
51 -12 69 -12 69 3 0 8 -13 19 -30 24 -42 14 -55 26 -55 53 0 43 81 61 114 25z
m246 -1 c11 -11 20 -31 20 -45 0 -24 -3 -25 -55 -25 -30 0 -55 -4 -55 -9 0
-19 33 -42 49 -35 9 3 26 9 39 11 36 8 17 -24 -23 -37 -79 -26 -138 66 -84
134 26 33 79 36 109 6z m98 -42 l19 -63 18 63 c14 47 23 62 37 62 23 0 23 -2
-6 -87 -39 -114 -52 -133 -93 -133 -28 0 -30 26 -3 33 26 7 25 21 -5 105 -30
83 -30 82 -6 82 15 0 24 -14 39 -62z m532 -18 c0 -73 -2 -80 -20 -80 -18 0
-20 7 -20 80 0 73 2 80 20 80 18 0 20 -7 20 -80z m152 63 c8 -10 18 -30 22
-45 6 -28 6 -28 -49 -28 -40 0 -55 -4 -55 -14 0 -26 24 -36 58 -24 37 14 52 4
29 -19 -23 -23 -83 -22 -106 3 -31 31 -31 94 -1 124 25 25 81 27 102 3z m98 5
c0 -9 3 -9 12 0 7 7 24 12 38 12 40 0 50 -18 50 -92 0 -61 -2 -68 -20 -68 -16
0 -19 8 -22 62 -2 52 -6 63 -22 66 -26 5 -36 -15 -36 -75 0 -46 -3 -53 -20
-53 -18 0 -20 7 -20 80 0 73 2 80 20 80 11 0 20 -5 20 -12z m370 -8 c11 -11
20 -31 20 -45 0 -24 -3 -25 -55 -25 -30 0 -55 -4 -55 -9 0 -19 33 -42 49 -35
9 3 26 9 39 11 36 8 26 -16 -14 -33 -29 -12 -42 -13 -64 -4 -51 21 -63 98 -23
143 22 23 78 22 103 -3z m383 -30 c13 -66 22 -67 36 -5 10 43 17 55 31 55 14
0 22 -11 30 -42 17 -66 22 -77 27 -53 15 69 25 95 38 95 19 0 18 -19 -3 -95
-14 -48 -22 -61 -39 -63 -18 -3 -24 4 -32 35 -6 21 -11 44 -11 51 0 6 -4 12
-10 12 -5 0 -10 -6 -10 -12 0 -7 -5 -30 -11 -51 -8 -31 -14 -38 -31 -35 -17 2
-25 17 -39 68 -23 82 -23 92 -2 88 12 -2 20 -18 26 -48z m407 30 c26 -26 27
-89 1 -121 -13 -16 -29 -23 -54 -23 -52 0 -77 27 -77 81 0 54 26 83 75 83 22
0 43 -8 55 -20z m150 10 c9 -6 17 -5 21 2 4 6 14 8 23 5 13 -5 15 -21 13 -93
-2 -77 -5 -88 -26 -105 -38 -31 -121 -20 -121 16 0 17 26 20 35 5 9 -14 48
-13 63 2 19 19 15 42 -5 32 -53 -22 -103 12 -103 70 0 61 53 96 100 66z
m-4750 -17 c0 -10 -32 -50 -72 -90 l-72 -72 72 -66 c68 -63 86 -95 62 -110
-12 -7 -183 150 -188 173 -5 19 157 182 180 182 10 0 18 -7 18 -17z m5479 -9
c12 -15 21 -35 21 -45 0 -26 12 -24 40 6 16 17 33 25 50 23 l25 -3 0 -115 0
-115 -25 -3 c-17 -2 -34 6 -50 23 -28 30 -40 32 -40 6 0 -10 -9 -30 -21 -45
-20 -26 -22 -26 -155 -26 -130 0 -136 1 -159 25 -24 23 -25 31 -25 133 0 95 3
113 21 136 20 26 21 26 159 26 138 0 139 0 159 -26z m-5175 -152 c1 -99 -1
-112 -16 -112 -14 0 -17 12 -17 88 0 48 0 91 0 95 -1 5 -11 1 -23 -7 -26 -18
-38 -20 -38 -6 0 12 72 61 84 57 5 -2 9 -53 10 -115z m175 101 c43 -35 47
-144 9 -196 -21 -28 -72 -33 -96 -9 -67 67 -37 222 43 222 13 0 33 -8 44 -17z
m691 -123 c0 -5 -6 -10 -14 -10 -8 0 -18 5 -21 10 -3 6 3 10 14 10 12 0 21 -4
21 -10z m857 -182 c-2 -24 -4 -5 -4 42 0 47 2 66 4 43 2 -24 2 -62 0 -85z m63
112 c0 -5 -4 -10 -10 -10 -5 0 -10 5 -10 10 0 6 5 10 10 10 6 0 10 -4 10 -10z
m-246 -72 c14 -41 -6 -78 -43 -78 -34 0 -53 20 -53 55 0 37 20 56 56 53 23 -2
33 -10 40 -30z m121 22 c9 -15 13 -100 4 -100 -4 0 -9 21 -11 48 -3 43 -5 47
-28 47 -23 0 -25 -4 -28 -47 -4 -65 -22 -61 -22 5 l0 54 39 1 c22 1 43 -3 46
-8z m125 -45 c0 -30 -4 -55 -10 -55 -5 0 -10 25 -10 55 0 30 5 55 10 55 6 0
10 -25 10 -55z m50 -10 l-7 -50 -2 60 c0 34 3 55 8 50 4 -6 5 -32 1 -60z m76
5 c1 -30 0 -41 -2 -25 -9 61 -14 74 -37 78 -15 4 -12 5 8 4 29 -2 30 -3 31
-57z m133 38 c12 -32 6 -38 -40 -38 -42 0 -49 -14 -16 -34 12 -8 23 -7 38 2
18 11 20 11 17 0 -6 -17 -55 -23 -74 -7 -17 14 -19 70 -2 87 21 21 68 15 77
-10z m-1363 -78 c7 -33 7 -33 -15 -18 -41 29 -53 53 -39 83 l12 26 18 -29 c10
-16 21 -44 24 -62z m298 40 c5 -32 5 -34 -9 -16 -8 11 -15 31 -15 45 0 34 16
15 24 -29z m4628 -3981 c29 -38 35 -105 13 -129 -21 -23 -93 -28 -113 -8 -15
15 -16 82 -1 111 32 62 68 71 101 26z m-5453 -1885 c39 -32 42 -80 9 -111 -34
-30 -55 -34 -94 -18 -64 27 -71 96 -12 134 43 27 60 26 97 -5z m1371 -643 c0
-11 -29 -35 -35 -29 -10 9 7 38 21 38 8 0 14 -4 14 -9z m3090 -90 l0 -99 -27
-1 c-16 0 -36 -1 -46 -1 -65 -4 -74 120 -11 136 15 4 35 2 46 -5 16 -10 18 -8
18 22 0 30 6 47 17 47 2 0 3 -45 3 -99z m320 78 c0 -5 -7 -9 -15 -9 -15 0 -20
12 -9 23 8 8 24 -1 24 -14z m-3627 -9 c36 -29 44 -79 21 -127 -55 -109 -198
-23 -150 91 24 58 81 74 129 36z m87 -75 c0 -74 -3 -95 -14 -95 -11 0 -13 19
-11 88 3 104 2 102 15 102 6 0 10 -38 10 -95z m359 58 c6 -21 14 -56 19 -78 9
-44 8 -46 37 58 10 34 22 56 28 54 7 -2 21 -37 33 -78 l21 -73 17 72 c17 65
30 91 42 80 3 -4 -19 -93 -42 -170 -11 -37 -31 -16 -49 48 -10 36 -21 62 -25
57 -4 -4 -15 -34 -24 -65 -9 -33 -22 -58 -30 -58 -12 0 -57 142 -56 178 0 27
20 10 29 -25z m521 -58 c0 -57 -4 -95 -10 -95 -6 0 -10 38 -10 95 0 57 4 95
10 95 6 0 10 -38 10 -95z m366 27 c1 -47 -2 -62 -12 -62 -11 0 -14 17 -14 66
0 48 3 65 13 61 7 -2 12 -26 13 -65z m254 53 c0 -10 -10 -15 -30 -15 l-30 0 0
-80 c0 -64 -3 -80 -15 -80 -12 0 -15 16 -15 80 0 78 -1 80 -24 80 -26 0 -40
12 -29 24 3 3 37 6 75 6 54 0 68 -3 68 -15z m280 -81 c0 -83 -2 -95 -16 -90
-8 3 -23 2 -32 -3 -25 -13 -61 5 -72 35 -24 62 32 126 82 95 16 -10 18 -8 18
24 0 19 5 35 10 35 6 0 10 -39 10 -96z m290 61 c0 -32 2 -34 18 -24 11 7 31 9
45 5 32 -8 51 -63 37 -102 -11 -29 -48 -45 -72 -33 -9 5 -24 6 -32 3 -14 -5
-16 7 -16 90 0 57 4 96 10 96 6 0 10 -16 10 -35z m591 25 c11 -6 19 -21 19
-36 0 -27 -49 -96 -62 -88 -14 9 -9 23 18 48 17 15 25 30 21 40 -8 20 -35 21
-58 0 -25 -23 -34 1 -9 26 22 22 42 25 71 10z m223 -2 c69 -31 32 -118 -49
-118 -21 0 -25 -5 -25 -30 0 -16 -4 -30 -10 -30 -6 0 -10 38 -10 95 l0 95 35
0 c19 0 45 -5 59 -12z m-2746 -50 c7 -7 12 -38 12 -71 0 -51 -2 -58 -17 -53
-10 3 -24 2 -32 -3 -19 -12 -50 -2 -62 20 -12 24 20 59 56 59 15 0 25 6 25 14
0 23 -20 30 -46 15 -30 -16 -46 -2 -20 17 24 17 68 18 84 2z m534 -5 c10 -9
18 -27 18 -40 0 -21 -4 -23 -50 -23 -48 0 -50 -1 -40 -20 12 -22 49 -27 67 -9
7 7 13 7 17 1 9 -15 -22 -35 -56 -35 -37 0 -58 24 -58 68 0 64 58 98 102 58z
m138 2 c17 -21 7 -29 -18 -14 -22 14 -56 5 -50 -12 2 -7 19 -17 38 -23 36 -11
53 -47 32 -68 -24 -24 -112 -2 -96 24 3 5 11 4 19 -2 17 -14 57 -10 62 6 2 7
-9 15 -24 19 -50 12 -69 45 -41 73 17 17 63 15 78 -3z m214 -7 c30 -43 21 -58
-34 -58 -52 0 -61 -8 -34 -31 12 -10 22 -10 44 -2 33 12 45 6 29 -14 -15 -18
-83 -17 -99 2 -19 23 -16 81 5 105 24 27 70 26 89 -2z m72 -33 c10 -30 20 -52
24 -50 4 3 13 25 20 50 12 43 26 63 36 52 3 -3 -10 -45 -28 -93 -27 -72 -37
-90 -55 -92 -26 -4 -31 13 -8 22 20 7 19 31 -5 94 -22 58 -24 72 -11 72 6 0
18 -25 27 -55z m436 -2 c3 -57 3 -58 33 -58 30 0 30 1 33 58 4 81 22 71 22
-12 0 -60 -2 -70 -17 -69 -10 1 -28 -2 -39 -6 -36 -11 -54 17 -54 85 0 76 18
77 22 2z m388 37 c26 -26 26 -81 0 -105 -27 -24 -70 -22 -92 5 -38 47 -9 120
47 120 14 0 34 -9 45 -20z m384 -2 c30 -43 21 -58 -34 -58 -48 0 -50 -1 -40
-20 11 -21 54 -28 65 -10 4 6 11 8 16 4 20 -12 -14 -34 -52 -34 -44 0 -59 18
-59 74 0 60 72 90 104 44z m76 12 c0 -6 8 -5 20 2 16 10 24 10 41 0 15 -10 24
-11 32 -3 18 18 55 13 67 -8 5 -11 10 -42 10 -70 0 -39 -4 -51 -15 -51 -12 0
-15 13 -15 55 0 42 -4 57 -16 62 -25 9 -44 -24 -44 -74 0 -24 -4 -43 -10 -43
-5 0 -10 25 -10 55 0 40 -4 57 -15 61 -27 11 -45 -16 -45 -67 0 -35 -4 -49
-14 -49 -10 0 -14 16 -14 63 0 34 2 65 5 70 6 10 23 9 23 -3z m672 -7 c18 -16
25 -77 10 -99 -26 -39 -90 -36 -112 7 -15 27 -4 85 18 98 26 16 63 13 84 -6z
m310 0 c10 -9 18 -27 18 -40 0 -21 -4 -23 -50 -23 -48 0 -50 -1 -40 -20 11
-21 54 -28 65 -10 4 6 11 8 16 4 19 -11 -13 -34 -47 -34 -41 0 -64 22 -64 63
0 66 58 100 102 60z m124 6 c3 -5 -2 -9 -10 -9 -28 0 -43 -27 -41 -74 1 -32
-3 -46 -12 -46 -9 0 -13 18 -13 68 l0 68 35 1 c19 1 38 -3 41 -8z m52 -62 c2
-55 0 -67 -13 -67 -12 0 -15 14 -15 71 0 52 3 70 13 67 7 -3 13 -29 15 -71z
m130 61 c7 -7 12 -37 12 -68 l0 -57 -52 1 c-48 1 -53 3 -56 25 -5 30 20 51 60
51 31 0 36 11 13 30 -13 11 -20 11 -40 0 -31 -16 -42 -8 -20 14 19 19 66 21
83 4z m210 0 c9 -8 16 -8 24 0 15 15 51 15 66 0 14 -14 16 -128 2 -128 -5 0
-10 22 -10 49 0 51 -18 78 -45 67 -11 -4 -15 -21 -15 -61 0 -42 -3 -55 -15
-55 -12 0 -15 13 -15 55 0 42 -4 57 -16 62 -25 9 -44 -24 -44 -74 0 -24 -4
-43 -10 -43 -6 0 -10 29 -10 68 l0 68 38 1 c20 1 43 -4 50 -9z m234 -5 c10 -9
18 -27 18 -40 0 -21 -4 -23 -46 -23 -38 0 -45 -3 -42 -17 4 -21 43 -29 63 -13
8 6 16 7 19 2 9 -14 -21 -34 -49 -34 -37 0 -65 29 -65 69 0 60 60 94 102 56z
m-3907 -137 c-8 -39 -25 -49 -25 -15 0 23 19 63 26 56 3 -3 2 -21 -1 -41z
m1045 29 c0 -8 -7 -15 -15 -15 -8 0 -15 7 -15 15 0 8 7 15 15 15 8 0 15 -7 15
-15z m1390 0 c0 -8 -7 -15 -15 -15 -8 0 -15 7 -15 15 0 8 7 15 15 15 8 0 15
-7 15 -15z m970 -185 c5 9 9 9 14 1 13 -20 -4 -30 -44 -28 -24 1 -40 6 -40 13
0 17 22 23 44 12 13 -7 21 -6 26 2z m-3670 -16 c0 -8 -4 -12 -10 -9 -5 3 -10
10 -10 16 0 5 5 9 10 9 6 0 10 -7 10 -16z m310 -78 c0 -83 -2 -95 -17 -95 -10
0 -31 -1 -46 -2 -50 -3 -73 45 -53 109 9 26 52 40 78 23 16 -10 18 -8 18 24 0
19 5 35 10 35 6 0 10 -38 10 -94z m1580 -2 c0 -83 -2 -95 -16 -90 -8 3 -23 2
-33 -3 -25 -14 -62 8 -74 42 -19 59 37 118 85 88 16 -10 18 -8 18 24 0 19 5
35 10 35 6 0 10 -39 10 -96z m1310 1 c0 -78 -3 -95 -15 -95 -12 0 -15 17 -15
95 0 78 3 95 15 95 12 0 15 -17 15 -95z m58 84 c-2 -6 -8 -10 -13 -10 -5 0
-11 4 -13 10 -2 6 4 11 13 11 9 0 15 -5 13 -11z m1012 -24 c0 -32 2 -34 18
-24 47 29 101 -25 86 -85 -9 -37 -46 -61 -73 -47 -11 6 -27 8 -35 5 -14 -5
-16 7 -16 90 0 57 4 96 10 96 6 0 10 -16 10 -35z m-4335 -39 c10 -15 15 -40
13 -67 -3 -37 -7 -44 -25 -45 -12 -1 -28 -4 -36 -7 -20 -8 -57 20 -57 43 0 23
28 40 64 40 17 0 26 6 26 15 0 22 -29 30 -52 16 -25 -15 -35 -7 -18 14 20 24
67 19 85 -9z m65 -65 c0 -82 -2 -90 -21 -96 -27 -9 -39 4 -16 16 14 8 17 24
17 89 0 47 4 80 10 80 6 0 10 -36 10 -89z m60 42 c0 -59 10 -76 41 -71 22 3
24 9 27 61 5 94 29 65 28 -34 -1 -38 -4 -44 -23 -45 -12 -1 -28 -4 -36 -7 -8
-3 -24 1 -36 9 -17 13 -21 25 -21 75 0 33 4 59 10 59 6 0 10 -21 10 -47z m388
35 c17 -17 16 -131 0 -125 -7 2 -22 1 -33 -3 -32 -12 -65 6 -65 34 0 28 25 46
64 46 17 0 26 6 26 15 0 22 -29 30 -52 16 -25 -15 -35 -7 -18 14 15 18 61 20
78 3z m122 4 c0 -4 -10 -12 -22 -17 -19 -8 -24 -19 -26 -62 -2 -39 -7 -53 -18
-53 -12 0 -15 13 -13 63 1 34 3 65 5 68 5 9 74 10 74 1z m192 -9 c10 -9 18
-27 18 -40 0 -21 -4 -23 -50 -23 -48 0 -50 -1 -39 -21 9 -18 17 -20 52 -15 39
6 41 6 25 -10 -38 -39 -108 -7 -108 50 0 65 58 99 102 59z m144 3 c24 -18 13
-31 -14 -15 -22 14 -56 5 -50 -12 2 -7 19 -17 38 -23 27 -8 36 -17 38 -37 3
-21 -2 -29 -25 -36 -39 -14 -103 13 -74 31 5 4 12 2 16 -4 8 -13 52 -13 60 0
4 6 -11 18 -34 27 -47 18 -58 39 -35 64 20 23 53 24 80 5z m142 2 c7 -7 12
-19 12 -27 0 -12 -3 -11 -18 2 -45 41 -90 -5 -66 -67 7 -19 45 -21 62 -4 6 6
15 8 19 4 5 -4 -3 -16 -16 -27 -27 -22 -57 -18 -83 13 -24 27 -23 59 3 92 22
28 66 35 87 14z m122 4 c0 -4 -10 -12 -22 -17 -19 -8 -24 -19 -26 -62 -2 -38
-7 -53 -18 -53 -11 0 -14 15 -14 63 0 35 2 66 5 69 8 8 75 8 75 0z m113 -4 c9
-7 19 -25 23 -40 6 -28 6 -28 -45 -28 -28 0 -51 -2 -51 -4 0 -33 34 -45 71
-26 14 8 19 7 19 -3 0 -8 -11 -19 -25 -25 -33 -15 -72 0 -85 33 -14 37 -13 49
11 79 22 28 55 34 82 14z m85 -45 l19 -58 17 52 c16 49 31 71 42 61 9 -9 -44
-133 -58 -136 -10 -2 -22 17 -36 56 -24 65 -27 82 -13 82 5 0 18 -26 29 -57z
m204 40 c10 -9 18 -27 18 -40 0 -21 -4 -23 -50 -23 -51 0 -60 -6 -38 -28 15
-15 51 -15 66 0 14 14 27 4 17 -12 -13 -21 -55 -31 -78 -19 -30 16 -37 28 -37
71 0 58 60 89 102 51z m68 6 c0 -8 4 -8 14 1 22 18 59 8 73 -20 18 -36 17
-110 -2 -110 -10 0 -15 15 -17 57 -2 44 -7 59 -19 61 -28 5 -49 -26 -49 -74 0
-24 -4 -44 -10 -44 -6 0 -10 30 -10 70 0 40 4 70 10 70 6 0 10 -5 10 -11z
m393 -2 c27 -19 33 -78 10 -104 -28 -32 -56 -36 -86 -12 -69 54 6 168 76 116z
m155 -51 c3 -56 4 -57 30 -54 25 3 27 6 30 61 4 83 26 70 30 -18 3 -62 1 -67
-16 -63 -11 3 -27 1 -36 -4 -12 -7 -24 -5 -42 6 -21 15 -24 24 -24 77 0 81 24
77 28 -5z m152 54 c0 -6 8 -5 20 2 15 10 24 10 38 1 12 -7 24 -8 36 -1 26 14
63 2 70 -24 12 -46 7 -108 -9 -108 -12 0 -15 13 -15 55 0 40 -4 57 -15 61 -27
11 -45 -16 -45 -67 0 -27 -4 -49 -10 -49 -5 0 -10 22 -10 49 0 56 -19 82 -45
61 -10 -8 -15 -30 -15 -61 0 -37 -4 -49 -15 -49 -12 0 -15 14 -15 70 0 56 3
70 15 70 8 0 15 -5 15 -10z m294 -6 c11 -10 16 -34 16 -68 l0 -53 -50 -2 c-40
0 -52 3 -61 20 -14 28 13 59 53 59 18 0 28 5 28 14 0 23 -20 30 -46 15 -30
-16 -46 -2 -20 17 26 18 61 18 80 -2z m214 4 c17 -17 16 -131 0 -125 -7 2 -22
1 -33 -3 -32 -12 -65 6 -65 34 0 28 25 46 64 46 17 0 26 6 26 15 0 22 -29 30
-52 16 -25 -15 -35 -7 -18 14 15 18 61 20 78 3z m78 -43 c19 -59 28 -63 38
-12 7 36 31 76 40 66 10 -10 -41 -134 -56 -137 -10 -2 -22 17 -36 56 -24 65
-27 82 -13 82 6 0 18 -25 27 -55z m194 40 c7 -8 13 -39 14 -68 1 -46 -1 -52
-20 -53 -12 -1 -27 -4 -33 -8 -17 -11 -61 21 -61 44 0 23 28 40 64 40 17 0 26
6 26 15 0 22 -29 30 -52 16 -25 -15 -35 -7 -18 14 16 19 64 19 80 0z m140 -55
c0 -40 -4 -70 -10 -70 -6 0 -10 30 -10 70 0 40 4 70 10 70 6 0 10 -30 10 -70z
m134 48 c9 -13 16 -43 16 -70 0 -43 -2 -48 -22 -48 -13 0 -34 0 -47 -1 -33 0
-55 23 -46 50 4 15 18 23 46 27 24 4 39 12 39 21 0 20 -25 26 -50 13 -26 -14
-37 -6 -20 15 19 23 66 19 84 -7z m151 2 c23 -26 11 -39 -14 -16 -39 35 -81
-7 -61 -60 10 -26 47 -33 68 -12 6 6 15 8 19 4 5 -4 -5 -19 -22 -32 -16 -13
-24 -24 -17 -24 18 0 15 -37 -4 -44 -23 -9 -34 -7 -34 4 0 6 7 10 15 10 8 0
15 5 15 10 0 6 -4 10 -10 10 -5 0 -10 7 -10 15 0 8 -4 15 -9 15 -42 0 -57 98
-19 124 31 22 61 20 83 -4z m139 4 c11 -10 16 -34 16 -71 0 -49 -2 -55 -19
-50 -10 2 -26 0 -35 -5 -20 -11 -66 14 -66 37 0 23 30 45 61 45 19 0 29 5 29
15 0 22 -24 29 -50 15 -28 -15 -41 -3 -16 16 26 18 61 18 80 -2z m150 -6 c17
-23 21 -75 8 -94 -41 -61 -137 -13 -118 60 14 57 80 77 110 34z m207 12 c23
-13 25 -30 4 -30 -8 0 -15 5 -15 11 0 6 -10 9 -22 7 -35 -5 -27 -30 12 -43 44
-15 52 -47 17 -69 -19 -13 -30 -14 -55 -5 -45 15 -40 31 7 23 54 -9 63 12 14
32 -54 23 -64 41 -37 68 18 18 47 20 75 6z m159 -10 c38 -38 17 -109 -36 -124
-32 -10 -74 28 -74 68 0 68 65 101 110 56z m280 11 c0 -4 -11 -13 -25 -19 -22
-10 -25 -18 -25 -62 0 -38 -4 -50 -15 -50 -12 0 -15 14 -15 63 0 35 2 66 5 69
9 8 75 8 75 -1z m113 -3 c9 -7 19 -25 23 -40 6 -28 6 -28 -45 -28 -28 0 -51
-2 -51 -4 0 -34 34 -45 72 -25 17 9 19 8 16 -7 -4 -21 -46 -34 -76 -23 -44 17
-53 86 -16 123 19 19 54 21 77 4z m229 -5 c22 -19 24 -81 4 -108 -17 -23 -71
-24 -93 -2 -23 22 -22 81 2 107 22 24 62 26 87 3z m-2327 -313 c-5 -8 -11 -8
-17 -2 -6 6 -7 16 -3 22 5 8 11 8 17 2 6 -6 7 -16 3 -22z m900 0 c-5 -8 -11
-8 -17 -2 -6 6 -7 16 -3 22 5 8 11 8 17 2 6 -6 7 -16 3 -22z m130 0 c-5 -8
-11 -8 -17 -2 -6 6 -7 16 -3 22 5 8 11 8 17 2 6 -6 7 -16 3 -22z m265 22 c0
-5 -9 -17 -20 -27 -16 -14 -20 -15 -20 -4 0 16 19 39 32 39 4 0 8 -4 8 -8z
m-2990 -37 c0 -33 1 -34 20 -23 17 11 25 10 48 -2 37 -21 44 -88 12 -120 -11
-11 -25 -18 -31 -14 -6 3 -26 6 -45 6 l-34 0 0 94 c0 77 3 94 15 94 10 0 15
-11 15 -35z m300 -60 c0 -57 -4 -95 -10 -95 -6 0 -10 38 -10 95 0 57 4 95 10
95 6 0 10 -38 10 -95z m65 66 c-2 -28 0 -29 30 -24 26 4 36 1 49 -18 21 -31
22 -119 1 -119 -10 0 -15 15 -17 57 -2 42 -7 59 -18 60 -31 6 -44 -15 -43 -66
0 -37 -3 -51 -13 -51 -11 0 -14 21 -14 95 0 73 3 95 13 95 9 0 13 -11 12 -29z
m349 19 c19 -7 26 -17 26 -35 0 -28 -49 -97 -62 -89 -14 9 -9 23 18 48 17 15
25 30 21 40 -8 20 -35 21 -58 0 -25 -23 -34 1 -9 26 23 23 29 24 64 10z m270
-11 c14 -11 26 -25 26 -30 0 -14 -21 -11 -34 5 -37 47 -101 14 -101 -52 0 -22
7 -47 14 -56 17 -20 65 -21 85 0 23 22 20 34 -8 34 -14 0 -28 5 -31 10 -4 6
10 10 34 10 39 0 41 -2 41 -29 0 -33 -39 -71 -72 -71 -27 0 -74 26 -82 45 -3
9 -6 37 -6 61 0 81 73 121 134 73z m1086 -73 l0 -94 -27 -1 c-16 0 -36 -1 -46
-1 -65 -4 -74 120 -11 136 15 4 35 2 46 -5 16 -10 18 -8 18 24 0 19 5 35 10
35 6 0 10 -38 10 -94z m590 -1 c0 -57 -4 -95 -10 -95 -6 0 -10 38 -10 95 0 57
4 95 10 95 6 0 10 -38 10 -95z m533 8 c-1 -49 -2 -91 -3 -95 0 -5 -4 -8 -10
-8 -6 0 -10 38 -10 95 0 69 3 95 13 95 9 0 11 -23 10 -87z m-1823 51 c0 -8 7
-14 15 -14 8 0 15 -4 15 -10 0 -5 -7 -10 -15 -10 -11 0 -15 -12 -15 -50 0 -38
4 -50 15 -50 8 0 15 -5 15 -11 0 -6 -10 -9 -22 -7 -20 3 -23 10 -26 53 -2 31
-9 55 -19 62 -15 11 -15 13 0 19 10 3 17 15 17 26 0 10 5 16 10 13 6 -3 10
-13 10 -21z m-1700 1 c0 -8 7 -15 15 -15 8 0 15 -4 15 -10 0 -5 -7 -10 -15
-10 -11 0 -15 -12 -15 -45 0 -31 5 -47 15 -51 23 -9 18 -26 -7 -22 -20 3 -23
10 -26 61 -2 46 -6 57 -20 57 -16 1 -16 2 1 14 9 7 17 18 17 25 0 6 5 11 10
11 6 0 10 -7 10 -15z m2847 1 c-4 -9 3 -17 16 -21 l22 -6 -22 -9 c-18 -7 -23
-17 -23 -48 0 -30 6 -44 23 -56 l22 -16 -30 2 c-29 3 -30 5 -33 58 -2 30 -9
58 -15 63 -9 7 -9 10 1 14 6 2 12 11 12 19 0 8 7 14 16 14 10 0 14 -6 11 -14z
m-3457 -26 c0 -6 8 -5 20 2 16 10 24 10 41 0 15 -10 24 -11 32 -3 15 15 50 14
65 -1 14 -14 16 -128 2 -128 -5 0 -10 19 -10 43 0 50 -19 83 -44 74 -12 -5
-16 -20 -16 -62 0 -42 -3 -55 -15 -55 -12 0 -15 13 -15 55 0 42 -4 57 -16 62
-25 9 -44 -24 -44 -74 0 -24 -4 -43 -10 -43 -6 0 -10 30 -10 70 0 40 4 70 10
70 6 0 10 -5 10 -10z m302 -7 c10 -9 18 -27 18 -40 0 -21 -4 -23 -46 -23 -38
0 -45 -3 -42 -17 4 -21 43 -29 63 -13 8 6 16 7 19 2 14 -23 -47 -46 -77 -30
-30 15 -37 27 -37 66 0 59 61 93 102 55z m68 -30 c0 -59 10 -76 41 -71 22 3
24 8 27 61 4 83 26 71 30 -16 3 -74 11 -67 -72 -68 -16 -1 -32 5 -37 13 -12
18 -11 128 1 128 6 0 10 -21 10 -47z m370 38 c0 -4 -11 -13 -25 -19 -22 -10
-25 -18 -25 -62 0 -27 -4 -50 -10 -50 -6 0 -10 29 -10 68 l0 68 35 1 c19 1 35
-2 35 -6z m118 -4 c6 -7 13 -39 15 -70 5 -62 11 -57 -61 -58 -30 0 -52 18 -52
42 0 22 28 39 64 39 17 0 26 6 26 15 0 22 -29 30 -52 16 -25 -15 -35 -7 -18
14 15 18 64 20 78 2z m306 -3 c11 -10 16 -34 16 -70 0 -49 -2 -54 -22 -54 -13
0 -33 -1 -46 -1 -27 0 -52 17 -52 37 0 18 40 44 67 44 14 0 23 6 23 15 0 22
-24 29 -50 15 -28 -15 -41 -3 -16 16 26 18 61 18 80 -2z m368 -1 c22 -19 24
-81 4 -108 -17 -23 -71 -24 -93 -2 -23 22 -22 81 2 107 22 24 62 26 87 3z
m558 -3 c30 -30 27 -83 -7 -109 -44 -35 -103 -3 -103 56 0 40 30 73 65 73 14
0 34 -9 45 -20z m136 6 c24 -18 13 -31 -14 -15 -22 14 -56 5 -50 -12 2 -7 19
-17 38 -23 27 -9 36 -17 38 -38 3 -22 -2 -30 -22 -38 -38 -14 -106 17 -77 34
5 4 12 2 16 -4 8 -13 52 -13 60 0 4 6 -11 18 -34 27 -30 12 -41 22 -41 38 0
42 46 59 86 31z m232 2 c17 -17 16 -131 0 -125 -7 2 -21 0 -30 -4 -28 -15 -68
7 -68 35 0 28 25 46 64 46 17 0 26 6 26 15 0 22 -29 30 -52 16 -25 -15 -35 -7
-18 14 15 18 61 20 78 3z m132 3 c0 -5 -11 -12 -25 -15 -23 -6 -25 -11 -25
-61 0 -42 -3 -55 -15 -55 -12 0 -15 14 -15 68 l0 68 40 1 c22 1 40 -2 40 -6z
m50 -61 c0 -56 -3 -70 -15 -70 -12 0 -15 14 -15 70 0 56 3 70 15 70 12 0 15
-14 15 -70z m128 58 c17 -17 16 -131 0 -125 -7 2 -22 1 -33 -3 -32 -12 -65 6
-65 34 0 28 25 46 64 46 29 0 33 12 11 30 -13 11 -20 11 -40 0 -31 -16 -42 -8
-20 14 19 19 66 21 83 4z m368 4 c13 -8 34 -46 34 -61 0 -6 -21 -11 -50 -11
-38 0 -50 -4 -50 -15 0 -22 28 -30 61 -18 30 12 39 3 17 -15 -31 -24 -57 -23
-84 3 -22 22 -25 32 -20 63 8 52 55 79 92 54z m156 -49 c3 -52 5 -58 27 -61
31 -5 41 12 41 71 0 26 5 47 10 47 6 0 10 -30 10 -71 0 -52 -3 -70 -12 -66 -7
2 -22 1 -33 -3 -11 -4 -30 -4 -42 1 -21 7 -23 15 -23 74 0 80 18 87 22 8z
m248 -13 c0 -49 -4 -70 -12 -70 -9 0 -12 19 -11 67 1 38 2 69 3 71 0 1 5 2 10
2 6 0 10 -30 10 -70z m128 -3 c2 -55 0 -67 -13 -67 -12 0 -15 14 -15 71 0 52
3 70 13 67 7 -3 13 -29 15 -71z m142 62 c0 -6 -16 -30 -35 -53 -19 -24 -35
-46 -35 -50 0 -3 16 -6 35 -6 19 0 35 -4 35 -10 0 -5 -25 -10 -55 -10 -30 0
-55 3 -55 6 0 3 18 29 40 57 l39 52 -39 3 c-60 5 -48 22 15 22 33 0 55 -4 55
-11z m128 -1 c7 -7 12 -38 12 -69 0 -55 -1 -57 -27 -58 -16 0 -37 -1 -48 -1
-52 -2 -49 64 3 76 55 12 57 13 39 31 -14 15 -20 15 -42 3 -31 -16 -47 -4 -21
16 24 17 68 18 84 2z m326 -4 c11 -10 16 -34 16 -70 0 -48 -2 -55 -17 -50 -10
3 -24 2 -32 -3 -19 -12 -50 -2 -63 22 -9 17 -7 24 12 39 12 10 33 18 46 18 14
0 24 6 24 14 0 23 -20 30 -46 15 -30 -16 -46 -2 -20 17 26 18 61 18 80 -2z
m146 4 c0 -9 3 -9 12 0 29 29 84 2 88 -43 5 -45 -1 -65 -24 -80 -18 -12 -30
-13 -50 -6 -24 10 -26 9 -26 -19 0 -17 -4 -30 -9 -30 -9 0 -20 178 -12 186 9
8 21 4 21 -8z m228 0 c17 -17 16 -131 0 -125 -7 2 -21 0 -30 -4 -28 -15 -68 7
-68 35 0 28 25 46 64 46 30 0 33 12 10 31 -12 10 -20 10 -35 1 -30 -19 -44
-14 -24 8 20 22 64 27 83 8z m127 2 c3 -4 -6 -11 -19 -14 -25 -6 -36 -31 -36
-83 0 -18 -4 -33 -10 -33 -6 0 -10 29 -10 68 l0 68 35 1 c19 1 37 -3 40 -7z
m119 -6 c11 -10 16 -34 16 -71 0 -49 -2 -55 -19 -50 -10 2 -26 0 -35 -5 -20
-11 -66 14 -66 37 0 19 39 45 67 45 14 0 23 6 23 15 0 22 -24 29 -50 15 -28
-15 -41 -3 -16 16 26 18 61 18 80 -2z m-809 -54 c-3 -5 -24 -10 -46 -10 -21 0
-39 5 -39 10 0 6 21 10 46 10 27 0 43 -4 39 -10z m-2435 -55 c0 -8 -7 -15 -15
-15 -8 0 -15 7 -15 15 0 8 7 15 15 15 8 0 15 -7 15 -15z m-860 -194 c0 -17 -7
-19 -45 -18 -50 2 -57 22 -7 22 16 0 34 3 38 8 11 11 14 9 14 -12z m2840 0
c-12 -23 -30 -36 -30 -22 0 21 13 41 26 41 11 0 12 -4 4 -19z m-3342 -2 c-2
-6 -8 -10 -13 -10 -5 0 -11 4 -13 10 -2 6 4 11 13 11 9 0 15 -5 13 -11z m67
-24 c-5 -33 -3 -35 14 -25 11 5 27 10 35 10 26 0 56 -38 56 -70 0 -39 -43 -85
-68 -74 -9 4 -27 7 -39 7 -22 -1 -23 2 -23 93 0 76 3 94 15 94 10 0 13 -9 10
-35z m155 20 c0 -8 -4 -15 -10 -15 -5 0 -10 7 -10 15 0 8 5 15 10 15 6 0 10
-7 10 -15z m1698 4 c-2 -6 -8 -10 -13 -10 -5 0 -11 4 -13 10 -2 6 4 11 13 11
9 0 15 -5 13 -11z m515 0 c66 -18 84 -101 34 -156 -16 -18 -31 -23 -74 -23
l-53 0 0 88 c0 49 3 92 7 95 9 10 42 8 86 -4z m497 -83 c0 -84 -2 -95 -17 -94
-10 1 -27 -2 -39 -6 -34 -11 -66 22 -66 68 0 60 55 99 90 64 9 -9 12 -4 12 25
0 20 5 37 10 37 6 0 10 -38 10 -94z m290 79 c0 -8 -4 -15 -10 -15 -5 0 -10 7
-10 15 0 8 5 15 10 15 6 0 10 -7 10 -15z m1000 -79 l0 -95 -32 -1 c-18 0 -42
0 -53 -1 -27 0 -45 28 -45 70 0 57 54 93 88 59 9 -9 12 -4 12 25 0 26 4 37 15
37 12 0 15 -17 15 -94z m-2230 59 c0 -8 7 -15 15 -15 8 0 15 -4 15 -10 0 -5
-7 -10 -15 -10 -23 0 -21 -88 3 -106 15 -12 15 -13 -9 -14 -31 0 -39 15 -39
75 0 25 -5 46 -12 49 -10 5 -10 7 0 12 6 3 12 12 12 20 0 8 7 14 15 14 8 0 15
-7 15 -15z m-2204 -23 c13 -8 34 -46 34 -61 0 -6 -21 -11 -50 -11 -38 0 -50
-4 -50 -15 0 -22 28 -30 61 -18 38 14 41 -8 4 -25 -71 -33 -126 65 -69 122 16
17 51 21 70 8z m83 -19 l13 -28 23 30 c31 38 46 24 16 -15 l-22 -31 21 -28
c24 -34 25 -41 7 -41 -8 0 -19 12 -26 27 l-13 27 -16 -27 c-9 -15 -23 -27 -30
-27 -10 0 -8 10 8 35 l22 35 -21 29 c-25 34 -26 41 -8 41 8 0 19 -12 26 -27z
m131 -43 c0 -40 -4 -70 -10 -70 -6 0 -10 30 -10 70 0 40 4 70 10 70 6 0 10
-30 10 -70z m220 0 c0 -40 -4 -70 -10 -70 -6 0 -10 30 -10 70 0 40 4 70 10 70
6 0 10 -30 10 -70z m144 48 c14 -24 1 -34 -19 -14 -40 40 -82 -8 -59 -68 7
-18 49 -22 59 -6 3 6 10 10 16 10 11 0 13 -30 2 -30 -5 0 -14 -4 -22 -9 -12
-8 -13 -12 -1 -26 11 -14 11 -18 -3 -32 -10 -10 -22 -13 -34 -8 -17 8 -17 8 0
12 19 5 24 23 6 23 -6 0 -9 7 -5 15 3 9 0 15 -8 15 -19 0 -35 22 -42 56 -8 43
28 86 69 82 16 -2 35 -11 41 -20z m134 10 c17 -17 16 -131 0 -125 -7 2 -22 1
-33 -3 -32 -12 -65 6 -65 34 0 28 25 46 64 46 28 0 29 1 20 24 -7 18 -39 22
-49 6 -3 -5 -13 -10 -22 -10 -14 0 -14 3 2 20 20 22 64 27 83 8z m155 -5 c51
-58 0 -149 -68 -123 -66 25 -45 140 25 140 15 0 34 -8 43 -17z m222 1 c21 -21
21 -124 0 -124 -11 0 -15 13 -15 54 0 58 -8 71 -40 61 -17 -5 -20 -15 -20 -61
0 -41 -4 -54 -15 -54 -12 0 -15 14 -15 68 l0 68 45 2 c29 1 49 -4 60 -14z
m153 0 c38 -26 29 -108 -14 -125 -71 -26 -123 70 -68 125 20 20 53 20 82 0z
m217 6 c6 -2 22 0 38 4 43 13 57 -7 57 -75 0 -33 -4 -59 -10 -59 -5 0 -10 22
-10 49 0 56 -19 82 -45 61 -10 -8 -15 -30 -15 -61 0 -37 -4 -49 -15 -49 -11 0
-15 13 -15 54 0 57 -7 70 -34 60 -12 -5 -16 -20 -16 -60 0 -41 -4 -54 -15 -54
-12 0 -15 14 -15 69 l0 69 43 -2 c23 -2 47 -4 52 -6z m221 2 c13 -8 34 -46 34
-61 0 -6 -21 -11 -50 -11 -38 0 -50 -4 -50 -15 0 -22 28 -30 61 -18 38 14 41
-8 4 -25 -71 -33 -126 65 -69 122 16 17 51 21 70 8z m84 -39 c0 -59 10 -76 41
-71 22 3 24 9 27 61 4 81 22 71 22 -12 0 -59 -3 -70 -17 -71 -57 -3 -77 -1
-84 12 -12 18 -11 128 1 128 6 0 10 -21 10 -47z m290 32 c16 -19 5 -34 -12
-17 -17 17 -48 15 -48 -3 0 -8 15 -21 34 -29 39 -16 48 -28 40 -51 -9 -24 -49
-36 -79 -25 -39 15 -30 29 15 23 32 -5 40 -3 40 10 0 10 -12 19 -27 23 -51 12
-69 44 -41 72 17 17 63 15 78 -3z m74 -55 c-1 -38 -6 -66 -13 -68 -7 -2 -11
19 -11 68 0 52 3 71 12 68 9 -3 12 -26 12 -68z m226 50 c11 -11 20 -29 20 -40
0 -17 -7 -20 -50 -20 -51 0 -60 -6 -38 -28 15 -15 50 -16 65 -1 7 7 13 7 17 1
9 -15 -22 -35 -55 -35 -40 0 -63 25 -63 67 0 66 61 99 104 56z m476 12 c13 -8
34 -46 34 -61 0 -6 -21 -11 -51 -11 -43 0 -50 -3 -47 -17 3 -14 13 -18 48 -16
l45 2 -24 -20 c-45 -37 -107 8 -97 71 8 50 55 77 92 52z m154 -7 c17 -21 7
-29 -18 -14 -22 14 -56 5 -50 -13 3 -7 18 -15 34 -20 55 -15 66 -60 18 -79
-30 -11 -74 5 -74 27 0 13 3 14 14 4 17 -14 58 -10 63 6 2 7 -9 15 -24 19 -50
12 -69 45 -41 73 17 17 63 15 78 -3z m302 -2 c10 -9 18 -27 18 -40 0 -21 -4
-23 -46 -23 -38 0 -45 -3 -42 -17 3 -14 13 -18 48 -16 37 2 41 0 29 -11 -44
-42 -109 -12 -109 50 0 61 60 95 102 57z m146 -75 c-3 -88 -4 -93 -25 -96 -26
-4 -31 13 -8 22 12 4 15 24 15 86 0 48 4 80 10 80 7 0 10 -33 8 -92z m136 76
c11 -10 16 -34 16 -70 0 -49 -2 -54 -22 -53 -13 1 -30 -1 -39 -5 -9 -4 -25 1
-39 12 -34 28 -20 60 31 68 24 4 39 12 39 21 0 20 -25 26 -50 13 -28 -15 -41
-3 -16 16 26 18 61 18 80 -2z m290 0 c11 -10 16 -34 16 -70 0 -49 -2 -54 -22
-54 -13 0 -33 -1 -46 -1 -27 0 -52 17 -52 37 0 18 40 44 67 44 14 0 23 6 23
15 0 22 -24 29 -50 15 -28 -15 -41 -3 -16 16 26 18 61 18 80 -2z m127 6 c13
-7 19 -7 19 0 0 5 5 10 10 10 15 0 13 -163 -2 -178 -17 -17 -83 -15 -98 3 -16
19 -5 34 12 17 25 -25 78 -8 78 25 0 11 -5 11 -20 3 -45 -24 -97 25 -85 80 10
44 46 61 86 40z m149 -1 c0 -5 -4 -9 -9 -9 -23 0 -41 -34 -41 -76 0 -24 -4
-44 -10 -44 -6 0 -10 29 -10 68 l0 68 35 1 c19 1 35 -3 35 -8z m124 -11 c9
-13 16 -43 16 -70 0 -43 -2 -48 -22 -47 -13 1 -30 -1 -39 -5 -9 -4 -25 1 -39
12 -34 28 -20 60 31 68 24 4 39 12 39 21 0 20 -30 28 -52 14 -25 -15 -35 -7
-18 14 19 23 66 19 84 -7z m306 2 c11 -11 20 -29 20 -40 0 -17 -7 -20 -50 -20
-51 0 -60 -6 -38 -28 15 -15 50 -16 65 -1 7 7 13 7 17 1 9 -15 -22 -35 -54
-35 -42 0 -60 19 -60 66 0 70 56 101 100 57z m155 0 c23 -26 11 -39 -14 -16
-39 35 -87 -16 -61 -64 12 -22 56 -28 62 -8 2 6 10 9 18 6 11 -3 7 -11 -14
-31 -16 -15 -24 -27 -17 -27 17 0 13 -37 -5 -44 -23 -9 -34 -7 -34 4 0 6 7 10
15 10 8 0 15 5 15 10 0 6 -7 10 -15 10 -9 0 -12 6 -9 15 4 9 0 15 -10 15 -21
0 -36 31 -36 74 0 59 67 88 105 46z m145 0 c20 -20 27 -74 12 -96 -15 -23 -50
-34 -76 -24 -48 18 -59 70 -25 114 25 31 61 34 89 6z m-2422 -108 c2 -7 -3
-12 -12 -12 -9 0 -16 7 -16 16 0 17 22 14 28 -4z m1194 -27 c-11 -38 -31 -45
-25 -8 8 46 13 57 23 47 5 -5 6 -22 2 -39z m-1567 -175 c-5 -8 -11 -8 -17 -2
-6 6 -7 16 -3 22 5 8 11 8 17 2 6 -6 7 -16 3 -22z m-1825 -75 c0 -78 -3 -95
-15 -95 -12 0 -15 17 -15 95 0 78 3 95 15 95 12 0 15 -17 15 -95z m880 0 c0
-105 8 -95 -74 -96 -36 -1 -56 23 -56 66 0 59 54 97 88 63 9 -9 12 -4 12 25 0
26 4 37 15 37 12 0 15 -17 15 -95z m68 84 c-2 -6 -8 -10 -13 -10 -5 0 -11 4
-13 10 -2 6 4 11 13 11 9 0 15 -5 13 -11z m660 0 c-2 -6 -8 -10 -13 -10 -5 0
-11 4 -13 10 -2 6 4 11 13 11 9 0 15 -5 13 -11z m52 -24 c0 -33 1 -34 25 -23
76 35 119 -92 45 -132 -14 -7 -26 -8 -39 0 -11 5 -27 7 -35 4 -14 -5 -16 7
-16 90 0 57 4 96 10 96 6 0 10 -16 10 -35z m230 -60 c0 -57 -4 -95 -10 -95 -6
0 -10 38 -10 95 0 57 4 95 10 95 6 0 10 -38 10 -95z m68 84 c-2 -6 -8 -10 -13
-10 -5 0 -11 4 -13 10 -2 6 4 11 13 11 9 0 15 -5 13 -11z m154 -26 c2 -21 1
-64 0 -95 -3 -45 -7 -56 -20 -56 -10 1 -26 -2 -38 -6 -34 -11 -66 22 -66 68 0
60 55 99 90 64 9 -9 12 -4 12 25 0 48 18 48 22 0z m308 -58 c0 -105 8 -95 -74
-96 -36 -1 -56 23 -56 66 0 59 54 97 88 63 9 -9 12 -4 12 25 0 26 4 37 15 37
12 0 15 -17 15 -95z m220 24 c0 -46 -3 -59 -15 -59 -12 0 -15 13 -15 58 0 32
3 62 6 65 15 15 24 -8 24 -64z m-2950 11 c0 -7 7 -7 21 0 72 39 122 -82 52
-127 -19 -13 -29 -14 -48 -5 -24 11 -25 10 -25 -18 0 -17 -4 -30 -10 -30 -6 0
-10 38 -10 95 0 57 4 95 10 95 6 0 10 -5 10 -10z m232 -7 c10 -9 18 -27 18
-40 0 -21 -4 -23 -46 -23 -38 0 -45 -3 -42 -17 3 -14 13 -18 48 -16 37 2 41 0
29 -11 -44 -42 -109 -12 -109 50 0 61 60 95 102 57z m206 5 c17 -17 16 -131 0
-125 -7 2 -22 1 -33 -3 -32 -12 -65 6 -65 34 0 28 25 46 64 46 30 0 33 12 10
31 -12 10 -20 10 -35 1 -30 -19 -44 -14 -24 8 20 22 64 27 83 8z m208 -2 c24
-18 13 -31 -14 -15 -22 14 -56 5 -50 -13 2 -6 20 -17 39 -23 26 -9 35 -18 37
-38 3 -21 -2 -29 -22 -37 -27 -10 -69 0 -81 19 -8 13 15 14 34 2 16 -10 51 3
51 18 0 5 -12 12 -27 16 -36 9 -53 23 -53 44 0 39 49 54 86 27z m76 -43 c3
-52 5 -58 27 -61 31 -5 41 12 41 71 0 26 5 47 10 47 6 0 10 -30 10 -71 0 -52
-3 -69 -12 -66 -7 2 -21 0 -30 -4 -10 -5 -27 -5 -42 1 -24 9 -26 14 -26 75 0
80 18 87 22 8z m222 41 c11 -10 16 -34 16 -71 0 -49 -2 -55 -19 -50 -10 2 -26
0 -35 -5 -20 -11 -66 14 -66 37 0 23 30 45 61 45 19 0 29 5 29 15 0 22 -24 29
-50 15 -28 -15 -41 -3 -16 16 26 18 61 18 80 -2z m306 -54 c0 -40 -4 -70 -10
-70 -6 0 -10 30 -10 70 0 40 4 70 10 70 6 0 10 -30 10 -70z m126 56 c26 -19
10 -33 -20 -17 -25 14 -50 7 -43 -12 2 -6 19 -16 38 -22 42 -14 50 -46 17 -69
-29 -21 -41 -20 -69 4 l-24 20 41 -6 c58 -9 68 12 15 33 -47 18 -58 39 -35 64
20 23 53 24 80 5z m74 2 c0 -9 3 -9 12 0 17 17 48 15 70 -5 25 -23 24 -87 -2
-113 -23 -23 -33 -24 -61 -10 -17 10 -19 7 -19 -20 0 -20 -5 -30 -15 -30 -12
0 -15 16 -15 88 0 49 3 92 7 95 10 11 23 8 23 -5z m235 -8 c24 -26 25 -85 2
-107 -22 -22 -76 -21 -93 2 -19 26 -17 85 3 107 22 24 65 23 88 -2z m160 -3
c20 -29 20 -117 0 -117 -11 0 -15 13 -15 54 0 56 -12 72 -45 60 -15 -6 -17
-15 -17 -81 0 -21 -6 -33 -14 -33 -11 0 -14 17 -14 68 l0 67 45 2 c36 1 48 -3
60 -20z m73 -50 c2 -55 0 -67 -13 -67 -12 0 -15 14 -15 71 0 52 3 70 13 67 7
-3 13 -29 15 -71z m222 3 c0 -56 -3 -70 -15 -70 -12 0 -15 14 -15 63 0 35 3
67 7 70 17 18 23 1 23 -63z m120 0 c0 -40 -4 -70 -10 -70 -6 0 -10 30 -10 70
0 40 4 70 10 70 6 0 10 -30 10 -70z m294 54 c11 -10 16 -34 16 -70 0 -49 -2
-54 -22 -53 -13 1 -30 -1 -39 -5 -9 -4 -25 1 -39 12 -34 28 -20 60 31 68 24 4
39 12 39 21 0 20 -25 26 -50 13 -28 -15 -41 -3 -16 16 26 18 61 18 80 -2z
m304 0 c12 -8 22 -26 22 -40 0 -22 -4 -24 -50 -24 -51 0 -60 -6 -38 -28 15
-15 50 -16 65 -1 7 7 13 7 17 0 11 -17 -39 -43 -68 -35 -32 8 -46 31 -46 75 0
60 50 87 98 53z m2082 -60 c0 -9 -92 -124 -100 -124 -3 0 -17 11 -30 25 -13
14 -18 25 -12 25 6 0 14 -4 17 -10 12 -20 31 -9 70 40 36 45 55 61 55 44z m60
-3 c0 -17 -92 -122 -103 -118 -17 5 -20 27 -4 27 9 0 33 22 54 50 37 47 53 60
53 41z m-671 -15 c14 -16 4 -43 -23 -66 -23 -18 -20 -28 12 -33 22 -3 20 -4
-10 -6 -21 0 -38 2 -38 5 0 4 14 22 30 41 17 18 30 38 30 44 0 16 -29 22 -45
9 -13 -11 -14 -10 -9 4 8 20 37 21 53 2z m111 -1 c10 -12 10 -19 2 -27 -8 -8
-7 -16 1 -29 9 -15 8 -22 -5 -35 -17 -17 -58 -12 -58 8 0 6 6 6 15 -2 8 -7 22
-10 30 -6 22 8 18 37 -7 44 l-22 5 22 8 c12 5 22 13 22 19 0 18 -29 23 -48 9
-15 -13 -16 -12 -3 4 17 21 35 22 51 2z m150 8 c-14 -3 -28 -10 -32 -17 -5 -7
-8 -5 -8 7 0 13 8 17 33 16 27 -2 28 -2 7 -6z m128 -17 c2 -10 -5 -31 -17 -47
-26 -35 -26 -37 2 -42 16 -3 13 -5 -10 -6 -18 0 -33 2 -33 5 0 3 12 21 26 40
36 47 15 88 -26 52 -12 -11 -12 -10 0 5 17 22 54 18 58 -7z m-1770 -23 c-4
-22 -22 -20 -26 1 -2 10 3 16 13 16 10 0 15 -7 13 -17z m1667 -23 c13 -42 -39
-68 -66 -32 -11 14 -11 15 1 5 32 -29 75 1 49 33 -8 9 -8 14 -1 14 6 0 14 -9
17 -20z m-2745 -1013 l0 -83 -42 -1 c-53 -3 -68 10 -68 57 0 44 19 64 54 58
20 -4 25 0 30 24 11 58 26 27 26 -55z m-250 63 c0 -5 -11 -10 -25 -10 -24 0
-25 -2 -25 -70 0 -56 -3 -70 -15 -70 -12 0 -15 14 -15 70 0 68 -1 70 -25 70
-14 0 -25 5 -25 10 0 6 28 10 65 10 37 0 65 -4 65 -10z m98 -43 c15 -12 16
-79 0 -95 -17 -17 -64 -15 -82 4 -19 19 -21 64 -3 86 21 28 53 29 85 5z m270
1 c7 -7 12 -33 12 -59 l0 -46 -45 -1 c-33 -1 -47 3 -54 16 -14 27 5 52 39 52
21 0 30 5 30 16 0 13 -7 15 -35 10 -20 -4 -35 -3 -35 3 0 21 69 28 88 9z m78
-23 c9 -49 19 -51 33 -5 7 24 18 40 27 40 17 0 16 -4 -19 -95 -17 -45 -29 -61
-45 -63 -25 -4 -28 4 -8 24 12 12 12 21 -5 64 -23 60 -23 70 -4 70 8 0 17 -14
21 -35z m-3338 -617 c26 -8 32 -14 32 -38 0 -16 -5 -32 -11 -36 -8 -5 -6 -10
5 -16 19 -11 21 -59 4 -76 -7 -7 -36 -12 -65 -12 l-53 0 0 95 0 95 28 -1 c15
-1 42 -6 60 -11z m642 -84 c0 -72 -3 -95 -12 -91 -7 2 -24 0 -37 -5 -40 -14
-71 14 -71 64 0 64 52 102 88 66 9 -9 12 -4 12 25 0 20 5 37 10 37 6 0 10 -39
10 -96z m70 80 c0 -9 -5 -14 -12 -12 -18 6 -21 28 -4 28 9 0 16 -7 16 -16z
m388 -20 c31 -35 30 -97 -3 -129 -19 -20 -34 -25 -75 -25 l-50 0 0 88 c0 49 3
92 7 96 16 16 98 -5 121 -30z m80 25 c-2 -6 -8 -10 -13 -10 -5 0 -11 4 -13 10
-2 6 4 11 13 11 9 0 15 -5 13 -11z m-1003 -59 c24 -26 25 -85 2 -107 -22 -22
-76 -21 -93 2 -23 30 -18 91 8 109 31 22 61 20 83 -4z m75 10 c0 -6 8 -5 20 2
16 10 24 10 41 0 15 -10 24 -11 32 -3 16 16 38 14 59 -6 24 -21 26 -123 3
-123 -12 0 -15 13 -15 55 0 40 -4 57 -15 61 -27 11 -45 -16 -45 -67 0 -27 -4
-49 -10 -49 -5 0 -10 22 -10 49 0 56 -19 82 -45 61 -10 -8 -15 -30 -15 -61 0
-36 -4 -49 -15 -49 -11 0 -13 14 -11 68 2 37 4 68 5 70 3 7 21 1 21 -8z m460
-60 c0 -40 -4 -70 -10 -70 -6 0 -10 30 -10 70 0 40 4 70 10 70 6 0 10 -30 10
-70z m134 48 c9 -13 16 -43 16 -70 0 -43 -2 -48 -22 -47 -13 1 -30 -1 -39 -5
-9 -4 -25 1 -39 12 -34 28 -20 60 31 68 24 4 39 12 39 21 0 20 -30 28 -52 14
-27 -16 -38 -3 -14 15 29 21 63 17 80 -8z m336 -48 c0 -56 -3 -70 -15 -70 -12
0 -15 14 -15 63 0 35 3 67 7 70 17 18 23 1 23 -63z m140 50 c28 -28 26 -75 -5
-106 -29 -29 -58 -26 -87 8 -38 44 -8 118 47 118 14 0 34 -9 45 -20z m131 10
c13 -7 19 -7 19 0 0 5 5 10 10 10 6 0 10 -33 10 -79 0 -59 -4 -84 -16 -95 -20
-20 -78 -21 -94 -1 -16 19 -5 34 12 17 15 -15 51 -15 66 0 17 17 15 41 -3 34
-8 -3 -22 -9 -30 -12 -20 -8 -65 40 -65 71 0 28 32 65 56 65 8 0 24 -5 35 -10z
m179 -10 c58 -58 -19 -160 -83 -109 -51 39 -25 129 38 129 14 0 34 -9 45 -20z
m294 -76 c17 -17 20 -48 6 -79 -6 -14 -7 -8 -4 20 6 45 -12 72 -41 61 -9 -3
-13 -2 -10 4 9 15 31 12 49 -6z m110 8 c2 -4 -8 -8 -22 -7 -25 0 -27 -3 -27
-45 0 -38 3 -45 21 -48 29 -4 39 26 17 51 -18 19 -17 20 5 8 25 -13 27 -23 12
-52 -12 -21 -40 -25 -58 -7 -16 16 -16 80 0 96 14 14 44 16 52 4z m168 -37 c2
-25 0 -53 -4 -63 -6 -16 -7 -16 -7 1 -1 12 -9 17 -31 17 -35 0 -37 6 -9 40
l21 25 -16 -27 c-16 -28 -16 -28 9 -28 21 0 25 5 25 30 0 17 -5 30 -11 30 -5
0 -7 5 -4 10 13 21 23 8 27 -35z m108 30 c15 -18 7 -30 -32 -49 -29 -15 -30
-40 0 -44 16 -2 25 3 31 20 l10 23 0 -22 c1 -30 -44 -43 -67 -19 -12 12 -13
19 -5 27 7 7 11 24 9 38 -2 14 -1 18 1 8 3 -12 12 -17 25 -15 30 4 34 26 6 37
-15 6 -17 10 -7 10 9 1 22 -6 29 -14z m-415 -96 c14 -5 15 -8 5 -8 -26 -1 -40
21 -39 59 l2 35 6 -39 c4 -26 13 -42 26 -47z m-1005 -469 c0 -60 -4 -100 -10
-100 -5 0 -10 5 -10 10 0 7 -7 7 -21 0 -43 -24 -89 13 -89 71 0 26 47 73 65
65 8 -3 22 -9 30 -12 12 -5 15 2 15 30 0 20 5 36 10 36 6 0 10 -40 10 -100z
m1308 62 c3 -29 5 -31 24 -21 47 25 97 -56 68 -110 -14 -27 -55 -37 -77 -20
-13 11 -17 11 -20 1 -3 -6 -9 -10 -14 -6 -5 3 -9 48 -9 100 0 72 3 95 13 92 6
-3 13 -19 15 -36z m460 26 c-6 -18 -28 -21 -28 -4 0 9 7 16 16 16 9 0 14 -5
12 -12z m892 -88 c0 -60 -4 -100 -10 -100 -6 0 -10 40 -10 100 0 60 4 100 10
100 6 0 10 -40 10 -100z m630 65 c0 -33 1 -34 26 -25 48 19 80 -19 72 -86 -4
-38 -49 -65 -77 -47 -14 9 -21 9 -23 1 -2 -6 -9 -9 -14 -5 -8 5 -10 79 -5 180
2 33 21 17 21 -18z m300 -65 c0 -60 -4 -100 -10 -100 -6 0 -10 40 -10 100 0
60 4 100 10 100 6 0 10 -40 10 -100z m67 65 c-5 -37 1 -43 21 -23 17 17 60 -5
67 -35 9 -34 2 -102 -10 -100 -5 2 -11 28 -13 58 -3 55 -4 56 -30 53 -25 -3
-27 -7 -32 -57 -3 -31 -10 -56 -17 -59 -10 -3 -13 21 -13 97 0 85 2 101 16
101 12 0 15 -8 11 -35z m-4523 3 c9 -12 16 -30 16 -40 0 -30 -37 -58 -75 -58
-33 0 -35 -2 -35 -35 0 -19 -4 -35 -10 -35 -6 0 -10 38 -10 95 l0 95 49 0 c40
0 53 -4 65 -22z m3826 -3 c0 -9 7 -18 15 -21 8 -4 15 -10 15 -15 0 -5 -7 -9
-15 -9 -22 0 -20 -79 2 -96 22 -16 12 -28 -16 -19 -18 5 -21 14 -21 60 0 29
-5 55 -10 57 -7 2 -6 13 2 30 14 31 28 37 28 13z m-3700 -35 c15 -15 20 -33
20 -75 0 -52 -10 -69 -26 -44 -4 8 -9 8 -17 0 -17 -17 -42 -13 -63 10 -24 27
-9 51 39 63 53 14 50 41 -3 32 -44 -7 -53 5 -17 22 32 16 45 14 67 -8z m141 0
c18 -14 20 -19 9 -20 -9 0 -21 5 -26 10 -13 13 -44 2 -44 -15 0 -7 12 -16 27
-20 37 -9 53 -23 53 -46 0 -35 -60 -51 -96 -25 -26 20 -10 32 21 16 22 -12 28
-12 42 3 15 15 14 17 -11 27 -15 5 -31 10 -36 10 -5 0 -15 10 -21 22 -10 18
-8 24 11 40 28 23 42 23 71 -2z m124 8 c14 -6 25 -15 25 -20 0 -11 -24 -10
-36 2 -12 12 -44 3 -44 -11 0 -5 18 -16 40 -25 31 -12 40 -22 40 -40 0 -43
-63 -59 -95 -24 -20 22 -6 27 24 8 21 -13 55 -4 49 14 -2 6 -20 17 -39 23 -26
9 -35 18 -37 38 -3 25 6 34 45 46 1 1 14 -4 28 -11z m143 -4 c18 -12 22 -25
22 -68 0 -57 -6 -71 -26 -55 -8 7 -14 7 -19 -1 -10 -17 -41 -12 -61 11 -24 27
-9 51 39 63 53 14 50 41 -3 32 -44 -7 -53 5 -17 22 31 15 39 14 65 -4z m164
-8 c11 -16 10 -126 -2 -126 -5 0 -10 26 -12 58 -3 51 -5 57 -27 60 -31 5 -41
-12 -41 -70 0 -27 -4 -48 -10 -48 -6 0 -10 30 -10 71 0 55 3 70 13 66 8 -3 20
-1 28 4 16 10 50 2 61 -15z m303 -1 c27 -26 31 -54 14 -88 -15 -28 -28 -37
-56 -37 -61 0 -86 90 -37 129 34 27 50 26 79 -4z m235 5 c12 -12 20 -33 20
-55 0 -56 -55 -96 -88 -63 -9 9 -12 5 -12 -20 0 -22 -5 -32 -15 -32 -12 0 -15
17 -15 91 0 85 1 91 19 86 10 -2 25 -1 32 4 22 14 37 11 59 -11z m126 8 c4 -4
-5 -12 -19 -17 -23 -9 -26 -17 -29 -63 -2 -29 -7 -52 -13 -51 -10 3 -20 106
-12 127 5 12 61 15 73 4z m112 -4 c19 -13 22 -24 22 -75 0 -33 -4 -59 -10 -59
-5 0 -10 4 -10 9 0 5 -14 4 -31 -2 -28 -11 -33 -10 -50 11 -26 33 -10 60 41
68 29 5 37 10 33 21 -5 11 -16 14 -47 9 l-41 -6 24 20 c28 24 40 25 69 4z
m230 0 c30 -21 31 -93 1 -119 -17 -16 -25 -17 -50 -8 -28 11 -29 10 -29 -18 0
-16 -4 -29 -10 -29 -6 0 -10 37 -10 91 0 72 3 90 13 86 8 -3 20 -1 28 4 20 12
31 11 57 -7z m146 0 c18 -18 23 -134 6 -134 -5 0 -10 4 -10 9 0 5 -13 4 -29
-2 -37 -14 -63 5 -59 42 3 22 10 27 46 35 54 11 49 32 -7 29 -43 -2 -47 11 -7
27 31 13 43 12 60 -6z m131 6 c3 -6 -5 -14 -19 -19 -28 -11 -39 -37 -34 -83 2
-19 -2 -33 -9 -35 -10 -4 -13 14 -13 67 0 56 3 71 13 67 8 -3 20 -1 28 4 18
11 26 11 34 -1z m109 -6 c18 -18 23 -134 6 -134 -5 0 -10 4 -10 9 0 5 -13 4
-29 -2 -37 -14 -63 5 -59 42 3 22 10 27 46 35 54 11 49 32 -7 29 -43 -2 -47
11 -7 27 31 13 43 12 60 -6z m304 -1 c11 -10 23 -28 27 -40 6 -22 3 -23 -44
-23 -54 0 -67 -15 -36 -40 12 -10 21 -10 42 -1 32 15 45 4 19 -15 -36 -26 -74
-17 -95 23 -17 34 -13 62 14 88 29 30 46 31 73 8z m107 7 c25 21 63 -2 70 -43
9 -45 3 -90 -12 -94 -8 -3 -13 14 -15 54 -2 48 -6 58 -22 61 -28 6 -46 -25
-46 -75 0 -24 -4 -43 -10 -43 -6 0 -10 29 -10 68 0 69 7 93 21 70 6 -9 11 -9
24 2z m407 -13 c11 -18 10 -127 -2 -127 -5 0 -10 4 -10 9 0 5 -13 4 -29 -2
-37 -14 -63 5 -59 42 3 22 10 27 46 35 55 12 49 32 -9 29 l-44 -2 24 20 c26
21 68 19 83 -4z m118 8 c0 -8 -9 -15 -19 -15 -23 0 -31 -19 -31 -76 0 -24 -4
-44 -10 -44 -6 0 -10 30 -10 71 0 55 3 70 13 66 8 -3 20 -1 28 4 20 13 29 11
29 -6z m275 -10 c32 -31 32 -66 1 -102 -22 -26 -27 -27 -55 -16 -30 11 -31 11
-31 -18 0 -16 -4 -29 -10 -29 -6 0 -10 37 -10 91 0 81 2 90 18 85 9 -3 24 -1
32 4 22 14 28 13 55 -15z m142 10 c11 -8 23 -26 25 -40 5 -24 3 -25 -43 -25
-52 0 -64 -15 -34 -40 13 -11 20 -11 40 0 31 16 47 4 21 -16 -71 -52 -144 49
-81 111 28 29 42 31 72 10z m231 -8 c8 -6 12 -27 10 -56 -2 -38 -8 -48 -30
-61 -25 -13 -31 -13 -55 0 -31 17 -46 61 -33 96 16 41 70 51 108 21z m262 13
c20 13 30 12 30 0 0 -6 -11 -15 -25 -20 -23 -9 -25 -15 -25 -66 0 -77 -24 -69
-28 11 -4 69 3 92 21 77 8 -7 18 -7 27 -2z m135 -4 c14 -10 19 -28 22 -69 2
-53 -8 -80 -22 -57 -4 6 -13 5 -25 -2 -25 -16 -70 4 -70 31 0 24 19 39 58 47
19 4 32 13 32 22 0 11 -9 13 -40 9 -43 -6 -54 8 -17 23 31 12 41 12 62 -4z
m303 -2 c18 -12 22 -25 22 -68 0 -57 -6 -71 -26 -55 -8 7 -14 7 -19 -1 -10
-17 -41 -12 -61 11 -24 27 -9 51 39 63 37 10 49 29 24 39 -8 3 -20 1 -28 -4
-8 -5 -21 -9 -29 -9 -10 1 -8 7 9 20 28 24 40 25 69 4z m356 6 c43 -16 52 -90
14 -122 -44 -39 -100 -7 -100 57 0 28 6 44 22 57 26 21 30 21 64 8z m-2096
-65 c-4 -87 -22 -88 -26 -2 -2 56 0 67 13 67 13 0 15 -11 13 -65z m142 58 c0
-5 -16 -28 -35 -52 -19 -24 -35 -48 -35 -52 0 -5 16 -9 35 -9 19 0 35 -4 35
-10 0 -5 -25 -10 -55 -10 -30 0 -55 4 -55 9 0 5 18 32 40 60 l40 51 -34 0
c-19 0 -38 5 -41 10 -4 6 15 10 49 10 31 0 56 -3 56 -7z m-2830 -303 c0 -5 -7
-10 -15 -10 -22 0 -19 -40 3 -40 16 -1 16 -1 0 -13 -11 -9 -18 -31 -20 -67 -4
-78 -28 -80 -28 -2 0 39 -4 62 -12 65 -9 4 -10 8 -3 14 6 4 16 20 22 36 12 26
53 40 53 17z m190 -5 c0 -8 -4 -15 -9 -15 -13 0 -22 16 -14 24 11 11 23 6 23
-9z m858 -80 c3 -87 -8 -127 -27 -96 -6 9 -11 10 -15 2 -11 -17 -44 -13 -66 9
-12 12 -20 33 -20 55 0 22 8 43 20 55 23 23 33 24 61 10 17 -10 19 -7 19 25 0
25 4 35 13 33 8 -3 13 -33 15 -93z m932 -5 c0 -60 -4 -100 -10 -100 -6 0 -10
40 -10 100 0 60 4 100 10 100 6 0 10 -40 10 -100z m200 85 c0 -8 -4 -15 -9
-15 -13 0 -22 16 -14 24 11 11 23 6 23 -9z m1010 -78 c0 -97 -5 -114 -26 -96
-8 7 -14 7 -19 -1 -22 -35 -85 11 -85 63 0 54 33 82 78 66 20 -8 22 -6 22 26
0 24 5 35 15 35 12 0 15 -17 15 -93z m1230 78 c0 -8 -7 -15 -15 -15 -8 0 -15
7 -15 15 0 8 7 15 15 15 8 0 15 -7 15 -15z m-4160 -20 c0 -9 7 -18 15 -21 8
-4 15 -10 15 -15 0 -5 -7 -9 -15 -9 -21 0 -20 -68 2 -92 19 -22 9 -37 -15 -22
-11 7 -18 27 -20 60 -2 27 -7 51 -13 54 -5 4 -4 17 4 33 13 30 27 35 27 12z
m2520 0 c0 -9 7 -18 15 -21 8 -4 15 -10 15 -15 0 -5 -7 -9 -15 -9 -21 0 -20
-73 1 -95 20 -20 10 -33 -14 -19 -11 7 -18 27 -20 60 -2 27 -9 52 -15 57 -9 7
-9 10 1 14 6 2 12 13 12 24 0 10 5 19 10 19 6 0 10 -7 10 -15z m1710 -5 c0
-11 7 -20 15 -20 8 0 15 -4 15 -10 0 -5 -7 -10 -15 -10 -11 0 -15 -12 -15 -45
0 -31 5 -47 15 -51 22 -9 18 -24 -5 -24 -25 0 -40 29 -40 77 0 22 -5 44 -12
51 -9 9 -9 12 0 12 7 0 12 9 12 20 0 11 7 20 15 20 8 0 15 -9 15 -20z m-4372
-38 c6 -9 12 -24 12 -34 0 -15 -8 -18 -44 -18 -51 0 -64 -11 -40 -34 19 -19
28 -20 54 -4 26 16 39 2 14 -17 -46 -35 -104 -2 -104 59 0 63 71 94 108 48z
m285 17 c30 -16 37 -28 37 -66 0 -39 -30 -73 -62 -73 -29 0 -42 9 -57 37 -17
34 -13 62 14 88 27 28 37 30 68 14z m249 -13 c11 -17 9 -126 -2 -126 -5 0 -10
22 -10 49 0 59 -20 87 -51 71 -15 -9 -19 -22 -19 -65 0 -63 -19 -76 -21 -15
-1 22 -1 52 -2 68 -1 21 4 27 21 28 13 1 26 4 29 8 9 8 46 -4 55 -18z m142 3
c50 -39 23 -129 -39 -129 -61 0 -86 80 -40 125 29 30 45 31 79 4z m394 -7 c6
-9 12 -24 12 -34 0 -15 -8 -18 -50 -18 -27 0 -50 -4 -50 -9 0 -19 33 -42 49
-35 9 3 25 8 36 11 18 4 18 3 -4 -16 -28 -25 -49 -26 -79 -5 -38 27 -27 111
18 127 21 7 53 -2 68 -21z m142 1 c13 -14 12 -15 -10 -9 -44 12 -54 11 -58 -6
-2 -11 6 -18 27 -23 37 -8 55 -28 46 -54 -8 -26 -49 -37 -81 -22 -28 12 -34
37 -6 26 30 -13 56 -11 60 6 2 11 -8 19 -29 25 -18 5 -37 17 -43 27 -9 15 -7
22 13 38 26 21 55 18 81 -8z m127 12 c11 -8 23 -26 25 -40 5 -24 3 -25 -43
-25 -52 0 -64 -15 -34 -40 12 -10 21 -10 42 -1 32 15 45 4 19 -15 -71 -52
-144 49 -81 111 28 29 42 31 72 10z m147 5 c24 -9 26 -14 26 -75 0 -80 -18
-87 -22 -7 -3 51 -5 57 -27 60 -31 5 -41 -12 -41 -70 0 -27 -4 -48 -10 -48 -6
0 -10 30 -10 71 0 55 3 70 13 66 8 -3 20 -1 28 4 17 11 13 11 43 -1z m291 -15
c15 -14 25 -36 25 -51 0 -34 -36 -74 -67 -74 -61 0 -86 90 -37 129 34 27 50
26 79 -4z m405 15 c12 -7 27 -7 45 0 48 18 65 -1 65 -75 0 -80 -18 -86 -22 -7
-3 53 -5 57 -28 57 -23 0 -25 -4 -28 -58 -4 -77 -26 -72 -30 6 -3 52 -5 57
-26 57 -28 0 -36 -16 -36 -76 0 -24 -4 -44 -10 -44 -6 0 -10 30 -10 71 0 55 3
70 13 66 8 -3 20 -1 28 4 18 11 17 11 39 -1z m246 -12 c7 -5 14 -20 17 -33 4
-24 2 -25 -44 -25 -52 0 -64 -15 -34 -40 12 -10 21 -10 42 -1 32 15 45 4 19
-15 -72 -52 -144 49 -81 112 25 25 52 26 81 2z m145 12 c16 -9 19 -22 19 -75
0 -37 -4 -65 -10 -65 -5 0 -10 25 -10 55 0 43 -4 56 -19 65 -31 16 -51 -12
-51 -71 0 -27 -4 -49 -10 -49 -6 0 -10 30 -10 71 0 55 3 70 13 66 8 -3 20 -1
28 4 18 11 26 11 50 -1z m256 -19 c33 -44 1 -121 -51 -121 -28 0 -66 42 -66
72 0 65 79 98 117 49z m391 2 c19 -26 15 -80 -8 -103 -43 -43 -104 -10 -104
57 0 64 74 95 112 46z m207 13 c15 -11 19 -27 20 -72 0 -37 -4 -59 -12 -61
-10 -4 -13 12 -13 57 0 61 0 61 -27 58 -26 -3 -28 -7 -33 -57 -3 -31 -10 -56
-17 -59 -10 -3 -13 15 -13 68 0 63 2 71 18 66 9 -3 24 -1 32 4 20 13 23 12 45
-4z m155 -4 c31 -25 32 -88 1 -113 -28 -23 -50 -24 -79 -3 -19 13 -23 23 -20
62 2 38 8 49 28 59 33 17 44 16 70 -5z m154 -3 c16 -15 -1 -21 -24 -9 -18 10
-25 9 -38 -3 -14 -14 -11 -18 26 -32 50 -20 61 -44 32 -67 -29 -23 -52 -23
-81 2 -26 21 -11 27 20 8 20 -12 51 -5 51 12 0 7 -18 19 -40 27 -31 12 -40 21
-40 39 0 13 8 28 18 33 18 11 61 6 76 -10z m130 0 c15 -14 0 -22 -21 -11 -10
5 -24 7 -30 5 -24 -9 -13 -30 18 -39 45 -13 58 -37 35 -63 -22 -24 -54 -27
-82 -7 -25 19 -12 31 16 16 12 -6 28 -9 36 -6 24 9 15 31 -18 41 -17 6 -36 18
-42 28 -9 15 -6 22 13 38 23 19 54 18 75 -2z m143 -5 c45 -45 17 -124 -44
-124 -61 0 -86 90 -37 129 35 27 49 26 81 -5z m217 5 c16 -15 -1 -21 -23 -9
-12 6 -26 8 -31 5 -20 -12 -9 -32 21 -41 45 -13 58 -37 35 -63 -22 -24 -54
-27 -82 -7 -24 18 -13 31 14 15 22 -14 52 -6 52 14 0 8 -14 18 -31 23 -18 5
-37 17 -43 27 -9 15 -7 22 13 38 23 19 54 18 75 -2z m304 -7 c6 -9 12 -24 12
-34 0 -15 -8 -18 -44 -18 -51 0 -64 -11 -40 -34 18 -18 40 -21 49 -6 3 6 13
10 22 10 14 0 14 -3 -2 -20 -39 -43 -105 -13 -105 48 0 42 6 54 35 70 24 13
55 6 73 -16z m-4458 -52 c0 -40 -4 -70 -10 -70 -6 0 -10 30 -10 70 0 40 4 70
10 70 6 0 10 -30 10 -70z m1505 20 c9 -27 18 -50 20 -50 2 0 11 23 20 50 9 28
22 50 29 50 10 0 6 -19 -12 -70 -13 -38 -30 -70 -36 -70 -6 0 -23 32 -38 70
-19 51 -22 70 -13 70 8 0 21 -22 30 -50z m354 -3 c8 -26 17 -47 21 -47 3 0 13
23 20 50 8 28 19 50 27 50 16 0 17 7 -11 -70 -13 -36 -29 -65 -36 -65 -11 0
-35 49 -55 114 -5 17 -4 22 6 19 7 -2 20 -26 28 -51z m131 -17 c0 -40 -4 -70
-10 -70 -6 0 -10 30 -10 70 0 40 4 70 10 70 6 0 10 -30 10 -70z m2238 5 c-4
-87 -22 -88 -26 -2 -2 56 0 67 13 67 13 0 15 -11 13 -65z m302 -76 c-10 -35
-17 -45 -25 -37 -10 10 8 68 21 68 9 0 10 -8 4 -31z m-4720 -169 c0 -5 -7 -10
-15 -10 -22 0 -19 -40 3 -40 16 -1 16 -1 0 -13 -11 -9 -18 -31 -20 -67 -4 -78
-28 -80 -28 -2 0 39 -4 62 -12 65 -9 4 -10 8 -3 14 6 4 16 20 22 36 12 26 53
40 53 17z m48 -2 c-6 -18 -28 -21 -28 -4 0 9 7 16 16 16 9 0 14 -5 12 -12z
m1042 2 c0 -5 -7 -10 -15 -10 -8 0 -15 -9 -15 -20 0 -11 7 -20 15 -20 8 0 15
-4 15 -10 0 -5 -7 -10 -15 -10 -12 0 -15 -13 -15 -60 0 -33 -4 -60 -10 -60
-13 0 -23 45 -16 73 3 13 -1 32 -9 44 -13 18 -13 22 0 27 8 3 15 14 15 24 0
10 3 22 7 25 10 11 43 8 43 -3z m192 -5 c0 -5 -5 -11 -11 -13 -6 -2 -11 4 -11
13 0 9 5 15 11 13 6 -2 11 -8 11 -13z m1018 -85 c0 -60 -4 -100 -10 -100 -5 0
-10 4 -10 9 0 5 -14 4 -30 -2 -26 -10 -33 -9 -49 8 -53 55 -13 150 53 126 25
-10 26 -9 26 24 0 19 5 35 10 35 6 0 10 -40 10 -100z m2400 6 c0 -91 -11 -126
-30 -96 -5 9 -9 9 -14 1 -11 -17 -44 -13 -66 9 -12 12 -20 33 -20 55 0 22 8
43 20 55 23 23 33 24 61 10 17 -10 19 -7 19 25 0 24 4 35 15 35 12 0 15 -17
15 -94z m-3340 54 c0 -12 7 -20 18 -20 16 -1 16 -1 0 -14 -12 -9 -18 -27 -18
-54 0 -29 5 -44 18 -51 16 -9 16 -10 -1 -16 -29 -12 -47 13 -47 65 0 29 -5 51
-12 54 -10 5 -10 7 0 12 6 3 12 14 12 25 0 10 7 19 15 19 8 0 15 -9 15 -20z
m-1179 -29 c13 -11 21 -23 16 -27 -4 -4 -13 -2 -19 4 -19 19 -56 14 -68 -8
-26 -48 22 -99 61 -64 25 23 37 10 14 -16 -39 -43 -105 -9 -105 53 0 35 15 61
40 70 27 10 37 7 61 -12z m157 -8 c19 -26 15 -80 -8 -103 -40 -40 -93 -16
-106 47 -9 44 34 88 74 78 15 -3 33 -13 40 -22z m371 10 c34 -29 37 -74 8
-109 -23 -27 -28 -28 -56 -17 -30 11 -31 11 -31 -18 0 -16 -4 -29 -10 -29 -6
0 -10 37 -10 91 0 81 2 90 18 85 9 -3 24 -1 32 4 21 13 25 13 49 -7z m148 2
c11 -8 23 -26 25 -40 5 -24 3 -25 -43 -25 -52 0 -64 -15 -34 -40 13 -11 20
-11 40 0 31 16 47 4 21 -16 -71 -52 -144 49 -81 111 28 29 42 31 72 10z m133
2 c0 -7 -10 -17 -22 -22 -19 -8 -24 -19 -26 -62 -5 -79 -22 -64 -22 18 0 55 3
70 13 66 8 -3 20 -1 28 4 20 12 29 11 29 -4z m208 -4 c11 -10 23 -28 27 -40 6
-22 3 -23 -44 -23 -54 0 -67 -15 -36 -40 12 -10 21 -10 42 -1 32 15 45 4 19
-15 -71 -52 -144 49 -81 111 29 30 46 31 73 8z m312 -3 c29 -29 27 -94 -2
-114 -48 -34 -102 -3 -102 59 0 64 62 97 104 55z m212 8 c20 -16 32 -125 15
-135 -6 -4 -13 -1 -15 5 -2 8 -8 8 -22 0 -25 -16 -70 4 -70 31 0 24 19 39 58
47 19 4 32 13 32 22 0 11 -9 13 -40 9 -43 -6 -54 8 -17 23 31 12 41 12 59 -2z
m161 1 c17 0 21 -27 19 -124 -2 -57 -69 -81 -111 -40 -12 11 -6 13 35 12 45
-2 49 0 52 23 3 20 1 23 -9 13 -18 -18 -49 -16 -71 4 -42 38 -5 134 45 118 12
-4 30 -7 40 -6z m132 1 c3 -6 -5 -14 -19 -20 -22 -8 -25 -16 -28 -61 -2 -31
-8 -54 -15 -57 -10 -3 -13 15 -13 68 0 67 1 72 20 67 11 -3 23 -1 26 4 7 12
21 11 29 -1z m99 0 c24 -9 26 -14 26 -75 0 -37 -4 -65 -10 -65 -5 0 -10 5 -10
11 0 8 -4 8 -14 -1 -20 -16 -56 -9 -70 13 -16 25 3 50 48 61 46 12 41 31 -8
30 -51 -2 -46 16 11 35 1 1 13 -3 27 -9z m334 -18 c6 -9 12 -24 12 -34 0 -15
-8 -18 -44 -18 -53 0 -63 -10 -36 -35 18 -16 23 -17 45 -5 31 16 47 4 21 -16
-47 -34 -106 -1 -106 60 0 63 71 94 108 48z m142 6 c17 -16 20 -23 10 -26 -8
-3 -16 0 -18 7 -2 6 -17 11 -33 11 -22 0 -30 -5 -35 -26 -8 -30 10 -74 29 -74
7 0 23 7 36 16 22 16 23 15 19 -2 -4 -24 -53 -42 -76 -28 -47 29 -47 108 -1
131 33 17 42 16 69 -9z m146 0 c7 -5 14 -20 17 -33 4 -24 2 -25 -44 -25 -52 0
-64 -15 -34 -40 13 -11 20 -11 40 0 31 16 47 4 21 -16 -72 -52 -144 49 -81
112 25 25 52 26 81 2z m180 12 c43 17 64 -10 64 -82 0 -32 -4 -58 -10 -58 -5
0 -10 20 -10 44 0 57 -8 76 -31 76 -23 0 -32 -19 -33 -73 -1 -23 -6 -42 -13
-44 -10 -4 -13 12 -13 56 0 58 -1 61 -24 61 -28 0 -36 -16 -36 -76 0 -24 -4
-44 -10 -44 -6 0 -10 30 -10 71 0 53 3 70 13 66 6 -2 21 -1 32 3 11 4 28 4 37
-1 10 -5 28 -5 44 1z m199 -15 c27 -26 31 -54 14 -88 -15 -28 -28 -37 -56 -37
-33 0 -63 34 -63 73 0 37 7 49 35 65 30 17 43 15 70 -13z m136 5 c18 -14 20
-19 9 -20 -9 0 -21 5 -26 10 -12 12 -44 3 -44 -11 0 -5 17 -17 37 -26 42 -20
54 -50 27 -70 -23 -17 -55 -17 -80 1 -26 19 -10 33 20 16 27 -14 60 -7 54 12
-2 6 -19 17 -37 23 -47 16 -60 43 -31 67 28 23 42 23 71 -2z m227 -8 c6 -9 12
-24 12 -34 0 -15 -8 -18 -45 -18 -48 0 -59 -16 -29 -41 12 -10 20 -10 35 -1
30 19 44 14 24 -8 -39 -43 -105 -9 -105 53 0 37 7 49 35 65 24 13 55 6 73 -16z
m133 18 c13 -8 25 -7 40 0 16 9 26 8 45 -5 21 -14 24 -23 24 -76 0 -81 -24
-77 -28 4 -3 52 -5 57 -26 57 -28 0 -36 -16 -36 -76 0 -65 -18 -54 -22 13 -2
47 -6 58 -22 61 -26 5 -36 -15 -36 -70 0 -27 -4 -48 -10 -48 -6 0 -10 30 -10
71 0 55 3 70 13 66 8 -3 20 -1 28 4 18 11 17 11 40 -1z m307 -6 c19 -13 22
-24 22 -75 0 -33 -4 -59 -10 -59 -5 0 -10 13 -10 29 0 16 -3 43 -6 60 -6 27
-11 32 -33 29 -24 -3 -26 -7 -29 -61 -4 -83 -26 -70 -30 18 -3 63 -2 67 16 63
11 -3 26 -2 33 3 19 12 21 11 47 -7z m157 -9 c30 -30 32 -64 4 -99 -39 -50
-109 -20 -109 47 0 37 7 49 35 65 30 17 43 15 70 -13z m135 15 c13 -7 27 -6
44 2 22 9 29 8 46 -7 16 -14 20 -31 20 -77 0 -80 -24 -75 -28 5 -3 52 -5 57
-26 57 -26 0 -36 -21 -36 -82 0 -61 -19 -44 -22 20 -3 53 -5 57 -28 57 -23 0
-25 -4 -28 -57 -4 -83 -22 -72 -22 13 0 55 3 70 13 66 8 -3 20 -1 28 4 18 11
17 11 39 -1z m248 -18 c6 -9 12 -24 12 -34 0 -15 -8 -18 -50 -18 -52 0 -60 -8
-34 -34 18 -18 40 -21 49 -6 3 6 13 10 22 10 14 0 14 -3 -2 -20 -39 -43 -105
-9 -105 53 0 68 68 99 108 49z m372 8 c15 -15 20 -33 20 -69 0 -46 -18 -81
-28 -52 -3 9 -7 9 -18 0 -19 -16 -61 -3 -69 22 -9 27 10 47 51 55 21 4 34 12
34 21 0 12 -9 14 -40 10 -43 -6 -54 8 -17 23 34 13 45 12 67 -10z m-4782 -57
c-2 -42 -8 -68 -15 -71 -10 -3 -13 15 -13 67 0 57 3 71 15 71 13 0 15 -12 13
-67z m364 16 c6 -96 68 -89 68 8 0 24 5 43 10 43 6 0 10 -30 10 -70 0 -40 -4
-70 -10 -70 -5 0 -10 5 -10 12 0 9 -3 9 -12 0 -7 -7 -21 -12 -33 -12 -34 0
-45 20 -45 82 0 72 18 77 22 7z m868 -19 c0 -40 -4 -70 -10 -70 -6 0 -10 30
-10 70 0 40 4 70 10 70 6 0 10 -30 10 -70z m900 -330 c0 -60 -4 -100 -10 -100
-6 0 -10 40 -10 100 0 60 4 100 10 100 6 0 10 -40 10 -100z m860 0 c0 -60 -4
-100 -10 -100 -6 0 -10 40 -10 100 0 60 4 100 10 100 6 0 10 -40 10 -100z
m1010 65 c0 -33 1 -34 26 -24 65 24 106 -72 53 -126 -16 -17 -23 -18 -49 -8
-16 6 -30 7 -30 2 0 -5 -4 -9 -10 -9 -6 0 -10 40 -10 100 0 60 4 100 10 100 6
0 10 -16 10 -35z m300 -65 c0 -60 -4 -100 -10 -100 -6 0 -10 40 -10 100 0 60
4 100 10 100 6 0 10 -40 10 -100z m70 65 c0 -36 8 -43 28 -23 18 18 59 -5 65
-39 9 -44 3 -96 -10 -100 -8 -3 -13 14 -15 54 -3 54 -5 58 -29 61 -30 3 -39
-15 -39 -80 0 -21 -4 -38 -10 -38 -6 0 -10 40 -10 100 0 60 4 100 10 100 6 0
10 -16 10 -35z m-1005 -4 c3 -11 14 -22 23 -24 15 -4 14 -6 -3 -12 -17 -5 -20
-13 -17 -48 2 -23 11 -48 19 -54 15 -11 14 -13 -1 -19 -28 -11 -46 15 -46 66
0 29 -5 51 -12 54 -10 5 -10 7 0 12 6 3 12 14 12 25 0 25 17 25 25 0z m310 -1
c0 -7 9 -17 20 -21 19 -8 19 -8 -2 -15 -18 -5 -23 -14 -23 -42 0 -19 7 -44 17
-54 19 -22 9 -37 -15 -22 -11 7 -18 27 -20 60 -2 27 -9 52 -15 57 -9 7 -9 10
1 14 6 2 12 14 12 25 0 11 5 18 13 16 6 -3 12 -11 12 -18z m-3697 -26 c19 -13
22 -24 22 -75 0 -32 -4 -59 -9 -59 -14 0 -21 27 -21 76 0 44 -1 45 -27 42 -26
-3 -28 -7 -33 -57 -3 -31 -10 -56 -17 -59 -10 -3 -13 15 -13 68 0 66 2 72 19
67 10 -2 25 -1 32 4 19 12 21 11 47 -7z m157 -9 c27 -26 31 -54 14 -88 -15
-28 -28 -37 -56 -37 -33 0 -63 34 -63 73 0 37 7 49 35 65 30 17 43 15 70 -13z
m145 -1 c12 -12 12 -14 -1 -14 -8 0 -20 5 -25 10 -13 13 -44 2 -44 -15 0 -7
12 -16 27 -20 37 -9 53 -23 53 -46 0 -35 -60 -51 -96 -25 -25 18 -10 34 17 18
22 -14 62 -7 56 11 -2 6 -18 16 -36 22 -47 16 -60 43 -31 67 24 20 54 17 80
-8z m115 14 c14 -6 25 -15 25 -20 0 -11 -24 -10 -36 2 -12 12 -44 3 -44 -12 0
-5 18 -17 40 -25 31 -12 40 -21 40 -39 0 -43 -64 -59 -95 -24 -20 22 -6 27 24
8 21 -13 55 -4 49 14 -2 6 -20 17 -39 23 -26 9 -35 18 -37 38 -3 25 6 34 45
46 1 1 14 -4 28 -11z m165 -62 c5 -55 -5 -97 -16 -69 -4 9 -10 10 -24 1 -40
-26 -94 30 -57 60 6 5 27 13 45 17 19 4 32 13 32 22 0 12 -8 15 -40 10 -46 -6
-53 7 -12 21 49 17 66 2 72 -62z m193 63 c27 -14 37 -28 37 -51 0 -15 -9 -18
-51 -18 -41 0 -50 -3 -47 -16 5 -28 35 -41 58 -26 31 19 45 14 25 -8 -39 -43
-105 -13 -105 49 0 46 17 70 58 80 2 1 13 -4 25 -10z m167 -2 c8 0 25 3 36 7
36 11 54 -17 54 -85 0 -33 -4 -59 -10 -59 -5 0 -10 20 -10 44 0 60 -8 76 -36
76 -21 0 -24 -5 -25 -40 -1 -22 -3 -44 -4 -50 -1 -5 -3 -14 -4 -20 0 -5 -5
-10 -11 -10 -5 0 -10 26 -12 57 -2 47 -6 58 -22 61 -26 5 -36 -15 -36 -70 0
-27 -4 -48 -10 -48 -6 0 -10 30 -10 71 0 55 3 70 13 66 8 -3 20 -1 28 4 8 5
21 6 29 2 8 -3 22 -6 30 -6z m238 -15 c17 -23 15 -82 -5 -104 -18 -21 -53 -24
-71 -6 -9 9 -12 5 -12 -20 0 -19 -5 -32 -12 -32 -9 0 -14 27 -16 91 -3 87 -2
91 16 87 11 -3 26 -2 33 3 18 11 50 2 67 -19z m119 11 c2 -6 -6 -13 -19 -15
-20 -3 -24 -10 -28 -58 -7 -77 -24 -69 -28 14 -3 65 -2 68 18 63 11 -3 23 -1
26 4 7 12 26 7 31 -8z m119 -5 c7 -5 14 -20 17 -33 4 -24 2 -25 -44 -25 -52 0
-64 -15 -34 -40 12 -10 21 -10 42 -1 32 15 45 4 19 -15 -44 -32 -93 -9 -102
48 -5 31 -2 41 20 63 26 26 52 27 82 3z m129 10 c14 -6 25 -15 25 -20 0 -12
-24 -10 -38 4 -9 10 -16 9 -29 -4 -15 -16 -13 -18 25 -34 33 -12 42 -21 42
-40 0 -43 -63 -59 -95 -24 -20 22 -6 27 24 8 21 -13 55 -4 49 14 -2 6 -20 17
-39 23 -26 9 -35 18 -37 38 -3 25 6 34 45 46 1 1 14 -4 28 -11z m143 -4 c18
-13 22 -25 22 -72 l0 -57 -44 -2 c-83 -3 -101 66 -21 81 22 5 35 13 35 23 0
13 -8 14 -42 9 l-43 -6 24 20 c28 24 40 25 69 4z m250 -12 c43 -55 -28 -158
-76 -110 -9 9 -12 5 -12 -20 0 -22 -5 -32 -15 -32 -12 0 -15 17 -15 91 0 85 1
91 19 86 10 -2 25 -1 32 4 18 11 50 2 67 -19z m137 3 c40 -40 33 -55 -26 -55
-41 0 -50 -3 -47 -16 5 -28 35 -41 59 -26 27 17 40 5 15 -14 -45 -33 -100 1
-100 61 0 27 6 43 23 56 31 25 47 24 76 -6z m223 -3 c33 -43 0 -122 -52 -122
-28 0 -66 42 -66 72 0 65 79 99 118 50z m218 6 c7 -5 14 -20 17 -33 4 -24 2
-25 -44 -25 -52 0 -64 -15 -34 -40 12 -10 21 -10 42 -1 32 15 45 4 19 -15 -72
-52 -144 49 -81 112 25 25 52 26 81 2z m265 3 c13 -11 21 -23 17 -27 -4 -4
-14 -1 -22 5 -8 7 -25 11 -38 9 -18 -2 -24 -10 -26 -39 -2 -23 2 -40 12 -48
16 -13 56 -6 56 10 0 5 5 9 10 9 20 0 9 -31 -14 -41 -49 -23 -96 13 -96 72 0
23 42 69 63 69 8 0 25 -9 38 -19z m154 -6 c40 -40 33 -55 -26 -55 -41 0 -50
-3 -47 -16 5 -28 35 -41 59 -26 27 17 40 5 15 -14 -30 -22 -62 -17 -86 13 -26
33 -21 79 11 106 29 23 45 22 74 -8z m211 1 c7 -6 15 -21 19 -33 6 -22 4 -23
-44 -23 -54 0 -67 -15 -36 -40 12 -10 21 -10 42 -1 32 15 45 4 19 -15 -36 -26
-74 -17 -95 23 -17 34 -13 62 14 89 26 26 56 26 81 0z m165 -14 c13 -33 7
-104 -8 -109 -8 -3 -13 15 -15 54 -2 48 -6 58 -22 61 -28 6 -46 -25 -46 -75 0
-24 -4 -43 -10 -43 -6 0 -10 30 -10 71 0 62 2 70 18 65 9 -3 23 -2 31 3 21 14
52 0 62 -27z m232 6 c30 -36 22 -48 -34 -48 -41 0 -50 -3 -47 -16 5 -28 35
-41 59 -26 27 17 40 5 15 -14 -48 -35 -113 10 -102 71 12 62 69 79 109 33z
m287 18 c0 -8 -10 -16 -22 -18 -20 -3 -23 -10 -26 -60 -4 -83 -22 -72 -22 13
0 55 3 70 13 66 8 -3 20 -1 28 4 20 13 29 11 29 -5z m104 4 c24 -9 26 -14 26
-75 0 -37 -4 -65 -10 -65 -5 0 -10 5 -10 11 0 8 -4 8 -14 -1 -20 -16 -56 -9
-70 13 -16 25 4 50 48 60 46 11 41 32 -8 31 -51 -2 -46 16 11 35 1 1 13 -3 27
-9z m316 -10 c15 -15 20 -33 20 -69 0 -46 -18 -81 -28 -52 -3 9 -7 9 -18 0
-19 -16 -61 -3 -69 22 -9 27 8 46 50 53 23 5 35 13 35 23 0 13 -7 14 -40 9
-46 -7 -54 7 -12 22 38 15 40 14 62 -8z m378 -8 c6 -9 12 -33 12 -54 0 -68
-72 -91 -113 -36 -51 68 48 157 101 90z m-2033 -4 l16 -23 16 23 c8 12 22 22
30 22 11 0 9 -7 -7 -30 -22 -31 -21 -59 5 -80 19 -15 19 -30 2 -30 -8 0 -20
11 -27 25 -7 14 -16 25 -20 25 -4 0 -13 -11 -20 -25 -7 -14 -17 -25 -22 -25
-13 0 -10 13 11 44 20 29 20 30 0 57 -10 15 -19 30 -19 33 0 14 20 4 35 -16z
m2108 -109 c-17 -17 -37 -1 -22 17 8 10 15 12 23 4 7 -7 7 -13 -1 -21z m72 1
c-5 -8 -11 -8 -17 -2 -6 6 -7 16 -3 22 5 8 11 8 17 2 6 -6 7 -16 3 -22z m-317
-290 c-7 -10 -14 -18 -15 -16 -6 6 9 36 18 36 5 0 4 -9 -3 -20z m49 -11 c1
-19 1 -20 -4 -4 -3 11 -10 24 -17 28 -7 6 -6 7 4 4 8 -2 16 -14 17 -28z m61
11 c-14 -22 -24 -19 -15 5 4 8 11 15 17 15 6 0 6 -7 -2 -20z m47 10 c3 -6 -1
-7 -9 -4 -18 7 -21 14 -7 14 6 0 13 -4 16 -10z m164 7 c-2 -1 -15 -11 -28 -22
l-24 -20 14 23 c8 12 20 22 28 22 8 0 12 -1 10 -3z m69 -8 c-25 -14 -22 -38 5
-49 17 -8 18 -9 3 -7 -40 5 -48 67 -9 67 17 -1 17 -1 1 -11z m36 -88 c-17 -15
-17 -15 -5 1 7 9 11 22 10 30 -1 7 0 20 1 28 2 8 5 2 7 -14 3 -19 -1 -34 -13
-45z m-267 39 c3 -10 2 -11 -4 -4 -4 7 -17 14 -28 17 -16 5 -15 5 4 4 14 -1
26 -9 28 -17z m-39 -48 c15 -11 14 -12 -5 -2 -16 7 -23 19 -22 38 2 26 2 26 6
2 3 -13 12 -30 21 -38z m145 42 c-5 -14 -1 -16 26 -12 17 3 34 1 37 -4 3 -4
-13 -8 -35 -8 -39 0 -53 14 -34 33 11 11 13 8 6 -9z m-259 -37 c7 -6 6 -7 -4
-4 -8 2 -16 14 -17 28 -1 19 -1 20 4 4 3 -11 10 -24 17 -28z m42 8 c-3 -8 -11
-15 -18 -14 -10 0 -10 2 0 6 6 2 12 14 13 26 0 12 3 16 6 9 3 -7 2 -19 -1 -27z
m105 -8 c-10 -9 -11 -8 -5 6 3 10 9 15 12 12 3 -3 0 -11 -7 -18z m-1251 -572
c0 -33 1 -35 21 -24 68 36 114 -93 47 -131 -22 -12 -32 -13 -47 -3 -14 9 -21
9 -23 1 -2 -6 -10 -8 -16 -4 -8 5 -12 39 -12 102 0 77 3 94 15 94 11 0 15 -11
15 -35z m258 23 c-6 -18 -28 -21 -28 -4 0 9 7 16 16 16 9 0 14 -5 12 -12z
m462 -88 c0 -60 -4 -100 -10 -100 -5 0 -10 4 -10 10 0 6 -10 5 -25 -2 -75 -34
-119 83 -49 129 21 13 30 14 45 5 26 -16 27 -16 23 15 -3 30 2 43 17 43 5 0 9
-44 9 -100z m810 0 c0 -60 -4 -100 -10 -100 -6 0 -10 40 -10 100 0 60 4 100
10 100 6 0 10 -40 10 -100z m-521 53 c5 -21 14 -54 19 -73 l9 -35 17 60 c24
86 24 85 41 85 8 0 15 -6 15 -12 0 -7 8 -40 18 -73 l18 -60 18 73 c11 44 23
72 31 72 11 0 8 -20 -11 -87 -13 -49 -24 -91 -24 -95 0 -5 -6 -8 -13 -8 -7 0
-22 32 -33 73 -12 40 -24 65 -27 57 -4 -8 -13 -41 -22 -73 -10 -34 -22 -56
-28 -54 -12 4 -55 135 -56 170 -2 32 18 18 28 -20z m957 6 c-3 -17 -6 -47 -6
-66 0 -20 -4 -32 -10 -28 -5 3 -10 33 -10 66 0 48 3 59 16 59 13 0 15 -7 10
-31z m-2046 -29 c44 -44 17 -130 -42 -130 -10 0 -30 12 -45 26 -20 20 -24 31
-19 57 11 60 68 85 106 47z m286 8 c4 -4 -5 -12 -20 -17 -26 -10 -27 -14 -30
-85 0 -16 -7 -31 -13 -33 -10 -4 -13 14 -13 65 0 38 2 71 4 73 7 7 64 4 72 -3z
m164 2 c13 -7 21 -7 25 0 4 6 11 8 16 5 10 -7 12 -117 3 -152 -8 -29 -53 -47
-87 -34 -40 15 -33 28 16 27 38 -1 42 2 45 24 3 20 1 23 -9 13 -18 -18 -49
-16 -71 4 -24 22 -24 77 2 103 23 23 33 24 60 10z m168 -6 c18 -13 22 -25 22
-72 l0 -57 -44 -2 c-86 -3 -101 70 -16 83 29 5 37 10 33 21 -5 11 -16 14 -47
9 l-41 -6 24 20 c28 24 40 25 69 4z m319 -10 c45 -45 17 -124 -44 -124 -33 0
-63 34 -63 73 0 37 7 49 35 65 30 17 43 15 72 -14z m463 6 c11 -11 20 -29 20
-40 0 -17 -7 -20 -44 -20 -51 0 -64 -11 -40 -34 18 -18 40 -21 49 -6 3 6 13
10 22 10 14 0 14 -3 -2 -20 -39 -43 -105 -13 -105 49 0 69 57 104 100 61z
m144 -1 c16 -15 -2 -23 -27 -12 -26 12 -54 2 -43 -15 3 -6 22 -16 41 -22 27
-9 35 -17 35 -35 0 -44 -63 -60 -95 -25 -14 16 -15 20 -4 20 8 0 20 -5 26 -11
13 -13 56 -2 50 14 -2 6 -19 16 -38 22 -40 14 -52 51 -22 72 18 14 60 10 77
-8z m201 -4 c40 -39 33 -55 -25 -55 -53 0 -65 -15 -35 -40 12 -10 21 -10 42
-1 32 15 45 4 19 -15 -29 -21 -54 -17 -83 12 -20 20 -24 31 -19 57 6 33 38 67
63 67 7 0 25 -11 38 -25z m85 -40 c7 -25 16 -43 20 -40 4 2 13 25 20 50 12 43
26 63 36 52 3 -3 -10 -44 -28 -92 -24 -65 -39 -90 -55 -96 -17 -6 -23 -5 -23
6 0 8 7 15 15 15 20 0 19 30 -5 90 -11 28 -20 58 -20 67 0 30 27 -5 40 -52z
m-1492 -12 c-2 -42 -8 -68 -15 -71 -10 -3 -13 15 -13 67 0 57 3 71 15 71 13 0
15 -12 13 -67z m2547 -62 c-27 -34 -50 -61 -53 -61 -10 0 -42 33 -42 43 0 6 9
2 20 -8 11 -10 21 -16 23 -14 26 37 91 109 94 105 3 -3 -16 -32 -42 -65z m65
4 c-50 -65 -58 -71 -73 -56 -8 8 -7 11 4 11 8 0 34 25 58 56 24 30 46 53 48
50 3 -3 -13 -30 -37 -61z m-532 -7 l-2 -63 -3 52 c-3 44 -7 51 -21 46 -13 -4
-12 -2 3 10 11 9 21 17 23 17 1 0 1 -28 0 -62z m165 2 c0 -28 -3 -54 -7 -57
-3 -3 -6 17 -6 45 0 45 -2 51 -17 45 -15 -5 -14 -3 2 10 11 8 22 14 24 12 2
-3 4 -27 4 -55z m116 51 c9 -6 12 -18 8 -32 -3 -13 -1 -29 5 -36 23 -28 -28
-55 -62 -33 -11 7 -6 8 16 4 36 -7 56 12 32 30 -12 8 -13 15 -4 28 15 25 -7
47 -29 28 -9 -7 -15 -8 -15 -2 0 9 14 19 30 21 3 0 11 -3 19 -8z m-390 -58
c-1 -62 -6 -56 -11 15 -2 23 0 42 4 42 5 0 7 -26 7 -57z m-263 26 c8 -14 -11
-33 -25 -25 -11 7 -4 36 9 36 5 0 12 -5 16 -11z m1035 -538 c28 -28 29 -33 29
-118 0 -51 -6 -99 -13 -113 -35 -69 -126 -57 -147 20 -13 48 -12 131 2 177 19
66 81 82 129 34z m-6511 -96 l0 -85 85 0 c69 0 85 -3 85 -15 0 -12 -16 -15
-85 -15 l-85 0 0 -85 c0 -66 -3 -85 -14 -85 -20 0 -26 23 -26 100 l0 69 -82 3
c-47 2 -83 7 -83 13 0 6 36 11 83 13 l82 3 0 78 c0 79 3 91 27 91 10 0 13 -21
13 -85z m5800 50 c19 -20 33 -25 71 -25 63 0 69 -12 69 -147 0 -157 13 -148
-220 -148 -233 0 -220 -9 -220 148 0 134 6 147 66 147 35 0 54 6 76 25 23 20
41 25 82 25 43 0 57 -4 76 -25z m-933 -5 c44 -26 57 -55 57 -126 0 -71 -17
-103 -82 -158 -28 -22 -56 -37 -75 -38 -149 -8 -193 37 -185 189 4 70 8 87 29
109 34 37 53 43 144 43 62 1 87 -3 112 -19z m1469 -147 c27 -82 61 -113 126
-113 48 0 97 41 107 89 3 19 12 36 19 39 20 6 14 -57 -8 -93 -19 -30 -72 -65
-99 -65 -6 0 -11 -13 -11 -30 0 -20 -5 -30 -15 -30 -10 0 -15 10 -15 28 -1 22
-9 31 -43 47 -48 23 -87 75 -87 116 0 32 17 39 26 12z m-1790 -807 c18 -26 18
-32 -6 -56 -20 -20 -33 -20 -1298 -20 -1154 0 -1280 2 -1300 16 -29 20 -25 54
8 71 20 10 288 12 1303 10 1253 -2 1279 -2 1293 -21z"/>
<path d="M1525 14870 c-18 -28 44 -42 70 -16 12 12 12 15 -1 20 -24 9 -62 7
-69 -4z"/>
<path d="M4360 14825 l0 -75 30 0 c41 0 70 31 70 75 0 44 -29 75 -70 75 l-30
0 0 -75z"/>
<path d="M6526 14848 c-32 -46 -9 -113 66 -194 90 -95 198 -130 228 -74 9 16
4 23 -27 44 -34 23 -39 24 -60 11 -35 -24 -51 -18 -103 35 -53 52 -59 72 -36
106 13 19 12 24 -11 57 -31 43 -37 45 -57 15z"/>
<path d="M2452 14838 c-20 -20 -14 -29 21 -26 20 2 32 8 32 18 0 19 -36 25
-53 8z"/>
<path d="M2862 14837 c-15 -18 -5 -27 30 -27 23 0 29 4 26 18 -4 21 -41 28
-56 9z"/>
<path d="M3647 14843 c-15 -14 -6 -29 19 -31 35 -3 48 6 33 24 -12 15 -41 19
-52 7z"/>
<path d="M4112 14837 c-15 -18 -5 -27 30 -27 23 0 29 4 26 18 -4 21 -41 28
-56 9z"/>
<path d="M4897 14843 c-15 -14 -7 -82 11 -92 38 -21 66 30 46 83 -6 16 -45 22
-57 9z"/>
<path d="M5082 14838 c-26 -26 -10 -78 24 -78 31 0 47 31 34 64 -10 28 -38 34
-58 14z"/>
<path d="M5570 14830 c-12 -7 -15 -32 -15 -120 0 -88 3 -113 15 -120 8 -5 68
-10 132 -10 149 0 147 -1 147 127 0 137 5 133 -142 133 -67 0 -129 -5 -137
-10z"/>
<path d="M5923 14767 c-30 -23 -42 -39 -42 -57 0 -18 12 -34 42 -57 l42 -32 3
44 c2 25 2 65 0 90 l-3 44 -42 -32z"/>
<path d="M779 14759 c-6 -12 -11 -41 -12 -65 -1 -78 38 -117 77 -78 22 22 25
108 5 146 -13 25 -56 23 -70 -3z"/>
<path d="M2144 14524 c-9 -35 7 -59 37 -59 21 0 24 4 24 40 0 36 -3 40 -27 43
-23 3 -29 -2 -34 -24z"/>
<path d="M2657 14537 c-8 -20 1 -27 35 -27 23 0 29 4 26 18 -4 22 -53 29 -61
9z"/>
<path d="M5212 7908 c-13 -13 -16 -47 -6 -72 10 -26 53 -20 64 9 19 51 -24 97
-58 63z"/>
<path d="M1906 7949 c-49 -39 -26 -129 34 -129 35 0 60 31 60 75 0 36 -8 48
-37 64 -28 14 -26 15 -57 -10z"/>
<path d="M3772 7908 c-13 -13 -16 -47 -6 -72 10 -26 53 -20 64 9 19 50 -24 97
-58 63z"/>
<path d="M4158 7896 c-16 -36 3 -79 34 -74 31 4 44 31 32 65 -13 38 -50 43
-66 9z"/>
<path d="M4890 7925 c0 -36 0 -36 38 -33 34 3 37 6 37 33 0 27 -3 30 -37 33
-38 3 -38 3 -38 -33z"/>
<path d="M2145 7850 c-9 -14 3 -30 24 -30 18 0 41 18 41 32 0 12 -58 10 -65
-2z"/>
<path d="M2680 7900 c-10 -18 -8 -20 30 -20 38 0 40 2 30 20 -6 11 -19 20 -30
20 -11 0 -24 -9 -30 -20z"/>
<path d="M3032 7908 c-20 -20 -14 -28 23 -28 37 0 49 22 19 34 -22 8 -28 8
-42 -6z"/>
<path d="M3931 7906 c-7 -8 -11 -30 -9 -48 2 -28 7 -34 30 -36 22 -3 30 2 38
22 20 52 -27 101 -59 62z"/>
<path d="M4310 7900 c-10 -18 -8 -20 30 -20 38 0 40 2 30 20 -6 11 -19 20 -30
20 -11 0 -24 -9 -30 -20z"/>
<path d="M5061 7906 c-7 -8 -11 -30 -9 -48 2 -27 8 -34 30 -36 19 -2 30 3 38
18 26 48 -26 105 -59 66z"/>
<path d="M5370 7900 c-10 -18 -8 -20 30 -20 38 0 40 2 30 20 -6 11 -19 20 -30
20 -11 0 -24 -9 -30 -20z"/>
<path d="M5675 7850 c-9 -14 3 -30 24 -30 18 0 41 18 41 32 0 12 -58 10 -65
-2z"/>
<path d="M6132 7908 c-20 -20 -14 -28 23 -28 19 0 35 4 35 8 0 12 -22 32 -35
32 -6 0 -16 -5 -23 -12z"/>
<path d="M2240 7541 c-13 -26 -13 -54 2 -69 35 -35 82 14 60 63 -14 30 -47 33
-62 6z"/>
<path d="M3822 7548 c-13 -13 -16 -47 -6 -72 9 -23 51 -20 64 4 25 46 -23 103
-58 68z"/>
<path d="M6314 7552 c-18 -12 -26 -50 -14 -72 13 -24 55 -27 64 -4 20 53 -12
102 -50 76z"/>
<path d="M1887 7493 c-17 -17 -6 -34 20 -31 36 4 45 38 10 38 -13 0 -27 -3
-30 -7z"/>
<path d="M2395 7490 c-10 -16 4 -30 30 -30 19 0 35 16 35 36 0 9 -59 3 -65 -6z"/>
<path d="M2723 7553 c-28 -11 -13 -33 22 -33 37 0 43 8 23 28 -13 13 -24 14
-45 5z"/>
<path d="M3242 7548 c-20 -20 -14 -28 23 -28 37 0 49 22 19 34 -22 8 -28 8
-42 -6z"/>
<path d="M3526 7544 c-23 -22 -21 -24 24 -24 38 0 40 2 30 20 -13 24 -33 26
-54 4z"/>
<path d="M3994 7552 c-18 -12 -24 -41 -14 -68 8 -20 16 -25 38 -22 23 2 28 8
30 36 5 48 -23 75 -54 54z"/>
<path d="M4587 7493 c-17 -17 -6 -34 20 -31 36 4 45 38 10 38 -13 0 -27 -3
-30 -7z"/>
<path d="M4795 7490 c-10 -16 4 -30 30 -30 19 0 35 16 35 36 0 9 -59 3 -65 -6z"/>
<path d="M5077 7493 c-17 -17 -6 -34 20 -31 36 4 45 38 10 38 -13 0 -27 -3
-30 -7z"/>
<path d="M5347 7493 c-17 -17 -6 -34 20 -31 36 4 45 38 10 38 -13 0 -27 -3
-30 -7z"/>
<path d="M5637 7493 c-17 -17 -6 -34 20 -31 36 4 45 38 10 38 -13 0 -27 -3
-30 -7z"/>
<path d="M5781 7546 c-7 -8 -11 -30 -9 -48 2 -27 8 -34 30 -36 19 -2 30 3 38
18 26 48 -26 105 -59 66z"/>
<path d="M6154 7552 c-18 -12 -24 -41 -14 -68 8 -20 16 -25 38 -22 23 2 28 8
30 36 5 48 -23 75 -54 54z"/>
<path d="M6552 7548 c-20 -20 -14 -28 23 -28 19 0 35 4 35 8 0 12 -22 32 -35
32 -6 0 -16 -5 -23 -12z"/>
<path d="M6772 7548 c-13 -13 -16 -47 -6 -72 10 -26 53 -20 66 9 22 49 -25 98
-60 63z"/>
<path d="M2832 7188 c-13 -13 -16 -47 -6 -72 9 -23 51 -20 64 4 25 46 -23 103
-58 68z"/>
<path d="M4801 7186 c-7 -8 -11 -30 -9 -48 2 -27 8 -34 30 -36 19 -2 30 3 38
18 26 48 -26 105 -59 66z"/>
<path d="M2123 7193 c-28 -11 -13 -33 22 -33 37 0 43 8 23 28 -13 13 -24 14
-45 5z"/>
<path d="M2677 7133 c-17 -17 -6 -34 20 -31 36 4 45 38 10 38 -13 0 -27 -3
-30 -7z"/>
<path d="M2977 7133 c-17 -17 -6 -34 20 -31 36 4 45 38 10 38 -13 0 -27 -3
-30 -7z"/>
<path d="M3339 7176 c-17 -38 -4 -76 26 -76 34 0 53 39 37 75 -15 32 -49 33
-63 1z"/>
<path d="M3901 7186 c-7 -8 -11 -30 -9 -48 3 -29 6 -33 33 -33 27 0 30 4 33
33 3 35 -11 62 -33 62 -7 0 -18 -6 -24 -14z"/>
<path d="M4271 7131 c-19 -12 -5 -31 24 -31 19 0 35 16 35 36 0 8 -45 4 -59
-5z"/>
<path d="M4581 7131 c-17 -11 -6 -31 18 -31 18 0 41 18 41 32 0 11 -41 10 -59
-1z"/>
<path d="M4962 7188 c-20 -20 -14 -28 23 -28 19 0 35 4 35 8 0 12 -22 32 -35
32 -6 0 -16 -5 -23 -12z"/>
<path d="M5747 7133 c-15 -14 -6 -33 17 -33 25 0 51 22 39 33 -8 9 -48 9 -56
0z"/>
<path d="M6077 7133 c-17 -17 -6 -34 20 -31 36 4 45 38 10 38 -13 0 -27 -3
-30 -7z"/>
<path d="M6306 7185 c-32 -32 -11 -91 30 -83 27 5 40 33 28 65 -11 33 -35 40
-58 18z"/>
<path d="M6445 7130 c-9 -14 3 -30 24 -30 18 0 41 18 41 32 0 12 -58 10 -65
-2z"/>
<path d="M6697 7133 c-17 -17 -6 -34 20 -31 36 4 45 38 10 38 -13 0 -27 -3
-30 -7z"/>
<path d="M2241 6826 c-7 -8 -11 -30 -9 -48 3 -29 6 -33 33 -33 27 0 30 4 33
33 3 35 -11 62 -33 62 -7 0 -18 -6 -24 -14z"/>
<path d="M4530 6810 l0 -70 30 0 c59 0 90 67 54 118 -11 15 -25 22 -50 22
l-34 0 0 -70z"/>
<path d="M5000 6819 c-15 -27 -9 -59 13 -73 39 -25 76 43 42 78 -22 22 -42 20
-55 -5z"/>
<path d="M6294 6832 c-18 -12 -26 -50 -14 -72 21 -39 70 -18 70 30 0 40 -28
61 -56 42z"/>
<path d="M1892 6828 c-20 -20 -14 -28 23 -28 19 0 35 4 35 8 0 12 -22 32 -35
32 -6 0 -16 -5 -23 -12z"/>
<path d="M2591 6771 c-17 -11 -6 -31 18 -31 18 0 41 18 41 32 0 11 -41 10 -59
-1z"/>
<path d="M2742 6828 c-27 -27 -11 -88 24 -88 39 0 58 55 28 84 -19 19 -36 20
-52 4z"/>
<path d="M3122 6828 c-13 -13 -16 -47 -6 -72 9 -23 51 -20 64 4 25 46 -23 103
-58 68z"/>
<path d="M3572 6828 c-20 -20 -14 -28 23 -28 19 0 35 4 35 8 0 12 -22 32 -35
32 -6 0 -16 -5 -23 -12z"/>
<path d="M4232 6828 c-20 -20 -14 -28 23 -28 37 0 49 22 19 34 -22 8 -28 8
-42 -6z"/>
<path d="M4722 6828 c-20 -20 -14 -28 23 -28 19 0 35 4 35 8 0 12 -22 32 -35
32 -6 0 -16 -5 -23 -12z"/>
<path d="M5173 6833 c-28 -11 -13 -33 22 -33 37 0 43 8 23 28 -13 13 -24 14
-45 5z"/>
<path d="M5447 6773 c-17 -17 -6 -34 20 -31 36 4 45 38 10 38 -13 0 -27 -3
-30 -7z"/>
<path d="M5737 6773 c-17 -17 -6 -34 20 -31 36 4 45 38 10 38 -13 0 -27 -3
-30 -7z"/>
<path d="M5882 6828 c-26 -26 -10 -78 24 -78 34 0 50 35 29 66 -17 26 -35 30
-53 12z"/>
<path d="M6137 6773 c-17 -17 -6 -34 20 -31 36 4 45 38 10 38 -13 0 -27 -3
-30 -7z"/>
<path d="M6440 6820 c-10 -18 -8 -20 25 -20 37 0 50 22 19 34 -25 10 -33 7
-44 -14z"/>
<path d="M6741 6826 c-7 -8 -11 -30 -9 -48 2 -27 8 -34 30 -36 19 -2 30 3 38
18 26 48 -26 105 -59 66z"/>
<path d="M2984 6472 c-18 -12 -26 -50 -14 -72 13 -24 55 -27 64 -4 20 53 -12
102 -50 76z"/>
<path d="M3873 6468 c-17 -22 -21 -42 -12 -66 7 -18 15 -23 36 -20 24 2 29 8
31 36 5 50 -30 81 -55 50z"/>
<path d="M4210 6459 c-24 -44 10 -96 48 -73 35 22 21 94 -18 94 -11 0 -24 -9
-30 -21z"/>
<path d="M4524 6472 c-18 -12 -24 -41 -14 -68 8 -20 16 -25 38 -22 23 2 28 8
30 36 5 48 -23 75 -54 54z"/>
<path d="M1904 6472 c-18 -12 -26 -50 -14 -72 13 -24 55 -27 64 -4 20 53 -12
102 -50 76z"/>
<path d="M2052 6468 c-20 -20 -14 -28 23 -28 19 0 35 4 35 8 0 12 -22 32 -35
32 -6 0 -16 -5 -23 -12z"/>
<path d="M2251 6411 c-17 -11 -6 -31 18 -31 18 0 41 18 41 32 0 11 -41 10 -59
-1z"/>
<path d="M2757 6413 c-17 -17 -6 -34 20 -31 36 4 45 38 10 38 -13 0 -27 -3
-30 -7z"/>
<path d="M3342 6468 c-13 -13 -16 -47 -6 -72 9 -25 53 -20 65 7 22 48 -24 100
-59 65z"/>
<path d="M3490 6461 c-22 -43 -5 -81 37 -81 16 0 25 7 29 26 14 56 -41 101
-66 55z"/>
<path d="M4367 6413 c-17 -17 -6 -34 20 -31 36 4 45 38 10 38 -13 0 -27 -3
-30 -7z"/>
<path d="M4670 6460 c-10 -18 -8 -20 30 -20 45 0 47 2 24 24 -21 22 -41 20
-54 -4z"/>
<path d="M3677 5344 c-12 -13 -8 -62 6 -67 23 -9 39 9 35 39 -3 27 -26 43 -41
28z"/>
<path d="M3537 5343 c-13 -13 -7 -61 9 -67 23 -9 24 -8 33 17 14 36 -18 75
-42 50z"/>
<path d="M3803 5288 c2 -7 12 -13 22 -13 10 0 20 6 23 13 2 7 -6 12 -23 12
-17 0 -25 -5 -22 -12z"/>
<path d="M542 4673 c4 -33 33 -42 62 -20 30 22 14 47 -29 47 -34 0 -36 -2 -33
-27z"/>
<path d="M540 4590 c0 -27 3 -30 34 -30 41 0 65 23 46 45 -7 8 -28 15 -46 15
-31 0 -34 -3 -34 -30z"/>
<path d="M1162 4648 c-26 -26 -11 -88 22 -88 44 0 62 52 30 84 -19 19 -36 20
-52 4z"/>
<path d="M1600 4630 l0 -70 33 0 c43 0 67 26 67 73 0 45 -22 67 -66 67 l-34 0
0 -70z"/>
<path d="M708 4635 c-16 -35 3 -75 36 -75 25 0 36 16 36 54 0 48 -53 63 -72
21z"/>
<path d="M1387 4593 c-17 -17 -6 -34 20 -31 36 4 45 38 10 38 -13 0 -27 -3
-30 -7z"/>
<path d="M1863 4648 c-17 -22 -21 -42 -12 -66 7 -18 15 -23 36 -20 24 2 29 8
31 36 5 50 -30 81 -55 50z"/>
<path d="M2011 4646 c-7 -8 -11 -27 -9 -43 2 -22 9 -29 30 -31 38 -4 56 30 33
64 -18 27 -37 31 -54 10z"/>
<path d="M2174 4652 c-18 -12 -24 -41 -14 -68 8 -20 16 -25 38 -22 23 2 28 8
30 36 5 48 -23 75 -54 54z"/>
<path d="M1407 4033 c-13 -13 -7 -71 9 -84 31 -25 69 24 53 69 -8 21 -47 31
-62 15z"/>
<path d="M2817 4033 c-13 -13 -7 -71 9 -84 31 -25 69 24 53 69 -8 21 -47 31
-62 15z"/>
<path d="M4806 4034 c-20 -19 -21 -68 -1 -84 19 -15 52 -4 60 21 15 46 -29 93
-59 63z"/>
<path d="M540 4050 c0 -40 1 -41 31 -38 64 6 64 70 0 76 -30 3 -31 2 -31 -38z"/>
<path d="M703 3983 c-18 -7 -16 -32 2 -39 18 -7 45 12 45 32 0 14 -23 17 -47
7z"/>
<path d="M1113 3983 c-18 -7 -16 -32 2 -39 18 -7 45 12 45 32 0 14 -23 17 -47
7z"/>
<path d="M1575 4036 c-38 -28 -7 -115 33 -90 25 16 28 80 4 93 -14 7 -24 7
-37 -3z"/>
<path d="M1807 4038 c-21 -11 -23 -71 -2 -88 34 -28 73 17 55 65 -10 27 -30
36 -53 23z"/>
<path d="M2057 3983 c-22 -6 -19 -36 4 -41 19 -4 52 25 44 39 -6 9 -18 10 -48
2z"/>
<path d="M2272 4028 c-24 -24 -4 -88 28 -88 28 0 48 48 34 84 -7 19 -45 21
-62 4z"/>
<path d="M2420 3975 c-10 -12 -10 -19 -2 -27 15 -15 62 5 62 27 0 20 -44 20
-60 0z"/>
<path d="M2660 3975 c-10 -12 -10 -19 -2 -27 15 -15 62 5 62 27 0 20 -44 20
-60 0z"/>
<path d="M2977 4039 c-28 -16 -20 -29 18 -29 38 0 46 13 17 29 -11 6 -24 6
-35 0z"/>
<path d="M3471 3981 c-17 -11 -7 -41 13 -41 19 0 48 29 41 41 -8 11 -36 11
-54 0z"/>
<path d="M3869 4029 c-14 -14 -19 -28 -15 -42 3 -12 6 -25 6 -29 0 -14 41 -19
55 -8 23 19 19 77 -5 90 -16 8 -24 6 -41 -11z"/>
<path d="M4017 4034 c-15 -16 -5 -24 29 -24 24 0 34 4 32 13 -5 13 -50 22 -61
11z"/>
<path d="M4235 4033 c-33 -32 -7 -101 33 -89 24 8 36 38 28 71 -7 28 -41 38
-61 18z"/>
<path d="M4653 3983 c-18 -7 -16 -32 2 -39 18 -7 45 12 45 32 0 14 -23 17 -47
7z"/>
<path d="M4953 3983 c-18 -7 -16 -32 2 -39 18 -7 45 12 45 32 0 14 -23 17 -47
7z"/>
<path d="M5330 4042 c-21 -7 -30 -23 -30 -54 0 -48 61 -61 76 -16 13 43 -12
82 -46 70z"/>
<path d="M1530 3661 c-14 -27 -3 -69 21 -76 31 -10 50 13 47 54 -3 31 -7 36
-30 39 -19 2 -30 -3 -38 -17z"/>
<path d="M3671 3657 c-13 -33 -3 -65 21 -72 30 -10 49 13 46 54 -3 31 -7 36
-30 39 -22 3 -30 -2 -37 -21z"/>
<path d="M620 3665 c-11 -13 -7 -15 28 -15 33 0 40 3 36 15 -4 8 -16 15 -29
15 -12 0 -28 -7 -35 -15z"/>
<path d="M927 3673 c-12 -11 -8 -68 5 -81 19 -19 36 -14 54 13 14 21 15 31 6
50 -11 24 -49 35 -65 18z"/>
<path d="M1307 3673 c-13 -13 -7 -71 9 -84 31 -25 69 24 53 69 -8 21 -47 31
-62 15z"/>
<path d="M1687 3666 c-5 -13 1 -16 29 -16 24 0 34 4 32 13 -7 19 -54 21 -61 3z"/>
<path d="M1977 3674 c-15 -16 -5 -24 29 -24 24 0 34 4 32 13 -5 13 -50 22 -61
11z"/>
<path d="M2417 3677 c-26 -21 -29 -52 -8 -78 27 -32 55 -16 59 34 4 42 -23 66
-51 44z"/>
<path d="M3067 3679 c-28 -16 -20 -29 18 -29 38 0 46 13 17 29 -11 6 -24 6
-35 0z"/>
<path d="M3447 3673 c-13 -12 -7 -70 8 -83 35 -29 78 26 55 70 -10 19 -49 27
-63 13z"/>
<path d="M3837 3673 c-13 -12 -7 -70 8 -83 36 -29 79 24 55 69 -10 20 -49 29
-63 14z"/>
<path d="M4204 3656 c-8 -34 3 -64 27 -71 26 -8 49 11 49 40 0 41 -11 55 -41
55 -22 0 -30 -6 -35 -24z"/>
<path d="M4630 3654 c-8 -20 -7 -32 5 -50 29 -44 69 -20 63 38 -2 28 -7 34
-30 36 -23 3 -30 -2 -38 -24z"/>
<path d="M5146 3665 c-4 -12 3 -15 36 -15 35 0 39 2 28 15 -7 8 -23 15 -35 15
-13 0 -25 -7 -29 -15z"/>
<path d="M2784 3294 c-8 -31 10 -74 30 -74 22 0 46 28 46 54 0 49 -64 66 -76
20z"/>
<path d="M5181 3297 c-13 -33 -3 -65 21 -72 30 -10 49 13 46 54 -3 31 -7 36
-30 39 -22 3 -30 -2 -37 -21z"/>
<path d="M837 3313 c-13 -12 -7 -70 8 -83 36 -29 79 24 55 69 -10 20 -49 29
-63 14z"/>
<path d="M1220 3301 c-14 -27 -3 -69 21 -76 31 -10 50 13 47 54 -3 31 -7 36
-30 39 -19 2 -30 -3 -38 -17z"/>
<path d="M1377 3313 c-15 -15 -5 -23 28 -23 26 0 33 3 29 15 -6 15 -45 21 -57
8z"/>
<path d="M1717 3314 c-15 -16 -5 -24 29 -24 24 0 34 4 32 13 -5 13 -50 22 -61
11z"/>
<path d="M2017 3313 c-13 -12 -7 -70 8 -83 33 -28 73 15 61 66 -5 18 -13 24
-35 24 -15 0 -31 -3 -34 -7z"/>
<path d="M2253 3263 c-18 -7 -16 -32 2 -39 18 -7 45 12 45 32 0 14 -23 17 -47
7z"/>
<path d="M2390 3305 c-17 -20 -5 -62 21 -70 36 -12 60 25 43 69 -8 20 -48 21
-64 1z"/>
<path d="M2646 3257 c-17 -12 -17 -14 -1 -27 19 -16 48 -3 53 24 4 20 -26 22
-52 3z"/>
<path d="M2957 3313 c-15 -15 -5 -23 28 -23 26 0 33 3 29 15 -6 15 -45 21 -57
8z"/>
<path d="M3247 3313 c-15 -15 -5 -23 28 -23 26 0 33 3 29 15 -6 15 -45 21 -57
8z"/>
<path d="M3621 3297 c-13 -33 -3 -65 21 -72 30 -10 49 13 46 54 -3 31 -7 36
-30 39 -22 3 -30 -2 -37 -21z"/>
<path d="M3980 3305 c-11 -13 -7 -15 28 -15 33 0 40 3 36 15 -4 8 -16 15 -29
15 -12 0 -28 -7 -35 -15z"/>
<path d="M4581 3297 c-13 -33 -3 -65 21 -72 30 -10 49 13 46 54 -3 31 -7 36
-30 39 -22 3 -30 -2 -37 -21z"/>
<path d="M4960 3305 c-11 -13 -7 -15 28 -15 33 0 40 3 36 15 -4 8 -16 15 -29
15 -12 0 -28 -7 -35 -15z"/>
<path d="M5353 3263 c-18 -7 -16 -32 2 -39 18 -7 45 12 45 32 0 14 -23 17 -47
7z"/>
<path d="M4642 2948 c-27 -27 -3 -88 34 -88 20 0 38 43 30 74 -7 28 -42 36
-64 14z"/>
<path d="M690 2941 c-14 -27 -3 -69 21 -76 31 -10 50 13 47 54 -3 31 -7 36
-30 39 -19 2 -30 -3 -38 -17z"/>
<path d="M1116 2897 c-17 -12 -17 -14 -1 -27 19 -16 48 -3 53 24 4 20 -26 22
-52 3z"/>
<path d="M1327 2946 c-5 -13 1 -16 29 -16 24 0 34 4 32 13 -7 19 -54 21 -61 3z"/>
<path d="M1706 2944 c-10 -25 -7 -59 6 -72 35 -35 82 14 60 63 -13 29 -56 35
-66 9z"/>
<path d="M1957 2954 c-15 -16 -5 -24 29 -24 24 0 34 4 32 13 -5 13 -50 22 -61
11z"/>
<path d="M2243 2903 c-16 -6 -17 -29 -3 -38 18 -11 50 6 50 26 0 19 -19 24
-47 12z"/>
<path d="M2467 2953 c-13 -12 -7 -70 8 -83 34 -29 72 19 54 68 -8 21 -47 31
-62 15z"/>
<path d="M2617 2954 c-15 -16 -5 -24 29 -24 24 0 34 4 32 13 -5 13 -50 22 -61
11z"/>
<path d="M2827 2953 c-13 -12 -7 -70 8 -83 35 -29 78 26 55 70 -10 19 -49 27
-63 13z"/>
<path d="M3057 2953 c-15 -15 -5 -23 28 -23 26 0 33 3 29 15 -6 15 -45 21 -57
8z"/>
<path d="M3477 2954 c-15 -16 -5 -24 29 -24 24 0 34 4 32 13 -5 13 -50 22 -61
11z"/>
<path d="M3687 2954 c-15 -16 -5 -24 29 -24 24 0 34 4 32 13 -5 13 -50 22 -61
11z"/>
<path d="M4077 2954 c-15 -16 -5 -24 29 -24 24 0 34 4 32 13 -5 13 -50 22 -61
11z"/>
<path d="M4498 2899 c-21 -12 -13 -39 11 -39 20 0 41 19 41 37 0 15 -28 17
-52 2z"/>
<path d="M4803 2903 c-18 -7 -16 -32 2 -39 18 -7 45 12 45 32 0 14 -23 17 -47
7z"/>
<path d="M5157 2953 c-13 -12 -7 -70 8 -83 35 -29 85 39 55 75 -13 15 -51 20
-63 8z"/>
<path d="M3976 1844 c-10 -27 -7 -61 9 -74 35 -29 78 26 55 70 -13 24 -55 27
-64 4z"/>
<path d="M4597 1853 c-13 -13 -7 -71 9 -84 31 -25 69 24 53 69 -8 21 -47 31
-62 15z"/>
<path d="M3814 1834 c-8 -31 10 -74 30 -74 20 0 46 28 46 50 0 35 -12 50 -41
50 -22 0 -30 -6 -35 -26z"/>
<path d="M4290 1840 c-14 -27 -5 -57 21 -65 29 -10 51 13 47 49 -2 25 -8 32
-30 34 -19 2 -30 -3 -38 -18z"/>
<path d="M4458 1803 c-20 -5 -24 -28 -8 -38 18 -11 50 6 50 26 0 19 -8 21 -42
12z"/>
<path d="M4751 1838 c-17 -45 22 -95 54 -68 11 9 15 25 13 49 -3 31 -7 36 -31
39 -21 3 -29 -2 -36 -20z"/>
<path d="M5216 1845 c-4 -12 3 -15 34 -15 31 0 38 3 34 15 -4 8 -18 15 -34 15
-16 0 -30 -7 -34 -15z"/>
<path d="M5567 1854 c-15 -16 -5 -24 29 -24 24 0 34 4 32 13 -5 13 -50 22 -61
11z"/>
<path d="M6900 1223 c-26 -10 -30 -25 -30 -118 0 -100 7 -115 52 -115 39 0 51
34 46 133 -3 64 -7 81 -23 93 -20 15 -22 15 -45 7z"/>
<path d="M6121 1159 c-13 -14 -38 -23 -73 -27 l-53 -7 -3 -108 c-3 -104 -2
-107 20 -115 28 -10 330 -8 346 2 17 10 16 215 0 221 -7 2 -33 7 -57 9 -26 3
-51 13 -63 26 -26 28 -90 27 -117 -1z m126 -71 c63 -59 18 -168 -68 -168 -35
0 -78 32 -90 67 -32 98 83 171 158 101z m81 -1 c4 -22 -27 -35 -38 -16 -10 15
7 42 24 36 6 -2 12 -11 14 -20z"/>
<path d="M6135 1065 c-28 -27 -31 -45 -14 -78 16 -29 28 -37 62 -37 34 0 67
32 67 65 0 31 -41 75 -70 75 -11 0 -32 -11 -45 -25z"/>
<path d="M5096 1144 c-24 -25 -26 -33 -26 -114 0 -101 17 -135 75 -146 54 -10
75 2 75 41 0 49 36 87 91 94 l44 6 -1 49 c0 40 -5 53 -28 72 -24 21 -37 24
-115 24 -82 0 -90 -2 -115 -26z"/>
<path d="M5287 988 c-26 -9 -29 -15 -42 -80 -5 -28 11 -21 60 25 63 61 57 82
-18 55z"/>
</g>
</svg>
